M48
;Layer_Color=9474304
;FILE_FORMAT=2:5
INCH,LZ
;TYPE=PLATED
T1F00S00C0.01500
T2F00S00C0.02800
T3F00S00C0.06102
T4F00S00C0.07874
%
T01
X0681161Y0021622
X0686161
X0691161
X0696161
X0701161
X0703661Y0026622
X0698661
X0693661
X0688661
X0683661
X0691161Y0031622
X0696161
X0701161
X0703661Y0036622
X0698661
X0693661
X0688661
X0681161Y0041622
X0701161
X0703661Y0046622
X0698661
X0701161Y0051622
X0703661Y0056622
X0698661
X0701161Y0061622
X0703661Y0066622
X0698661
X0701161Y0071622
X0703661Y0076622
X0698661
X0693661
X0688661
X0691161Y0081622
X0696161
X0701161
X0703661Y0086622
X0698661
X0693661
X0688661
X0683661
T02
X0514486Y0040471
X0520486
X0526486
X0532486
X0538486
X0544486
X0550486
X0556486
X0562486
X0568486
X0574486
X0580486
X0586486
X0592486
X0598486
X0604486
X0610486
X0616486
X0622486
X0628486
X0634486
X0640486
X0646486
X0652486
X0646765Y0048529
X0640765
X0634764
X0628764
X0622764
X0616764
X0610765
X0604765
X0598765
X0592765
X0586764
X0580764
X0574764
X0568764
X0562765
X0556765
X0550765
X0544765
X0538764
X0532764
X0526764
X0520764
X0514764
X0514487Y0059671
X0520487
X0526487
X0532487
X0538487
X0544487
X0550487
X0556487
X0562487
X0568487
X0574487
X0580487
X0586487
X0592487
X0598487
X0604487
X0610487
X0616487
X0622487
X0628487
X0634487
X0640487
X0646487
X0652487
X0646765Y0067729
X0640765
X0634764
X0628764
X0622764
X0616764
X0610765
X0604765
X0598765
X0592765
X0586764
X0580764
X0574764
X0568764
X0562765
X0556765
X0550765
X0544765
X0538764
X0532764
X0526764
X0520764
X0514764
X0666578Y0063219
X066657Y004438
X0508765Y0048529
X0502765
X0496765
X0490765
X0484764
X0478764
X0472764
X0466764
X0460765
X0454765
X0448765
X0442765
X0436764
X0430764
X0424764
X0418764
X0412765
X0406765
X0400765
X0394764
X0388765
X0382765
X0376764
X0370764
X0364764
X0358765
X0358486Y0040471
X0364486
X0370486
X0376486
X0382486
X0388486
X0394486
X0400486
X0406486
X0412486
X0418486
X0424486
X0430486
X0436486
X0442486
X0448486
X0454486
X0460486
X0466486
X0472486
X0478486
X0484486
X0490486
X0496486
X0502486
X0508486
X0508487Y0059671
X0502487
X0496487
X0490487
X0484487
X0478487
X0472487
X0466487
X0460487
X0454487
X0448487
X0442487
X0436487
X0430487
X0424487
X0418487
X0412487
X0406487
X0400487
X0394487
X0388487
X0382487
X0376487
X0370487
X0364487
X0358487
X0358765Y0067729
X0364764
X0370764
X0376764
X0382765
X0388765
X0394764
X0400765
X0406765
X0412765
X0418764
X0424764
X0430764
X0436764
X0442765
X0448765
X0454765
X0460765
X0466764
X0472764
X0478764
X0484764
X0490765
X0496765
X0502765
X0508765
X0352765
X0346764
X0340764
X0334765
X0328765
X0322764
X0316764
X0310765
X0304765
X0298764
X0292764
X0286765
X0280765
X0274764
X0268764
X0262765
X0256765
X0250764
X0244764
X0238765
X0232765
X0226764
X0220764
X0214764
X0208765
X0202765
X0202487Y0059671
X0208487
X0214487
X0220487
X0226487
X0232487
X0238487
X0244487
X0250487
X0256487
X0262487
X0268487
X0274487
X0280487
X0286487
X0292487
X0298487
X0304487
X0310487
X0316487
X0322487
X0328487
X0334487
X0340487
X0346487
X0352487
X0352765Y0048529
X0346764
X0340764
X0334765
X0328765
X0322764
X0316764
X0310765
X0304765
X0298764
X0292764
X0286765
X0280765
X0274764
X0268764
X0262765
X0256765
X0250764
X0244764
X0238765
X0232765
X0226764
X0220764
X0214764
X0208765
X0202765
X0202486Y0040471
X0208486
X0214486
X0220486
X0226486
X0232486
X0238486
X0244486
X0250486
X0256486
X0262486
X0268486
X0274486
X0280486
X0286486
X0292486
X0298486
X0304486
X0310486
X0316486
X0322486
X0328486
X0334486
X0340486
X0346486
X0352486
X0196486
X0190486
X0184486
X0178486
X0172486
X0166486
X0160486
X0154486
X0148486
X0142486
X0136486
X0130486
X0124486
X0118486
X0112486
X0106486
X0100486
X0094486
X0088486
X0082486
X0076486
X0070486
X0064486
X0058486
X0052486
X0046486
X0046764Y0048529
X0052764
X0058764
X0064764
X0070764
X0076765
X0082765
X0088765
X0094765
X0100765
X0106764
X0112765
X0118764
X0124765
X0130764
X0136765
X0142764
X0148765
X0154764
X0160765
X0166764
X0172765
X0178764
X0184765
X0190764
X0196765
X0196487Y0059671
X0190487
X0184487
X0178487
X0172487
X0166487
X0160487
X0154487
X0148487
X0142487
X0136487
X0130487
X0124487
X0118487
X0112487
X0106487
X0100487
X0094487
X0088487
X0082487
X0076487
X0070487
X0064487
X0058487
X0052487
X0046487
X0046764Y0067729
X0052764
X0058764
X0064764
X0070764
X0076765
X0082765
X0088765
X0094765
X0100765
X0106764
X0112765
X0118764
X0124765
X0130764
X0136765
X0142764
X0148765
X0154764
X0160765
X0166764
X0172765
X0178764
X0184765
X0190764
X0196765
X0040764
X0034765
X0028765
X0022764
X0022487Y0059671
X0028487
X0034487
X0040487
X0040764Y0048529
X0034765
X0028765
X0022764
X0022486Y0040471
X0028486
X0034486
X0040486
T03
X0675858Y0035728
X0675661Y0073622
T04
X0017Y0015
Y0095236
M30
