M48
;Layer_Color=9474304
;FILE_FORMAT=2:5
INCH,LZ
;TYPE=PLATED
T1F00S00C0.01500
T2F00S00C0.06102
T3F00S00C0.07874
%
T01
X0681161Y0021622
X0686161
X0691161
X0696161
X0701161
X0703661Y0026622
X0698661
X0693661
X0688661
X0683661
X0691161Y0031622
X0696161
X0701161
X0703661Y0036622
X0698661
X0693661
X0688661
X0681161Y0041622
X0701161
X0703661Y0046622
X0698661
X0701161Y0051622
X0703661Y0056622
X0698661
X0701161Y0061622
X0703661Y0066622
X0698661
X0701161Y0071622
X0703661Y0076622
X0698661
X0693661
X0688661
X0691161Y0081622
X0696161
X0701161
X0703661Y0086622
X0698661
X0693661
X0688661
X0683661
X0665904Y0062013
X0665904Y0046608
Y0043108
X0650669Y0039412
X0647169
X0643669
X0640169
X0636669
X0633169
X0629669
X0626169
X0622669
X0619169
X0615669
X0612169
X0608669
X0605169
X0601669
X0598169
X0594669
X0591169
X0587669
X0584169
X0580669
X0577169
X0573669
X0570169
X0566669
X0563169
X0559669
X0556169
X0552669
X0549169
X0545669
X0542169
X0538669
X0535169
X0531669
X0528169
X0524669
X0521169
X0517669
X0514169
X0513324Y0049565
X0516824
X0520324
X0523824
X0527324
X0530824
X0534324
X0537824
X0541324
X0544824
X0548324
X0551824
X0555324
X0558824
X0562324
X0565824
X0569324
X0572824
X0576324
X0579824
X0583324
X0586824
X0590324
X0593824
X0597324
X0600824
X0604324
X0607824
X0611324
X0614824
X0618324
X0621824
X0625324
X0628824
X0632324
X0635824
X0639324
X0642824
X0646324
X0649824
X0653324
X0650689Y0058623
X0647189
X0643689
X0640189
X0636689
X0633189
X0629689
X0626189
X0622689
X0619189
X0615689
X0612189
X0608689
X0605189
X0601689
X0598189
X0594689
X0591189
X0587689
X0584189
X0580689
X0577189
X0573689
X0570189
X0566689
X0563189
X0559689
X0556189
X0552689
X0549189
X0545689
X0542189
X0538689
X0535189
X0531689
X0528189
X0524689
X0521189
X0517689
X0514189
X0513325Y0068777
X0516825
X0520325
X0523825
X0527325
X0530825
X0534325
X0537825
X0541325
X0544825
X0548325
X0551825
X0555325
X0558825
X0562325
X0565825
X0569325
X0572825
X0576325
X0579825
X0583325
X0586825
X0590325
X0593825
X0597325
X0600825
X0604325
X0607825
X0611325
X0614825
X0618325
X0621825
X0625325
X0628825
X0632325
X0635825
X0639325
X0642825
X0646325
X0649825
X0653325
X0509825
X0506325
X0502825
X0499325
X0495825
X0492325
X0488825
X0485325
X0481825
X0478325
X0474825
X0471325
X0467825
X0464325
X0460825
X0457325
X0453825
X0450325
X0446825
X0443325
X0439825
X0436325
X0432825
X0429325
X0425825
X0422325
X0418825
X0415325
X0411825
X0408325
X0404825
X0401325
X0397825
X0394325
X0390825
X0387325
X0383825
X0380325
X0376825
X0373325
X0369825
X0366325
X0362825
X0359325
X0355825
X0356689Y0058623
X0360189
X0363689
X0367189
X0370689
X0374189
X0377689
X0381189
X0384689
X0388189
X0391689
X0395189
X0398689
X0402189
X0405689
X0409189
X0412689
X0416189
X0419689
X0423189
X0426689
X0430189
X0433689
X0437189
X0440689
X0444189
X0447689
X0451189
X0454689
X0458189
X0461689
X0465189
X0468689
X0472189
X0475689
X0479189
X0482689
X0486189
X0489689
X0493189
X0496689
X0500189
X0503689
X0507189
X0510689
X0509824Y0049565
X0506324
X0502824
X0499324
X0495824
X0492324
X0488824
X0485324
X0481824
X0478324
X0474824
X0471324
X0467824
X0464324
X0460824
X0457324
X0453824
X0450324
X0446824
X0443324
X0439824
X0436324
X0432824
X0429324
X0425824
X0422324
X0418824
X0415324
X0411824
X0408324
X0404824
X0401324
X0397824
X0394324
X0390824
X0387324
X0383824
X0380324
X0376824
X0373324
X0369824
X0366324
X0362824
X0359324
X0355824
X0356669Y0039412
X0360169
X0363669
X0367169
X0370669
X0374169
X0377669
X0381169
X0384669
X0388169
X0391669
X0395169
X0398669
X0402169
X0405669
X0409169
X0412669
X0416169
X0419669
X0423169
X0426669
X0430169
X0433669
X0437169
X0440669
X0444169
X0447669
X0451169
X0454669
X0458169
X0461669
X0465169
X0468669
X0472169
X0475669
X0479169
X0482669
X0486169
X0489669
X0493169
X0496669
X0500169
X0503669
X0507169
X0510669
X0353169
X0349669
X0346169
X0342669
X0339169
X0335669
X0332169
X0328669
X0325169
X0321669
X0318169
X0314669
X0311169
X0307669
X0304169
X0300669
X0297169
X0293669
X0290169
X0286669
X0283169
X0279669
X0276169
X0272669
X0269169
X0265669
X0262169
X0258669
X0255169
X0251669
X0248169
X0244669
X0241169
X0237669
X0234169
X0230669
X0227169
X0223669
X0220169
X0216669
X0213169
X0209669
X0206169
X0202669
X0199169
X0201824Y0049565
X0205324
X0208824
X0212324
X0215824
X0219324
X0222824
X0226324
X0229824
X0233324
X0236824
X0240324
X0243824
X0247324
X0250824
X0254324
X0257824
X0261324
X0264824
X0268324
X0271824
X0275324
X0278824
X0282324
X0285824
X0289324
X0292824
X0296324
X0299824
X0303324
X0306824
X0310324
X0313824
X0317324
X0320824
X0324324
X0327824
X0331324
X0334824
X0338324
X0341824
X0345324
X0348824
X0352324
X0353189Y0058623
X0349689
X0346189
X0342689
X0339189
X0335689
X0332189
X0328689
X0325189
X0321689
X0318189
X0314689
X0311189
X0307689
X0304189
X0300689
X0297189
X0293689
X0290189
X0286689
X0283189
X0279689
X0276189
X0272689
X0269189
X0265689
X0262189
X0258689
X0255189
X0251689
X0248189
X0244689
X0241189
X0237689
X0234189
X0230689
X0227189
X0223689
X0220189
X0216689
X0213189
X0209689
X0206189
X0202689
X0199189
X0201825Y0068777
X0205325
X0208825
X0212325
X0215825
X0219325
X0222825
X0226325
X0229825
X0233325
X0236825
X0240325
X0243825
X0247325
X0250825
X0254325
X0257825
X0261325
X0264825
X0268325
X0271825
X0275325
X0278825
X0282325
X0285825
X0289325
X0292825
X0296325
X0299825
X0303325
X0306825
X0310325
X0313825
X0317325
X0320825
X0324325
X0327825
X0331325
X0334825
X0338325
X0341825
X0345325
X0348825
X0352325
X0198325
X0194825
X0191325
X0187825
X0184325
X0180825
X0177325
X0173825
X0170325
X0166825
X0163325
X0159825
X0156325
X0152825
X0149325
X0145825
X0142325
X0138825
X0135325
X0131825
X0128325
X0124825
X0121325
X0117825
X0114325
X0110825
X0107325
X0103825
X0100325
X0096825
X0093325
X0089825
X0086325
X0082825
X0079325
X0075825
X0072325
X0068825
X0065325
X0061825
X0058325
X0054825
X0051325
X0047825
X0044325
X0045189Y0058623
X0048689
X0052189
X0055689
X0059189
X0062689
X0066189
X0069689
X0073189
X0076689
X0080189
X0083689
X0087189
X0090689
X0094189
X0097689
X0101189
X0104689
X0108189
X0111689
X0115189
X0118689
X0122189
X0125689
X0129189
X0132689
X0136189
X0139689
X0143189
X0146689
X0150189
X0153689
X0157189
X0160689
X0164189
X0167689
X0171189
X0174689
X0178189
X0181689
X0185189
X0188689
X0192189
X0195689
X0194824Y0049565
X0191324
X0187824
X0184324
X0180824
X0177324
X0173824
X0170324
X0166824
X0163324
X0159824
X0156324
X0152824
X0149324
X0145824
X0142324
X0138824
X0135324
X0131824
X0128324
X0124824
X0121324
X0117824
X0114324
X0110824
X0107324
X0103824
X0100324
X0096824
X0093324
X0089824
X0086324
X0082824
X0079324
X0075824
X0072324
X0068824
X0065324
X0061824
X0058324
X0054824
X0051324
X0047824
X0044324
X0045169Y0039412
X0048669
X0052169
X0055669
X0059169
X0062669
X0066169
X0069669
X0073169
X0076669
X0080169
X0083669
X0087169
X0090669
X0094169
X0097669
X0101169
X0104669
X0108169
X0111669
X0115169
X0118669
X0122169
X0125669
X0129169
X0132669
X0136169
X0139669
X0143169
X0146669
X0150169
X0153669
X0157169
X0160669
X0164169
X0167669
X0171169
X0174669
X0178169
X0181669
X0185169
X0188669
X0192169
X0195669
X0198324Y0049565
X0040824
X0037324
X0033824
X0030324
X0026824
X0023324
X0019824
X0020689Y0058623
X0024189
X0027689
X0031189
X0034689
X0038189
X0041689
X0040825Y0068777
X0037325
X0033825
X0030325
X0026825
X0023325
X0019825
X0020669Y0039412
X0024169
X0027669
X0031169
X0034669
X0038169
X0041669
T02
X0675858Y0035728
X0675661Y0073622
T03
X0017Y0015
Y0095236
M30
