G04 Layer_Color=16711935*
%FSAX25Y25*%
%MOIN*%
G70*
G01*
G75*
%ADD14C,0.01500*%
%ADD19C,0.01000*%
%ADD24C,0.00100*%
D14*
X0193389Y0388128D02*
X0210924D01*
X0221021Y0398225D01*
X0647269Y0398214D01*
Y0448645D01*
X0221126D02*
X0647269D01*
X0211039Y0458732D02*
X0221126Y0448645D01*
X0193389Y0458732D02*
X0211039D01*
X0193389Y0388128D02*
Y0458732D01*
X0647269Y0461732D02*
Y0557732D01*
X0535301Y0533732D02*
X0647269D01*
X0535301Y0521732D02*
X0647269D01*
X0535301Y0509732D02*
X0647269D01*
X0535301Y0497732D02*
X0647269D01*
X0535301Y0485732D02*
X0647269D01*
X0535301Y0473732D02*
X0647269D01*
X0535301Y0461732D02*
X0647269D01*
X0535301D02*
Y0557732D01*
X0478314Y0533732D02*
X0535301D01*
X0478314Y0521732D02*
X0535301D01*
X0478314Y0509732D02*
X0535301D01*
X0478314Y0497732D02*
X0535301D01*
X0478314Y0485732D02*
X0535301D01*
X0478314Y0473732D02*
X0535301D01*
X0478314Y0461732D02*
X0535301D01*
X0478314D02*
Y0557732D01*
X0413331Y0533732D02*
X0478314D01*
X0413331Y0521732D02*
X0478314D01*
X0413331Y0509732D02*
X0478314D01*
X0413331Y0497732D02*
X0478314D01*
X0413331Y0485732D02*
X0478314D01*
X0413331Y0473732D02*
X0478314D01*
X0413331Y0461732D02*
X0478314D01*
X0413331D02*
Y0557732D01*
X0327354Y0533732D02*
X0413331D01*
X0327354Y0521732D02*
X0413331D01*
X0327354Y0509732D02*
X0413331D01*
X0327354Y0497732D02*
X0413331D01*
X0327354Y0485732D02*
X0413331D01*
X0327354Y0473732D02*
X0413331D01*
X0327354Y0461732D02*
X0413331D01*
X0327354D02*
Y0557732D01*
X0234380Y0533732D02*
X0327354D01*
X0234380Y0521732D02*
X0327354D01*
X0234380Y0509732D02*
X0327354D01*
X0234380Y0497732D02*
X0327354D01*
X0234380Y0485732D02*
X0327354D01*
X0234380Y0473732D02*
X0327354D01*
X0234380Y0461732D02*
X0327354D01*
X0234380D02*
Y0557732D01*
X0193389Y0533732D02*
X0234380D01*
X0193389Y0521732D02*
X0234380D01*
X0193389Y0509732D02*
X0234380D01*
X0193389Y0497732D02*
X0234380D01*
X0193389Y0485732D02*
X0234380D01*
X0193389Y0473732D02*
X0234380D01*
X0193389Y0461732D02*
X0234380D01*
X0193389D02*
Y0557732D01*
X0647269D01*
X0193389Y0545732D02*
X0647269D01*
D19*
X0541301Y0554730D02*
Y0548732D01*
X0544300D01*
X0545299Y0549731D01*
Y0550731D01*
X0544300Y0551731D01*
X0541301D01*
X0544300D01*
X0545299Y0552730D01*
Y0553730D01*
X0544300Y0554730D01*
X0541301D01*
X0548298Y0548732D02*
X0550298D01*
X0551297Y0549731D01*
Y0551731D01*
X0550298Y0552730D01*
X0548298D01*
X0547299Y0551731D01*
Y0549731D01*
X0548298Y0548732D01*
X0554296Y0552730D02*
X0556296D01*
X0557296Y0551731D01*
Y0548732D01*
X0554296D01*
X0553297Y0549731D01*
X0554296Y0550731D01*
X0557296D01*
X0559295Y0552730D02*
Y0548732D01*
Y0550731D01*
X0560294Y0551731D01*
X0561294Y0552730D01*
X0562294D01*
X0569292Y0554730D02*
Y0548732D01*
X0566293D01*
X0565293Y0549731D01*
Y0551731D01*
X0566293Y0552730D01*
X0569292D01*
X0577289Y0554730D02*
Y0548732D01*
X0581288D01*
X0584287Y0552730D02*
X0586286D01*
X0587286Y0551731D01*
Y0548732D01*
X0584287D01*
X0583287Y0549731D01*
X0584287Y0550731D01*
X0587286D01*
X0589285Y0552730D02*
Y0549731D01*
X0590285Y0548732D01*
X0593284D01*
Y0547732D01*
X0592284Y0546732D01*
X0591285D01*
X0593284Y0548732D02*
Y0552730D01*
X0598282Y0548732D02*
X0596283D01*
X0595283Y0549731D01*
Y0551731D01*
X0596283Y0552730D01*
X0598282D01*
X0599282Y0551731D01*
Y0550731D01*
X0595283D01*
X0601281Y0552730D02*
Y0548732D01*
Y0550731D01*
X0602281Y0551731D01*
X0603281Y0552730D01*
X0604280D01*
X0617276Y0553730D02*
X0616276Y0554730D01*
X0614277D01*
X0613277Y0553730D01*
Y0552730D01*
X0614277Y0551731D01*
X0616276D01*
X0617276Y0550731D01*
Y0549731D01*
X0616276Y0548732D01*
X0614277D01*
X0613277Y0549731D01*
X0620275Y0553730D02*
Y0552730D01*
X0619275D01*
X0621275D01*
X0620275D01*
Y0549731D01*
X0621275Y0548732D01*
X0625274Y0552730D02*
X0627273D01*
X0628272Y0551731D01*
Y0548732D01*
X0625274D01*
X0624274Y0549731D01*
X0625274Y0550731D01*
X0628272D01*
X0634271Y0552730D02*
X0631272D01*
X0630272Y0551731D01*
Y0549731D01*
X0631272Y0548732D01*
X0634271D01*
X0636270D02*
Y0554730D01*
Y0550731D02*
X0639269Y0552730D01*
X0636270Y0550731D02*
X0639269Y0548732D01*
X0484314Y0529730D02*
X0485314Y0530730D01*
X0487314D01*
X0488313Y0529730D01*
Y0528730D01*
X0487314Y0527731D01*
X0486314D01*
X0487314D01*
X0488313Y0526731D01*
Y0525731D01*
X0487314Y0524732D01*
X0485314D01*
X0484314Y0525731D01*
X0490313Y0524732D02*
Y0525731D01*
X0491312D01*
Y0524732D01*
X0490313D01*
X0499310Y0530730D02*
X0495311D01*
Y0527731D01*
X0497310Y0528730D01*
X0498310D01*
X0499310Y0527731D01*
Y0525731D01*
X0498310Y0524732D01*
X0496311D01*
X0495311Y0525731D01*
X0487314Y0500732D02*
Y0506730D01*
X0484314Y0503731D01*
X0488313D01*
X0490313Y0500732D02*
Y0501731D01*
X0491312D01*
Y0500732D01*
X0490313D01*
X0495311Y0505730D02*
X0496311Y0506730D01*
X0498310D01*
X0499310Y0505730D01*
Y0504730D01*
X0498310Y0503731D01*
X0499310Y0502731D01*
Y0501731D01*
X0498310Y0500732D01*
X0496311D01*
X0495311Y0501731D01*
Y0502731D01*
X0496311Y0503731D01*
X0495311Y0504730D01*
Y0505730D01*
X0496311Y0503731D02*
X0498310D01*
X0484314Y0481730D02*
X0485314Y0482730D01*
X0487314D01*
X0488313Y0481730D01*
Y0480730D01*
X0487314Y0479731D01*
X0486314D01*
X0487314D01*
X0488313Y0478731D01*
Y0477731D01*
X0487314Y0476732D01*
X0485314D01*
X0484314Y0477731D01*
X0490313Y0476732D02*
Y0477731D01*
X0491312D01*
Y0476732D01*
X0490313D01*
X0499310Y0482730D02*
X0495311D01*
Y0479731D01*
X0497310Y0480730D01*
X0498310D01*
X0499310Y0479731D01*
Y0477731D01*
X0498310Y0476732D01*
X0496311D01*
X0495311Y0477731D01*
X0488313Y0553730D02*
X0487314Y0554730D01*
X0485314D01*
X0484314Y0553730D01*
Y0549731D01*
X0485314Y0548732D01*
X0487314D01*
X0488313Y0549731D01*
X0491312Y0548732D02*
X0493312D01*
X0494311Y0549731D01*
Y0551731D01*
X0493312Y0552730D01*
X0491312D01*
X0490313Y0551731D01*
Y0549731D01*
X0491312Y0548732D01*
X0496311D02*
Y0552730D01*
X0499310D01*
X0500309Y0551731D01*
Y0548732D01*
X0502309D02*
X0505308D01*
X0506307Y0549731D01*
X0505308Y0550731D01*
X0503308D01*
X0502309Y0551731D01*
X0503308Y0552730D01*
X0506307D01*
X0509306Y0553730D02*
Y0552730D01*
X0508307D01*
X0510306D01*
X0509306D01*
Y0549731D01*
X0510306Y0548732D01*
X0514305Y0552730D02*
X0516304D01*
X0517304Y0551731D01*
Y0548732D01*
X0514305D01*
X0513305Y0549731D01*
X0514305Y0550731D01*
X0517304D01*
X0519303Y0548732D02*
Y0552730D01*
X0522302D01*
X0523302Y0551731D01*
Y0548732D01*
X0526301Y0553730D02*
Y0552730D01*
X0525301D01*
X0527301D01*
X0526301D01*
Y0549731D01*
X0527301Y0548732D01*
X0419331Y0529730D02*
X0420331Y0530730D01*
X0422330D01*
X0423330Y0529730D01*
Y0525731D01*
X0422330Y0524732D01*
X0420331D01*
X0419331Y0525731D01*
Y0529730D01*
X0425329Y0524732D02*
Y0525731D01*
X0426329D01*
Y0524732D01*
X0425329D01*
X0433326D02*
Y0530730D01*
X0430328Y0527731D01*
X0434326D01*
X0436326Y0529730D02*
X0437325Y0530730D01*
X0439325D01*
X0440324Y0529730D01*
Y0525731D01*
X0439325Y0524732D01*
X0437325D01*
X0436326Y0525731D01*
Y0529730D01*
X0442324Y0524732D02*
Y0528730D01*
X0443323D01*
X0444323Y0527731D01*
Y0524732D01*
Y0527731D01*
X0445323Y0528730D01*
X0446322Y0527731D01*
Y0524732D01*
X0448322D02*
X0450321D01*
X0449321D01*
Y0528730D01*
X0448322D01*
X0453320Y0524732D02*
X0455319D01*
X0454320D01*
Y0530730D01*
X0453320D01*
X0419331Y0512732D02*
X0421330D01*
X0420331D01*
Y0518730D01*
X0419331Y0517730D01*
X0424329Y0512732D02*
Y0513731D01*
X0425329D01*
Y0512732D01*
X0424329D01*
X0432327D02*
Y0518730D01*
X0429328Y0515731D01*
X0433326D01*
X0435326Y0517730D02*
X0436326Y0518730D01*
X0438325D01*
X0439325Y0517730D01*
Y0513731D01*
X0438325Y0512732D01*
X0436326D01*
X0435326Y0513731D01*
Y0517730D01*
X0441324Y0512732D02*
Y0516730D01*
X0442324D01*
X0443323Y0515731D01*
Y0512732D01*
Y0515731D01*
X0444323Y0516730D01*
X0445323Y0515731D01*
Y0512732D01*
X0447322D02*
X0449321D01*
X0448322D01*
Y0516730D01*
X0447322D01*
X0452320Y0512732D02*
X0454320D01*
X0453320D01*
Y0518730D01*
X0452320D01*
X0419331Y0500732D02*
X0421330D01*
X0420331D01*
Y0506730D01*
X0419331Y0505730D01*
X0428328Y0500732D02*
X0424329D01*
X0428328Y0504730D01*
Y0505730D01*
X0427328Y0506730D01*
X0425329D01*
X0424329Y0505730D01*
X0430328Y0500732D02*
Y0501731D01*
X0431327D01*
Y0500732D01*
X0430328D01*
X0439325Y0506730D02*
X0437325Y0505730D01*
X0435326Y0503731D01*
Y0501731D01*
X0436326Y0500732D01*
X0438325D01*
X0439325Y0501731D01*
Y0502731D01*
X0438325Y0503731D01*
X0435326D01*
X0441324Y0505730D02*
X0442324Y0506730D01*
X0444323D01*
X0445323Y0505730D01*
Y0501731D01*
X0444323Y0500732D01*
X0442324D01*
X0441324Y0501731D01*
Y0505730D01*
X0447322Y0500732D02*
Y0504730D01*
X0448322D01*
X0449321Y0503731D01*
Y0500732D01*
Y0503731D01*
X0450321Y0504730D01*
X0451321Y0503731D01*
Y0500732D01*
X0453320D02*
X0455319D01*
X0454320D01*
Y0504730D01*
X0453320D01*
X0458318Y0500732D02*
X0460318D01*
X0459318D01*
Y0506730D01*
X0458318D01*
X0419331Y0488732D02*
X0421330D01*
X0420331D01*
Y0494730D01*
X0419331Y0493730D01*
X0424329Y0488732D02*
Y0489731D01*
X0425329D01*
Y0488732D01*
X0424329D01*
X0432327D02*
Y0494730D01*
X0429328Y0491731D01*
X0433326D01*
X0435326Y0493730D02*
X0436326Y0494730D01*
X0438325D01*
X0439325Y0493730D01*
Y0489731D01*
X0438325Y0488732D01*
X0436326D01*
X0435326Y0489731D01*
Y0493730D01*
X0441324Y0488732D02*
Y0492730D01*
X0442324D01*
X0443323Y0491731D01*
Y0488732D01*
Y0491731D01*
X0444323Y0492730D01*
X0445323Y0491731D01*
Y0488732D01*
X0447322D02*
X0449321D01*
X0448322D01*
Y0492730D01*
X0447322D01*
X0452320Y0488732D02*
X0454320D01*
X0453320D01*
Y0494730D01*
X0452320D01*
X0419331Y0481730D02*
X0420331Y0482730D01*
X0422330D01*
X0423330Y0481730D01*
Y0477731D01*
X0422330Y0476732D01*
X0420331D01*
X0419331Y0477731D01*
Y0481730D01*
X0425329Y0476732D02*
Y0477731D01*
X0426329D01*
Y0476732D01*
X0425329D01*
X0433326D02*
Y0482730D01*
X0430328Y0479731D01*
X0434326D01*
X0436326Y0481730D02*
X0437325Y0482730D01*
X0439325D01*
X0440324Y0481730D01*
Y0477731D01*
X0439325Y0476732D01*
X0437325D01*
X0436326Y0477731D01*
Y0481730D01*
X0442324Y0476732D02*
Y0480730D01*
X0443323D01*
X0444323Y0479731D01*
Y0476732D01*
Y0479731D01*
X0445323Y0480730D01*
X0446322Y0479731D01*
Y0476732D01*
X0448322D02*
X0450321D01*
X0449321D01*
Y0480730D01*
X0448322D01*
X0453320Y0476732D02*
X0455319D01*
X0454320D01*
Y0482730D01*
X0453320D01*
X0419331Y0554730D02*
X0423330D01*
X0421330D01*
Y0548732D01*
X0425329Y0554730D02*
Y0548732D01*
Y0551731D01*
X0426329Y0552730D01*
X0428328D01*
X0429328Y0551731D01*
Y0548732D01*
X0431327D02*
X0433326D01*
X0432327D01*
Y0552730D01*
X0431327D01*
X0440324D02*
X0437325D01*
X0436326Y0551731D01*
Y0549731D01*
X0437325Y0548732D01*
X0440324D01*
X0442324D02*
Y0554730D01*
Y0550731D02*
X0445323Y0552730D01*
X0442324Y0550731D02*
X0445323Y0548732D01*
X0448322D02*
Y0552730D01*
X0451321D01*
X0452320Y0551731D01*
Y0548732D01*
X0457319D02*
X0455319D01*
X0454320Y0549731D01*
Y0551731D01*
X0455319Y0552730D01*
X0457319D01*
X0458318Y0551731D01*
Y0550731D01*
X0454320D01*
X0460318Y0548732D02*
X0463317D01*
X0464317Y0549731D01*
X0463317Y0550731D01*
X0461317D01*
X0460318Y0551731D01*
X0461317Y0552730D01*
X0464317D01*
X0466316Y0548732D02*
X0469315D01*
X0470315Y0549731D01*
X0469315Y0550731D01*
X0467315D01*
X0466316Y0551731D01*
X0467315Y0552730D01*
X0470315D01*
X0337353Y0529730D02*
X0336353Y0530730D01*
X0334354D01*
X0333354Y0529730D01*
Y0528730D01*
X0334354Y0527731D01*
X0336353D01*
X0337353Y0526731D01*
Y0525731D01*
X0336353Y0524732D01*
X0334354D01*
X0333354Y0525731D01*
X0340352Y0524732D02*
X0342351D01*
X0343351Y0525731D01*
Y0527731D01*
X0342351Y0528730D01*
X0340352D01*
X0339352Y0527731D01*
Y0525731D01*
X0340352Y0524732D01*
X0345351D02*
X0347350D01*
X0346350D01*
Y0530730D01*
X0345351D01*
X0354347D02*
Y0524732D01*
X0351348D01*
X0350349Y0525731D01*
Y0527731D01*
X0351348Y0528730D01*
X0354347D01*
X0359346Y0524732D02*
X0357347D01*
X0356347Y0525731D01*
Y0527731D01*
X0357347Y0528730D01*
X0359346D01*
X0360346Y0527731D01*
Y0526731D01*
X0356347D01*
X0362345Y0528730D02*
Y0524732D01*
Y0526731D01*
X0363345Y0527731D01*
X0364344Y0528730D01*
X0365344D01*
X0374341Y0524732D02*
Y0530730D01*
X0377340D01*
X0378340Y0529730D01*
Y0527731D01*
X0377340Y0526731D01*
X0374341D01*
X0376340D02*
X0378340Y0524732D01*
X0383338D02*
X0381339D01*
X0380339Y0525731D01*
Y0527731D01*
X0381339Y0528730D01*
X0383338D01*
X0384338Y0527731D01*
Y0526731D01*
X0380339D01*
X0386337Y0524732D02*
X0389336D01*
X0390336Y0525731D01*
X0389336Y0526731D01*
X0387337D01*
X0386337Y0527731D01*
X0387337Y0528730D01*
X0390336D01*
X0392335Y0524732D02*
X0394335D01*
X0393335D01*
Y0528730D01*
X0392335D01*
X0397334Y0524732D02*
X0400333D01*
X0401332Y0525731D01*
X0400333Y0526731D01*
X0398333D01*
X0397334Y0527731D01*
X0398333Y0528730D01*
X0401332D01*
X0404331Y0529730D02*
Y0528730D01*
X0403332D01*
X0405331D01*
X0404331D01*
Y0525731D01*
X0405331Y0524732D01*
X0337353Y0517730D02*
X0336353Y0518730D01*
X0334354D01*
X0333354Y0517730D01*
Y0513731D01*
X0334354Y0512732D01*
X0336353D01*
X0337353Y0513731D01*
X0340352Y0512732D02*
X0342351D01*
X0343351Y0513731D01*
Y0515731D01*
X0342351Y0516730D01*
X0340352D01*
X0339352Y0515731D01*
Y0513731D01*
X0340352Y0512732D01*
X0345351Y0510732D02*
Y0516730D01*
X0348349D01*
X0349349Y0515731D01*
Y0513731D01*
X0348349Y0512732D01*
X0345351D01*
X0351348Y0510732D02*
Y0516730D01*
X0354347D01*
X0355347Y0515731D01*
Y0513731D01*
X0354347Y0512732D01*
X0351348D01*
X0360346D02*
X0358346D01*
X0357347Y0513731D01*
Y0515731D01*
X0358346Y0516730D01*
X0360346D01*
X0361345Y0515731D01*
Y0514731D01*
X0357347D01*
X0363345Y0516730D02*
Y0512732D01*
Y0514731D01*
X0364344Y0515731D01*
X0365344Y0516730D01*
X0366344D01*
X0337353Y0506730D02*
X0333354D01*
Y0503731D01*
X0335354D01*
X0333354D01*
Y0500732D01*
X0339352D02*
Y0506730D01*
X0342351D01*
X0343351Y0505730D01*
Y0503731D01*
X0342351Y0502731D01*
X0339352D01*
X0341352D02*
X0343351Y0500732D01*
X0345351Y0503731D02*
X0349349D01*
X0354347Y0500732D02*
Y0506730D01*
X0351348Y0503731D01*
X0355347D01*
X0337353Y0493730D02*
X0336353Y0494730D01*
X0334354D01*
X0333354Y0493730D01*
Y0489731D01*
X0334354Y0488732D01*
X0336353D01*
X0337353Y0489731D01*
X0340352Y0488732D02*
X0342351D01*
X0343351Y0489731D01*
Y0491731D01*
X0342351Y0492730D01*
X0340352D01*
X0339352Y0491731D01*
Y0489731D01*
X0340352Y0488732D01*
X0345351Y0486732D02*
Y0492730D01*
X0348349D01*
X0349349Y0491731D01*
Y0489731D01*
X0348349Y0488732D01*
X0345351D01*
X0351348Y0486732D02*
Y0492730D01*
X0354347D01*
X0355347Y0491731D01*
Y0489731D01*
X0354347Y0488732D01*
X0351348D01*
X0360346D02*
X0358346D01*
X0357347Y0489731D01*
Y0491731D01*
X0358346Y0492730D01*
X0360346D01*
X0361345Y0491731D01*
Y0490731D01*
X0357347D01*
X0363345Y0492730D02*
Y0488732D01*
Y0490731D01*
X0364344Y0491731D01*
X0365344Y0492730D01*
X0366344D01*
X0337353Y0481730D02*
X0336353Y0482730D01*
X0334354D01*
X0333354Y0481730D01*
Y0480730D01*
X0334354Y0479731D01*
X0336353D01*
X0337353Y0478731D01*
Y0477731D01*
X0336353Y0476732D01*
X0334354D01*
X0333354Y0477731D01*
X0340352Y0476732D02*
X0342351D01*
X0343351Y0477731D01*
Y0479731D01*
X0342351Y0480730D01*
X0340352D01*
X0339352Y0479731D01*
Y0477731D01*
X0340352Y0476732D01*
X0345351D02*
X0347350D01*
X0346350D01*
Y0482730D01*
X0345351D01*
X0354347D02*
Y0476732D01*
X0351348D01*
X0350349Y0477731D01*
Y0479731D01*
X0351348Y0480730D01*
X0354347D01*
X0359346Y0476732D02*
X0357347D01*
X0356347Y0477731D01*
Y0479731D01*
X0357347Y0480730D01*
X0359346D01*
X0360346Y0479731D01*
Y0478731D01*
X0356347D01*
X0362345Y0480730D02*
Y0476732D01*
Y0478731D01*
X0363345Y0479731D01*
X0364344Y0480730D01*
X0365344D01*
X0374341Y0476732D02*
Y0482730D01*
X0377340D01*
X0378340Y0481730D01*
Y0479731D01*
X0377340Y0478731D01*
X0374341D01*
X0376340D02*
X0378340Y0476732D01*
X0383338D02*
X0381339D01*
X0380339Y0477731D01*
Y0479731D01*
X0381339Y0480730D01*
X0383338D01*
X0384338Y0479731D01*
Y0478731D01*
X0380339D01*
X0386337Y0476732D02*
X0389336D01*
X0390336Y0477731D01*
X0389336Y0478731D01*
X0387337D01*
X0386337Y0479731D01*
X0387337Y0480730D01*
X0390336D01*
X0392335Y0476732D02*
X0394335D01*
X0393335D01*
Y0480730D01*
X0392335D01*
X0397334Y0476732D02*
X0400333D01*
X0401332Y0477731D01*
X0400333Y0478731D01*
X0398333D01*
X0397334Y0479731D01*
X0398333Y0480730D01*
X0401332D01*
X0404331Y0481730D02*
Y0480730D01*
X0403332D01*
X0405331D01*
X0404331D01*
Y0477731D01*
X0405331Y0476732D01*
X0333354Y0548732D02*
Y0554730D01*
X0335354Y0552730D01*
X0337353Y0554730D01*
Y0548732D01*
X0340352Y0552730D02*
X0342351D01*
X0343351Y0551731D01*
Y0548732D01*
X0340352D01*
X0339352Y0549731D01*
X0340352Y0550731D01*
X0343351D01*
X0346350Y0553730D02*
Y0552730D01*
X0345351D01*
X0347350D01*
X0346350D01*
Y0549731D01*
X0347350Y0548732D01*
X0353348D02*
X0351348D01*
X0350349Y0549731D01*
Y0551731D01*
X0351348Y0552730D01*
X0353348D01*
X0354347Y0551731D01*
Y0550731D01*
X0350349D01*
X0356347Y0552730D02*
Y0548732D01*
Y0550731D01*
X0357347Y0551731D01*
X0358346Y0552730D01*
X0359346D01*
X0362345Y0548732D02*
X0364344D01*
X0363345D01*
Y0552730D01*
X0362345D01*
X0368343D02*
X0370342D01*
X0371342Y0551731D01*
Y0548732D01*
X0368343D01*
X0367343Y0549731D01*
X0368343Y0550731D01*
X0371342D01*
X0373341Y0548732D02*
X0375341D01*
X0374341D01*
Y0554730D01*
X0373341D01*
X0240380Y0542730D02*
X0244379D01*
X0242379D01*
Y0536732D01*
X0247378D02*
X0249377D01*
X0250377Y0537731D01*
Y0539731D01*
X0249377Y0540730D01*
X0247378D01*
X0246378Y0539731D01*
Y0537731D01*
X0247378Y0536732D01*
X0252376Y0534732D02*
Y0540730D01*
X0255375D01*
X0256375Y0539731D01*
Y0537731D01*
X0255375Y0536732D01*
X0252376D01*
X0267371Y0542730D02*
X0265372D01*
X0264372Y0541730D01*
Y0537731D01*
X0265372Y0536732D01*
X0267371D01*
X0268371Y0537731D01*
Y0541730D01*
X0267371Y0542730D01*
X0270370Y0540730D02*
X0272370Y0536732D01*
X0274369Y0540730D01*
X0279367Y0536732D02*
X0277368D01*
X0276368Y0537731D01*
Y0539731D01*
X0277368Y0540730D01*
X0279367D01*
X0280367Y0539731D01*
Y0538731D01*
X0276368D01*
X0282366Y0540730D02*
Y0536732D01*
Y0538731D01*
X0283366Y0539731D01*
X0284366Y0540730D01*
X0285365D01*
X0288364Y0536732D02*
X0290364D01*
X0289364D01*
Y0542730D01*
X0288364D01*
X0294362Y0540730D02*
X0296362D01*
X0297361Y0539731D01*
Y0536732D01*
X0294362D01*
X0293363Y0537731D01*
X0294362Y0538731D01*
X0297361D01*
X0299361Y0540730D02*
Y0537731D01*
X0300360Y0536732D01*
X0303360D01*
Y0535732D01*
X0302360Y0534732D01*
X0301360D01*
X0303360Y0536732D02*
Y0540730D01*
X0240380Y0530730D02*
X0244379D01*
X0242379D01*
Y0524732D01*
X0247378D02*
X0249377D01*
X0250377Y0525731D01*
Y0527731D01*
X0249377Y0528730D01*
X0247378D01*
X0246378Y0527731D01*
Y0525731D01*
X0247378Y0524732D01*
X0252376Y0522732D02*
Y0528730D01*
X0255375D01*
X0256375Y0527731D01*
Y0525731D01*
X0255375Y0524732D01*
X0252376D01*
X0268371Y0529730D02*
X0267371Y0530730D01*
X0265372D01*
X0264372Y0529730D01*
Y0528730D01*
X0265372Y0527731D01*
X0267371D01*
X0268371Y0526731D01*
Y0525731D01*
X0267371Y0524732D01*
X0265372D01*
X0264372Y0525731D01*
X0271370Y0524732D02*
X0273369D01*
X0274369Y0525731D01*
Y0527731D01*
X0273369Y0528730D01*
X0271370D01*
X0270370Y0527731D01*
Y0525731D01*
X0271370Y0524732D01*
X0276368D02*
X0278368D01*
X0277368D01*
Y0530730D01*
X0276368D01*
X0285365D02*
Y0524732D01*
X0282366D01*
X0281367Y0525731D01*
Y0527731D01*
X0282366Y0528730D01*
X0285365D01*
X0290364Y0524732D02*
X0288364D01*
X0287365Y0525731D01*
Y0527731D01*
X0288364Y0528730D01*
X0290364D01*
X0291363Y0527731D01*
Y0526731D01*
X0287365D01*
X0293363Y0528730D02*
Y0524732D01*
Y0526731D01*
X0294362Y0527731D01*
X0295362Y0528730D01*
X0296362D01*
X0240380Y0518730D02*
X0244379D01*
X0242379D01*
Y0512732D01*
X0247378D02*
X0249377D01*
X0250377Y0513731D01*
Y0515731D01*
X0249377Y0516730D01*
X0247378D01*
X0246378Y0515731D01*
Y0513731D01*
X0247378Y0512732D01*
X0252376Y0510732D02*
Y0516730D01*
X0255375D01*
X0256375Y0515731D01*
Y0513731D01*
X0255375Y0512732D01*
X0252376D01*
X0264372Y0518730D02*
Y0512732D01*
X0268371D01*
X0271370Y0516730D02*
X0273369D01*
X0274369Y0515731D01*
Y0512732D01*
X0271370D01*
X0270370Y0513731D01*
X0271370Y0514731D01*
X0274369D01*
X0276368Y0516730D02*
Y0513731D01*
X0277368Y0512732D01*
X0280367D01*
Y0511732D01*
X0279367Y0510732D01*
X0278368D01*
X0280367Y0512732D02*
Y0516730D01*
X0285365Y0512732D02*
X0283366D01*
X0282366Y0513731D01*
Y0515731D01*
X0283366Y0516730D01*
X0285365D01*
X0286365Y0515731D01*
Y0514731D01*
X0282366D01*
X0288364Y0516730D02*
Y0512732D01*
Y0514731D01*
X0289364Y0515731D01*
X0290364Y0516730D01*
X0291363D01*
X0240380Y0506730D02*
Y0500732D01*
X0243379D01*
X0244379Y0501731D01*
Y0505730D01*
X0243379Y0506730D01*
X0240380D01*
X0246378Y0500732D02*
X0248377D01*
X0247378D01*
Y0504730D01*
X0246378D01*
X0254375Y0500732D02*
X0252376D01*
X0251376Y0501731D01*
Y0503731D01*
X0252376Y0504730D01*
X0254375D01*
X0255375Y0503731D01*
Y0502731D01*
X0251376D01*
X0257374Y0500732D02*
X0259374D01*
X0258374D01*
Y0506730D01*
X0257374D01*
X0265372Y0500732D02*
X0263372D01*
X0262373Y0501731D01*
Y0503731D01*
X0263372Y0504730D01*
X0265372D01*
X0266371Y0503731D01*
Y0502731D01*
X0262373D01*
X0272370Y0504730D02*
X0269371D01*
X0268371Y0503731D01*
Y0501731D01*
X0269371Y0500732D01*
X0272370D01*
X0275369Y0505730D02*
Y0504730D01*
X0274369D01*
X0276368D01*
X0275369D01*
Y0501731D01*
X0276368Y0500732D01*
X0279367Y0504730D02*
Y0500732D01*
Y0502731D01*
X0280367Y0503731D01*
X0281367Y0504730D01*
X0282366D01*
X0285365Y0500732D02*
X0287365D01*
X0286365D01*
Y0504730D01*
X0285365D01*
X0294362D02*
X0291363D01*
X0290364Y0503731D01*
Y0501731D01*
X0291363Y0500732D01*
X0294362D01*
X0302360D02*
X0304359D01*
X0303360D01*
Y0506730D01*
X0302360Y0505730D01*
X0240380Y0494730D02*
Y0488732D01*
X0243379D01*
X0244379Y0489731D01*
Y0490731D01*
X0243379Y0491731D01*
X0240380D01*
X0243379D01*
X0244379Y0492730D01*
Y0493730D01*
X0243379Y0494730D01*
X0240380D01*
X0247378Y0488732D02*
X0249377D01*
X0250377Y0489731D01*
Y0491731D01*
X0249377Y0492730D01*
X0247378D01*
X0246378Y0491731D01*
Y0489731D01*
X0247378Y0488732D01*
X0253376Y0493730D02*
Y0492730D01*
X0252376D01*
X0254375D01*
X0253376D01*
Y0489731D01*
X0254375Y0488732D01*
X0258374Y0493730D02*
Y0492730D01*
X0257374D01*
X0259374D01*
X0258374D01*
Y0489731D01*
X0259374Y0488732D01*
X0263372D02*
X0265372D01*
X0266371Y0489731D01*
Y0491731D01*
X0265372Y0492730D01*
X0263372D01*
X0262373Y0491731D01*
Y0489731D01*
X0263372Y0488732D01*
X0268371D02*
Y0492730D01*
X0269371D01*
X0270370Y0491731D01*
Y0488732D01*
Y0491731D01*
X0271370Y0492730D01*
X0272370Y0491731D01*
Y0488732D01*
X0280367Y0494730D02*
Y0488732D01*
X0284366D01*
X0287365Y0492730D02*
X0289364D01*
X0290364Y0491731D01*
Y0488732D01*
X0287365D01*
X0286365Y0489731D01*
X0287365Y0490731D01*
X0290364D01*
X0292363Y0492730D02*
Y0489731D01*
X0293363Y0488732D01*
X0296362D01*
Y0487732D01*
X0295362Y0486732D01*
X0294362D01*
X0296362Y0488732D02*
Y0492730D01*
X0301360Y0488732D02*
X0299361D01*
X0298361Y0489731D01*
Y0491731D01*
X0299361Y0492730D01*
X0301360D01*
X0302360Y0491731D01*
Y0490731D01*
X0298361D01*
X0304359Y0492730D02*
Y0488732D01*
Y0490731D01*
X0305359Y0491731D01*
X0306359Y0492730D01*
X0307358D01*
X0240380Y0482730D02*
Y0476732D01*
X0243379D01*
X0244379Y0477731D01*
Y0478731D01*
X0243379Y0479731D01*
X0240380D01*
X0243379D01*
X0244379Y0480730D01*
Y0481730D01*
X0243379Y0482730D01*
X0240380D01*
X0247378Y0476732D02*
X0249377D01*
X0250377Y0477731D01*
Y0479731D01*
X0249377Y0480730D01*
X0247378D01*
X0246378Y0479731D01*
Y0477731D01*
X0247378Y0476732D01*
X0253376Y0481730D02*
Y0480730D01*
X0252376D01*
X0254375D01*
X0253376D01*
Y0477731D01*
X0254375Y0476732D01*
X0258374Y0481730D02*
Y0480730D01*
X0257374D01*
X0259374D01*
X0258374D01*
Y0477731D01*
X0259374Y0476732D01*
X0263372D02*
X0265372D01*
X0266371Y0477731D01*
Y0479731D01*
X0265372Y0480730D01*
X0263372D01*
X0262373Y0479731D01*
Y0477731D01*
X0263372Y0476732D01*
X0268371D02*
Y0480730D01*
X0269371D01*
X0270370Y0479731D01*
Y0476732D01*
Y0479731D01*
X0271370Y0480730D01*
X0272370Y0479731D01*
Y0476732D01*
X0284366Y0481730D02*
X0283366Y0482730D01*
X0281367D01*
X0280367Y0481730D01*
Y0480730D01*
X0281367Y0479731D01*
X0283366D01*
X0284366Y0478731D01*
Y0477731D01*
X0283366Y0476732D01*
X0281367D01*
X0280367Y0477731D01*
X0287365Y0476732D02*
X0289364D01*
X0290364Y0477731D01*
Y0479731D01*
X0289364Y0480730D01*
X0287365D01*
X0286365Y0479731D01*
Y0477731D01*
X0287365Y0476732D01*
X0292363D02*
X0294362D01*
X0293363D01*
Y0482730D01*
X0292363D01*
X0301360D02*
Y0476732D01*
X0298361D01*
X0297361Y0477731D01*
Y0479731D01*
X0298361Y0480730D01*
X0301360D01*
X0306359Y0476732D02*
X0304359D01*
X0303360Y0477731D01*
Y0479731D01*
X0304359Y0480730D01*
X0306359D01*
X0307358Y0479731D01*
Y0478731D01*
X0303360D01*
X0309358Y0480730D02*
Y0476732D01*
Y0478731D01*
X0310357Y0479731D01*
X0311357Y0480730D01*
X0312357D01*
X0240380Y0470730D02*
Y0464732D01*
X0243379D01*
X0244379Y0465731D01*
Y0466731D01*
X0243379Y0467731D01*
X0240380D01*
X0243379D01*
X0244379Y0468730D01*
Y0469730D01*
X0243379Y0470730D01*
X0240380D01*
X0247378Y0464732D02*
X0249377D01*
X0250377Y0465731D01*
Y0467731D01*
X0249377Y0468730D01*
X0247378D01*
X0246378Y0467731D01*
Y0465731D01*
X0247378Y0464732D01*
X0253376Y0469730D02*
Y0468730D01*
X0252376D01*
X0254375D01*
X0253376D01*
Y0465731D01*
X0254375Y0464732D01*
X0258374Y0469730D02*
Y0468730D01*
X0257374D01*
X0259374D01*
X0258374D01*
Y0465731D01*
X0259374Y0464732D01*
X0263372D02*
X0265372D01*
X0266371Y0465731D01*
Y0467731D01*
X0265372Y0468730D01*
X0263372D01*
X0262373Y0467731D01*
Y0465731D01*
X0263372Y0464732D01*
X0268371D02*
Y0468730D01*
X0269371D01*
X0270370Y0467731D01*
Y0464732D01*
Y0467731D01*
X0271370Y0468730D01*
X0272370Y0467731D01*
Y0464732D01*
X0283366Y0470730D02*
X0281367D01*
X0280367Y0469730D01*
Y0465731D01*
X0281367Y0464732D01*
X0283366D01*
X0284366Y0465731D01*
Y0469730D01*
X0283366Y0470730D01*
X0286365Y0468730D02*
X0288364Y0464732D01*
X0290364Y0468730D01*
X0295362Y0464732D02*
X0293363D01*
X0292363Y0465731D01*
Y0467731D01*
X0293363Y0468730D01*
X0295362D01*
X0296362Y0467731D01*
Y0466731D01*
X0292363D01*
X0298361Y0468730D02*
Y0464732D01*
Y0466731D01*
X0299361Y0467731D01*
X0300360Y0468730D01*
X0301360D01*
X0304359Y0464732D02*
X0306359D01*
X0305359D01*
Y0470730D01*
X0304359D01*
X0310357Y0468730D02*
X0312357D01*
X0313356Y0467731D01*
Y0464732D01*
X0310357D01*
X0309358Y0465731D01*
X0310357Y0466731D01*
X0313356D01*
X0315356Y0468730D02*
Y0465731D01*
X0316355Y0464732D01*
X0319354D01*
Y0463732D01*
X0318355Y0462732D01*
X0317355D01*
X0319354Y0464732D02*
Y0468730D01*
X0240380Y0548732D02*
Y0554730D01*
X0244379Y0548732D01*
Y0554730D01*
X0247378Y0552730D02*
X0249377D01*
X0250377Y0551731D01*
Y0548732D01*
X0247378D01*
X0246378Y0549731D01*
X0247378Y0550731D01*
X0250377D01*
X0252376Y0548732D02*
Y0552730D01*
X0253376D01*
X0254375Y0551731D01*
Y0548732D01*
Y0551731D01*
X0255375Y0552730D01*
X0256375Y0551731D01*
Y0548732D01*
X0261373D02*
X0259374D01*
X0258374Y0549731D01*
Y0551731D01*
X0259374Y0552730D01*
X0261373D01*
X0262373Y0551731D01*
Y0550731D01*
X0258374D01*
X0199389Y0536732D02*
X0201388D01*
X0200388D01*
Y0542730D01*
X0199389Y0541730D01*
X0203387Y0524732D02*
X0199389D01*
X0203387Y0528730D01*
Y0529730D01*
X0202388Y0530730D01*
X0200388D01*
X0199389Y0529730D01*
Y0517730D02*
X0200388Y0518730D01*
X0202388D01*
X0203387Y0517730D01*
Y0516730D01*
X0202388Y0515731D01*
X0201388D01*
X0202388D01*
X0203387Y0514731D01*
Y0513731D01*
X0202388Y0512732D01*
X0200388D01*
X0199389Y0513731D01*
X0202388Y0500732D02*
Y0506730D01*
X0199389Y0503731D01*
X0203387D01*
Y0494730D02*
X0199389D01*
Y0491731D01*
X0201388Y0492730D01*
X0202388D01*
X0203387Y0491731D01*
Y0489731D01*
X0202388Y0488732D01*
X0200388D01*
X0199389Y0489731D01*
X0203387Y0482730D02*
X0201388Y0481730D01*
X0199389Y0479731D01*
Y0477731D01*
X0200388Y0476732D01*
X0202388D01*
X0203387Y0477731D01*
Y0478731D01*
X0202388Y0479731D01*
X0199389D01*
Y0470730D02*
X0203387D01*
Y0469730D01*
X0199389Y0465731D01*
Y0464732D01*
Y0554730D02*
Y0548732D01*
X0203387D01*
X0206386Y0552730D02*
X0208386D01*
X0209385Y0551731D01*
Y0548732D01*
X0206386D01*
X0205387Y0549731D01*
X0206386Y0550731D01*
X0209385D01*
X0211385Y0552730D02*
Y0549731D01*
X0212384Y0548732D01*
X0215383D01*
Y0547732D01*
X0214384Y0546732D01*
X0213384D01*
X0215383Y0548732D02*
Y0552730D01*
X0220382Y0548732D02*
X0218383D01*
X0217383Y0549731D01*
Y0551731D01*
X0218383Y0552730D01*
X0220382D01*
X0221381Y0551731D01*
Y0550731D01*
X0217383D01*
X0223381Y0552730D02*
Y0548732D01*
Y0550731D01*
X0224380Y0551731D01*
X0225380Y0552730D01*
X0226380D01*
D24*
X0193389Y0456248D02*
X0195927Y0458786D01*
X0193389Y0450247D02*
X0201927Y0458786D01*
X0193389Y0444247D02*
X0207927Y0458786D01*
X0193389Y0438247D02*
X0212494Y0457353D01*
X0193389Y0432247D02*
X0215494Y0454353D01*
X0193389Y0426248D02*
X0218494Y0451353D01*
X0193389Y0420248D02*
X0221863Y0448722D01*
X0193389Y0414248D02*
X0227863Y0448722D01*
X0193389Y0408248D02*
X0233863Y0448722D01*
X0193389Y0402248D02*
X0239863Y0448722D01*
X0193389Y0396248D02*
X0245863Y0448722D01*
X0193389Y0390248D02*
X0251863Y0448722D01*
X0197215Y0388074D02*
X0257863Y0448722D01*
X0203215Y0388074D02*
X0263863Y0448722D01*
X0209215Y0388074D02*
X0269863Y0448722D01*
X0225290Y0398149D02*
X0275863Y0448722D01*
X0231290Y0398149D02*
X0281863Y0448722D01*
X0237290Y0398149D02*
X0287863Y0448722D01*
X0243289Y0398148D02*
X0293863Y0448722D01*
X0249289Y0398148D02*
X0299863Y0448722D01*
X0255289Y0398148D02*
X0305863Y0448722D01*
X0261289Y0398148D02*
X0311863Y0448722D01*
X0267289Y0398148D02*
X0317863Y0448722D01*
X0273289Y0398148D02*
X0323863Y0448722D01*
X0279289Y0398147D02*
X0329863Y0448722D01*
X0285288Y0398147D02*
X0335863Y0448722D01*
X0291288Y0398147D02*
X0341863Y0448722D01*
X0297288Y0398147D02*
X0347863Y0448722D01*
X0303288Y0398147D02*
X0353863Y0448722D01*
X0309288Y0398147D02*
X0359863Y0448722D01*
X0315287Y0398147D02*
X0365863Y0448722D01*
X0321287Y0398146D02*
X0371863Y0448722D01*
X0327287Y0398146D02*
X0377863Y0448722D01*
X0333287Y0398146D02*
X0383863Y0448722D01*
X0339287Y0398146D02*
X0389863Y0448722D01*
X0345287Y0398146D02*
X0395863Y0448722D01*
X0351287Y0398146D02*
X0401863Y0448722D01*
X0357286Y0398145D02*
X0407863Y0448722D01*
X0363286Y0398145D02*
X0413863Y0448722D01*
X0369286Y0398145D02*
X0419863Y0448722D01*
X0375286Y0398145D02*
X0425863Y0448722D01*
X0381286Y0398145D02*
X0431863Y0448722D01*
X0387286Y0398145D02*
X0437863Y0448722D01*
X0393285Y0398144D02*
X0443863Y0448722D01*
X0399285Y0398144D02*
X0449863Y0448722D01*
X0405285Y0398144D02*
X0455863Y0448722D01*
X0411285Y0398144D02*
X0461863Y0448722D01*
X0417285Y0398144D02*
X0467863Y0448722D01*
X0423285Y0398144D02*
X0473863Y0448722D01*
X0429284Y0398143D02*
X0479863Y0448722D01*
X0435284Y0398143D02*
X0485863Y0448722D01*
X0441284Y0398143D02*
X0491863Y0448722D01*
X0447284Y0398143D02*
X0497863Y0448722D01*
X0453284Y0398143D02*
X0503863Y0448722D01*
X0459284Y0398143D02*
X0509863Y0448722D01*
X0465283Y0398143D02*
X0515863Y0448722D01*
X0471283Y0398142D02*
X0521863Y0448722D01*
X0477283Y0398142D02*
X0527863Y0448722D01*
X0483283Y0398142D02*
X0533863Y0448722D01*
X0489283Y0398142D02*
X0539863Y0448722D01*
X0495283Y0398142D02*
X0545863Y0448722D01*
X0501283Y0398142D02*
X0551863Y0448722D01*
X0507282Y0398141D02*
X0557863Y0448722D01*
X0513282Y0398141D02*
X0563863Y0448722D01*
X0519282Y0398141D02*
X0569863Y0448722D01*
X0525282Y0398141D02*
X0575863Y0448722D01*
X0531282Y0398141D02*
X0581863Y0448722D01*
X0537282Y0398141D02*
X0587863Y0448722D01*
X0543281Y0398140D02*
X0593863Y0448722D01*
X0549281Y0398140D02*
X0599863Y0448722D01*
X0555281Y0398140D02*
X0605863Y0448722D01*
X0561281Y0398140D02*
X0611863Y0448722D01*
X0567281Y0398140D02*
X0617863Y0448722D01*
X0573281Y0398140D02*
X0623863Y0448722D01*
X0579281Y0398139D02*
X0629863Y0448722D01*
X0585280Y0398139D02*
X0635863Y0448722D01*
X0591280Y0398139D02*
X0641863Y0448722D01*
X0597280Y0398139D02*
X0647269Y0448128D01*
X0603280Y0398139D02*
X0647269Y0442128D01*
X0609280Y0398139D02*
X0647269Y0436128D01*
X0615279Y0398138D02*
X0647269Y0430128D01*
X0621279Y0398138D02*
X0647269Y0424128D01*
X0627279Y0398138D02*
X0647269Y0418128D01*
X0633279Y0398138D02*
X0647269Y0412128D01*
X0639279Y0398138D02*
X0647269Y0406128D01*
X0645279Y0398138D02*
X0647269Y0400128D01*
X0535301Y0541763D02*
X0539269Y0545732D01*
X0535301Y0535763D02*
X0545269Y0545732D01*
X0539269Y0533732D02*
X0551269Y0545732D01*
X0545269Y0533732D02*
X0557269Y0545732D01*
X0551269Y0533732D02*
X0563269Y0545732D01*
X0557269Y0533732D02*
X0569269Y0545732D01*
X0563269Y0533732D02*
X0575269Y0545732D01*
X0569269Y0533732D02*
X0581269Y0545732D01*
X0575269Y0533732D02*
X0587269Y0545732D01*
X0581269Y0533732D02*
X0593269Y0545732D01*
X0587269Y0533732D02*
X0599269Y0545732D01*
X0593269Y0533732D02*
X0605269Y0545732D01*
X0599269Y0533732D02*
X0611269Y0545732D01*
X0605269Y0533732D02*
X0617269Y0545732D01*
X0611269Y0533732D02*
X0623269Y0545732D01*
X0617269Y0533732D02*
X0629269Y0545732D01*
X0623269Y0533732D02*
X0635269Y0545732D01*
X0629269Y0533732D02*
X0641269Y0545732D01*
X0635269Y0533732D02*
X0647269Y0545732D01*
X0641269Y0533732D02*
X0647269Y0539732D01*
X0535301Y0529763D02*
X0539269Y0533732D01*
X0535301Y0523763D02*
X0545269Y0533732D01*
X0539269Y0521732D02*
X0551269Y0533732D01*
X0545269Y0521732D02*
X0557269Y0533732D01*
X0551269Y0521732D02*
X0563269Y0533732D01*
X0557269Y0521732D02*
X0569269Y0533732D01*
X0563269Y0521732D02*
X0575269Y0533732D01*
X0569269Y0521732D02*
X0581269Y0533732D01*
X0575269Y0521732D02*
X0587269Y0533732D01*
X0581269Y0521732D02*
X0593269Y0533732D01*
X0587269Y0521732D02*
X0599269Y0533732D01*
X0593269Y0521732D02*
X0605269Y0533732D01*
X0599269Y0521732D02*
X0611269Y0533732D01*
X0605269Y0521732D02*
X0617269Y0533732D01*
X0611269Y0521732D02*
X0623269Y0533732D01*
X0617269Y0521732D02*
X0629269Y0533732D01*
X0623269Y0521732D02*
X0635269Y0533732D01*
X0629269Y0521732D02*
X0641269Y0533732D01*
X0635269Y0521732D02*
X0647269Y0533732D01*
X0641269Y0521732D02*
X0647269Y0527732D01*
X0535301Y0517763D02*
X0539269Y0521732D01*
X0535301Y0511763D02*
X0545269Y0521732D01*
X0539269Y0509732D02*
X0551269Y0521732D01*
X0545269Y0509732D02*
X0557269Y0521732D01*
X0551269Y0509732D02*
X0563269Y0521732D01*
X0557269Y0509732D02*
X0569269Y0521732D01*
X0563269Y0509732D02*
X0575269Y0521732D01*
X0569269Y0509732D02*
X0581269Y0521732D01*
X0575269Y0509732D02*
X0587269Y0521732D01*
X0581269Y0509732D02*
X0593269Y0521732D01*
X0587269Y0509732D02*
X0599269Y0521732D01*
X0593269Y0509732D02*
X0605269Y0521732D01*
X0599269Y0509732D02*
X0611269Y0521732D01*
X0605269Y0509732D02*
X0617269Y0521732D01*
X0611269Y0509732D02*
X0623269Y0521732D01*
X0617269Y0509732D02*
X0629269Y0521732D01*
X0623269Y0509732D02*
X0635269Y0521732D01*
X0629269Y0509732D02*
X0641269Y0521732D01*
X0635269Y0509732D02*
X0647269Y0521732D01*
X0641269Y0509732D02*
X0647269Y0515732D01*
X0535301Y0505763D02*
X0539269Y0509732D01*
X0535301Y0499763D02*
X0545269Y0509732D01*
X0539269Y0497732D02*
X0551269Y0509732D01*
X0545269Y0497732D02*
X0557269Y0509732D01*
X0551269Y0497732D02*
X0563269Y0509732D01*
X0557269Y0497732D02*
X0569269Y0509732D01*
X0563269Y0497732D02*
X0575269Y0509732D01*
X0569269Y0497732D02*
X0581269Y0509732D01*
X0575269Y0497732D02*
X0587269Y0509732D01*
X0581269Y0497732D02*
X0593269Y0509732D01*
X0587269Y0497732D02*
X0599269Y0509732D01*
X0593269Y0497732D02*
X0605269Y0509732D01*
X0599269Y0497732D02*
X0611269Y0509732D01*
X0605269Y0497732D02*
X0617269Y0509732D01*
X0611269Y0497732D02*
X0623269Y0509732D01*
X0617269Y0497732D02*
X0629269Y0509732D01*
X0623269Y0497732D02*
X0635269Y0509732D01*
X0629269Y0497732D02*
X0641269Y0509732D01*
X0635269Y0497732D02*
X0647269Y0509732D01*
X0641269Y0497732D02*
X0647269Y0503732D01*
X0535301Y0493763D02*
X0539269Y0497732D01*
X0535301Y0487763D02*
X0545269Y0497732D01*
X0539269Y0485732D02*
X0551269Y0497732D01*
X0545269Y0485732D02*
X0557269Y0497732D01*
X0551269Y0485732D02*
X0563269Y0497732D01*
X0557269Y0485732D02*
X0569269Y0497732D01*
X0563269Y0485732D02*
X0575269Y0497732D01*
X0569269Y0485732D02*
X0581269Y0497732D01*
X0575269Y0485732D02*
X0587269Y0497732D01*
X0581269Y0485732D02*
X0593269Y0497732D01*
X0587269Y0485732D02*
X0599269Y0497732D01*
X0593269Y0485732D02*
X0605269Y0497732D01*
X0599269Y0485732D02*
X0611269Y0497732D01*
X0605269Y0485732D02*
X0617269Y0497732D01*
X0611269Y0485732D02*
X0623269Y0497732D01*
X0617269Y0485732D02*
X0629269Y0497732D01*
X0623269Y0485732D02*
X0635269Y0497732D01*
X0629269Y0485732D02*
X0641269Y0497732D01*
X0635269Y0485732D02*
X0647269Y0497732D01*
X0641269Y0485732D02*
X0647269Y0491732D01*
X0535301Y0481763D02*
X0539269Y0485732D01*
X0535301Y0475763D02*
X0545269Y0485732D01*
X0539269Y0473732D02*
X0551269Y0485732D01*
X0545269Y0473732D02*
X0557269Y0485732D01*
X0551269Y0473732D02*
X0563269Y0485732D01*
X0557269Y0473732D02*
X0569269Y0485732D01*
X0563269Y0473732D02*
X0575269Y0485732D01*
X0569269Y0473732D02*
X0581269Y0485732D01*
X0575269Y0473732D02*
X0587269Y0485732D01*
X0581269Y0473732D02*
X0593269Y0485732D01*
X0587269Y0473732D02*
X0599269Y0485732D01*
X0593269Y0473732D02*
X0605269Y0485732D01*
X0599269Y0473732D02*
X0611269Y0485732D01*
X0605269Y0473732D02*
X0617269Y0485732D01*
X0611269Y0473732D02*
X0623269Y0485732D01*
X0617269Y0473732D02*
X0629269Y0485732D01*
X0623269Y0473732D02*
X0635269Y0485732D01*
X0629269Y0473732D02*
X0641269Y0485732D01*
X0635269Y0473732D02*
X0647269Y0485732D01*
X0641269Y0473732D02*
X0647269Y0479732D01*
X0535301Y0469763D02*
X0539269Y0473732D01*
X0535301Y0463763D02*
X0545269Y0473732D01*
X0539269Y0461732D02*
X0551269Y0473732D01*
X0545269Y0461732D02*
X0557269Y0473732D01*
X0551269Y0461732D02*
X0563269Y0473732D01*
X0557269Y0461732D02*
X0569269Y0473732D01*
X0563269Y0461732D02*
X0575269Y0473732D01*
X0569269Y0461732D02*
X0581269Y0473732D01*
X0575269Y0461732D02*
X0587269Y0473732D01*
X0581269Y0461732D02*
X0593269Y0473732D01*
X0587269Y0461732D02*
X0599269Y0473732D01*
X0593269Y0461732D02*
X0605269Y0473732D01*
X0599269Y0461732D02*
X0611269Y0473732D01*
X0605269Y0461732D02*
X0617269Y0473732D01*
X0611269Y0461732D02*
X0623269Y0473732D01*
X0617269Y0461732D02*
X0629269Y0473732D01*
X0623269Y0461732D02*
X0635269Y0473732D01*
X0629269Y0461732D02*
X0641269Y0473732D01*
X0635269Y0461732D02*
X0647269Y0473732D01*
X0641269Y0461732D02*
X0647269Y0467732D01*
M02*
