G04 Layer_Physical_Order=1*
G04 Layer_Color=255*
%FSAX25Y25*%
%MOIN*%
G70*
G01*
G75*
%ADD10R,0.07874X0.01969*%
%ADD11R,0.15000X0.02200*%
%ADD12C,0.00506*%
%ADD13C,0.01500*%
%ADD14C,0.02000*%
%ADD15C,0.01200*%
%ADD16C,0.11811*%
%ADD17C,0.06102*%
%ADD18C,0.05000*%
%ADD19C,0.02800*%
G36*
X0794411Y0289287D02*
Y0277878D01*
X0794411Y0277878D01*
X0794520Y0277332D01*
X0794829Y0276869D01*
X0799093Y0272605D01*
X0799093Y0272605D01*
X0799412Y0272392D01*
X0799260Y0271892D01*
X0797124D01*
X0786176Y0282840D01*
Y0284268D01*
X0786176Y0284268D01*
X0786068Y0284814D01*
X0785758Y0285277D01*
X0785758Y0285277D01*
X0777848Y0293187D01*
X0777604Y0293351D01*
X0777755Y0293850D01*
X0789847D01*
X0794411Y0289287D01*
D02*
G37*
G36*
X0797911Y0291287D02*
Y0278878D01*
X0797911Y0278878D01*
X0797972Y0278574D01*
X0797557Y0278273D01*
X0797266Y0278502D01*
Y0289878D01*
X0797157Y0290424D01*
X0796848Y0290887D01*
X0796848Y0290887D01*
X0791485Y0296251D01*
X0791501Y0296406D01*
X0791655Y0296750D01*
X0792447D01*
X0797911Y0291287D01*
D02*
G37*
G36*
X0800136Y0259088D02*
X0799817Y0258875D01*
X0799817Y0258875D01*
X0797829Y0256887D01*
X0797520Y0256424D01*
X0797411Y0255878D01*
X0797411Y0255878D01*
Y0248469D01*
X0790647Y0241705D01*
X0777364D01*
X0777314Y0242205D01*
X0777585Y0242259D01*
X0778048Y0242569D01*
X0786010Y0250531D01*
X0786434Y0250248D01*
X0786335Y0250007D01*
X0786216Y0249106D01*
X0786335Y0248205D01*
X0786682Y0247366D01*
X0787235Y0246645D01*
X0787956Y0246092D01*
X0788796Y0245744D01*
X0789697Y0245625D01*
X0790598Y0245744D01*
X0791437Y0246092D01*
X0792158Y0246645D01*
X0792711Y0247366D01*
X0793059Y0248205D01*
X0793178Y0249106D01*
X0793059Y0250007D01*
X0792711Y0250847D01*
X0792158Y0251568D01*
X0791437Y0252121D01*
X0790598Y0252469D01*
X0789697Y0252587D01*
X0788796Y0252469D01*
X0788555Y0252369D01*
X0788272Y0252793D01*
X0795068Y0259588D01*
X0799984D01*
X0800136Y0259088D01*
D02*
G37*
G36*
X0156497Y0307217D02*
X0156795Y0307018D01*
X0157146Y0306948D01*
X0821582D01*
Y0230044D01*
X0157071D01*
X0156982Y0230061D01*
X0156631Y0229992D01*
X0156333Y0229793D01*
X0140836Y0214296D01*
X0114756D01*
Y0241978D01*
X0130201D01*
X0132911Y0239269D01*
X0132911Y0239269D01*
X0133374Y0238959D01*
X0133920Y0238850D01*
X0791238D01*
X0791239Y0238850D01*
X0791785Y0238959D01*
X0792248Y0239269D01*
X0799848Y0246869D01*
X0799848Y0246869D01*
X0800157Y0247332D01*
X0800266Y0247878D01*
Y0255287D01*
X0801418Y0256439D01*
X0805642D01*
X0805642Y0256439D01*
X0805859Y0256482D01*
X0809979D01*
Y0259132D01*
X0809979Y0259250D01*
X0809979D01*
Y0259631D01*
X0809979D01*
Y0262400D01*
X0809979D01*
X0809979Y0262781D01*
X0809979D01*
Y0265550D01*
X0809979D01*
Y0265931D01*
X0809979D01*
Y0268699D01*
X0809979D01*
Y0269080D01*
X0809979D01*
Y0271849D01*
X0809979D01*
Y0272230D01*
X0809979D01*
Y0274998D01*
X0809979D01*
Y0275379D01*
X0809979D01*
Y0278148D01*
X0805859D01*
X0805642Y0278191D01*
X0802044D01*
X0800766Y0279469D01*
Y0291878D01*
X0800766Y0291878D01*
X0800657Y0292424D01*
X0800348Y0292887D01*
X0800348Y0292887D01*
X0794048Y0299187D01*
X0793585Y0299497D01*
X0793039Y0299605D01*
X0793039Y0299605D01*
X0133320D01*
X0133320Y0299605D01*
X0132774Y0299497D01*
X0132311Y0299187D01*
X0132311Y0299187D01*
X0129302Y0296178D01*
X0114756D01*
Y0322696D01*
X0141018D01*
X0156497Y0307217D01*
D02*
G37*
G36*
X0779411Y0282587D02*
Y0281878D01*
X0779411Y0281878D01*
X0779520Y0281332D01*
X0779829Y0280869D01*
X0794392Y0266306D01*
X0794711Y0266093D01*
X0794559Y0265593D01*
X0793126D01*
X0793126Y0265593D01*
X0792580Y0265484D01*
X0792117Y0265175D01*
X0792117Y0265175D01*
X0775147Y0248205D01*
X0136730D01*
X0134048Y0250887D01*
X0133585Y0251197D01*
X0133039Y0251305D01*
X0133038Y0251305D01*
X0130439D01*
Y0251378D01*
X0114756D01*
Y0254778D01*
X0130439D01*
Y0255386D01*
X0130644Y0255427D01*
X0130943Y0255627D01*
X0131695Y0256379D01*
X0767778D01*
X0768517Y0255640D01*
X0768517Y0255640D01*
X0768816Y0255441D01*
X0769021Y0255400D01*
Y0254907D01*
X0777695D01*
Y0257676D01*
X0777695D01*
Y0258057D01*
X0777695D01*
Y0260825D01*
X0769021D01*
Y0260332D01*
X0768816Y0260292D01*
X0768517Y0260092D01*
X0768517Y0260092D01*
X0767802Y0259377D01*
X0131695D01*
X0130943Y0260129D01*
X0130644Y0260329D01*
X0130439Y0260369D01*
Y0260978D01*
X0114756D01*
Y0264378D01*
X0130439D01*
Y0264721D01*
X0769021D01*
Y0264356D01*
X0777695D01*
Y0267124D01*
X0777695D01*
Y0267506D01*
X0777695D01*
Y0270274D01*
X0769021D01*
Y0270251D01*
X0130439D01*
Y0270578D01*
X0114756D01*
Y0273978D01*
X0130439D01*
Y0274587D01*
X0130644Y0274627D01*
X0130943Y0274827D01*
X0131695Y0275579D01*
X0767757D01*
X0768798Y0274538D01*
X0768799Y0274538D01*
X0769021Y0274389D01*
Y0273805D01*
X0777695D01*
Y0276454D01*
X0777695Y0276573D01*
X0777695D01*
Y0276954D01*
X0777695D01*
Y0279723D01*
X0769021D01*
Y0279230D01*
X0768816Y0279189D01*
X0768517Y0278990D01*
X0768517Y0278990D01*
X0768104Y0278577D01*
X0131695D01*
X0130943Y0279329D01*
X0130644Y0279529D01*
X0130439Y0279569D01*
Y0280178D01*
X0114756D01*
Y0283578D01*
X0130439D01*
Y0283650D01*
X0132038D01*
X0132039Y0283650D01*
X0132585Y0283759D01*
X0133048Y0284069D01*
X0136730Y0287751D01*
X0774247D01*
X0779411Y0282587D01*
D02*
G37*
G36*
X0783321Y0283677D02*
Y0282249D01*
X0783321Y0282249D01*
X0783353Y0282089D01*
X0782892Y0281843D01*
X0782266Y0282469D01*
Y0283178D01*
X0782266Y0283178D01*
X0782157Y0283724D01*
X0781848Y0284187D01*
X0781848Y0284187D01*
X0775987Y0290048D01*
X0776110Y0290535D01*
X0776142Y0290578D01*
X0776382Y0290615D01*
X0783321Y0283677D01*
D02*
G37*
%LPC*%
G36*
X0789500Y0290481D02*
X0788599Y0290362D01*
X0787759Y0290015D01*
X0787039Y0289461D01*
X0786485Y0288740D01*
X0786138Y0287901D01*
X0786019Y0287000D01*
X0786138Y0286099D01*
X0786485Y0285260D01*
X0787039Y0284539D01*
X0787759Y0283985D01*
X0788599Y0283638D01*
X0789500Y0283519D01*
X0790401Y0283638D01*
X0791241Y0283985D01*
X0791961Y0284539D01*
X0792515Y0285260D01*
X0792862Y0286099D01*
X0792981Y0287000D01*
X0792862Y0287901D01*
X0792515Y0288740D01*
X0791961Y0289461D01*
X0791241Y0290015D01*
X0790401Y0290362D01*
X0789500Y0290481D01*
D02*
G37*
G36*
X0130839Y0234714D02*
X0129603Y0234592D01*
X0128414Y0234232D01*
X0127319Y0233646D01*
X0126358Y0232858D01*
X0125570Y0231898D01*
X0124985Y0230803D01*
X0124624Y0229614D01*
X0124503Y0228378D01*
X0124624Y0227142D01*
X0124985Y0225953D01*
X0125570Y0224858D01*
X0126358Y0223898D01*
X0127319Y0223110D01*
X0128414Y0222524D01*
X0129603Y0222164D01*
X0130839Y0222042D01*
X0132075Y0222164D01*
X0133263Y0222524D01*
X0134359Y0223110D01*
X0135319Y0223898D01*
X0136107Y0224858D01*
X0136692Y0225953D01*
X0137053Y0227142D01*
X0137175Y0228378D01*
X0137053Y0229614D01*
X0136692Y0230803D01*
X0136107Y0231898D01*
X0135319Y0232858D01*
X0134359Y0233646D01*
X0133263Y0234232D01*
X0132075Y0234592D01*
X0130839Y0234714D01*
D02*
G37*
G36*
Y0314950D02*
X0129603Y0314828D01*
X0128414Y0314468D01*
X0127319Y0313882D01*
X0126358Y0313094D01*
X0125570Y0312134D01*
X0124985Y0311039D01*
X0124624Y0309850D01*
X0124503Y0308614D01*
X0124624Y0307378D01*
X0124985Y0306189D01*
X0125570Y0305094D01*
X0126358Y0304134D01*
X0127319Y0303346D01*
X0128414Y0302761D01*
X0129603Y0302400D01*
X0130839Y0302278D01*
X0132075Y0302400D01*
X0133263Y0302761D01*
X0134359Y0303346D01*
X0135319Y0304134D01*
X0136107Y0305094D01*
X0136692Y0306189D01*
X0137053Y0307378D01*
X0137175Y0308614D01*
X0137053Y0309850D01*
X0136692Y0311039D01*
X0136107Y0312134D01*
X0135319Y0313094D01*
X0134359Y0313882D01*
X0133263Y0314468D01*
X0132075Y0314828D01*
X0130839Y0314950D01*
D02*
G37*
%LPD*%
D10*
X0773358Y0256291D02*
D03*
Y0259441D02*
D03*
X0805642Y0254716D02*
D03*
X0805642Y0257866D02*
D03*
Y0261016D02*
D03*
X0805642Y0264165D02*
D03*
Y0267315D02*
D03*
Y0270464D02*
D03*
Y0273614D02*
D03*
Y0276764D02*
D03*
Y0279913D02*
D03*
Y0283063D02*
D03*
X0773358Y0281488D02*
D03*
Y0278339D02*
D03*
Y0275189D02*
D03*
Y0272039D02*
D03*
Y0268890D02*
D03*
Y0265740D02*
D03*
Y0262591D02*
D03*
Y0253142D02*
D03*
D11*
X0122539Y0275478D02*
D03*
Y0278678D02*
D03*
Y0291478D02*
D03*
Y0294678D02*
D03*
Y0288278D02*
D03*
Y0285078D02*
D03*
Y0243478D02*
D03*
Y0249878D02*
D03*
Y0253078D02*
D03*
Y0262678D02*
D03*
Y0265878D02*
D03*
Y0272278D02*
D03*
Y0281878D02*
D03*
Y0256278D02*
D03*
Y0259478D02*
D03*
Y0269078D02*
D03*
Y0246678D02*
D03*
D12*
X0769168Y0259441D02*
X0773358D01*
X0768183Y0258456D02*
X0769168Y0259441D01*
Y0256291D02*
X0773358D01*
X0768160Y0257300D02*
X0769168Y0256291D01*
X0131314Y0257300D02*
X0768160D01*
X0131314Y0258456D02*
X0768183D01*
X0130292Y0259478D02*
X0131314Y0258456D01*
X0122539Y0259478D02*
X0130292D01*
Y0256278D02*
X0131314Y0257300D01*
X0122539Y0256278D02*
X0130292D01*
X0769450Y0275189D02*
X0773358D01*
X0769168Y0278339D02*
X0773358D01*
X0131314Y0277656D02*
X0768486D01*
X0769168Y0278339D01*
X0130292Y0278678D02*
X0131314Y0277656D01*
X0122539Y0278678D02*
X0130292D01*
X0768139Y0276500D02*
X0769450Y0275189D01*
X0131314Y0276500D02*
X0768139D01*
X0130292Y0275478D02*
X0131314Y0276500D01*
X0122539Y0275478D02*
X0130292D01*
D13*
X0122539Y0269078D02*
X0773170D01*
X0773358Y0268890D01*
D14*
X0136139Y0289178D02*
X0774839D01*
X0132039Y0285078D02*
X0136139Y0289178D01*
X0122539Y0285078D02*
X0132039D01*
X0135239Y0292178D02*
X0776839D01*
X0131339Y0288278D02*
X0135239Y0292178D01*
X0122539Y0288278D02*
X0131339D01*
X0133320Y0298178D02*
X0793039D01*
X0129820Y0294678D02*
X0133320Y0298178D01*
X0122539Y0294678D02*
X0129820D01*
X0134239Y0295278D02*
X0790439D01*
X0130439Y0291478D02*
X0134239Y0295278D01*
X0122539Y0291478D02*
X0130439D01*
X0135239Y0243578D02*
X0777039D01*
X0775739Y0246778D02*
X0793126Y0264165D01*
X0136139Y0246778D02*
X0775739D01*
X0793126Y0264165D02*
X0805642D01*
X0784749Y0282249D02*
Y0284268D01*
X0776839Y0292178D02*
X0784749Y0284268D01*
X0780839Y0281878D02*
Y0283178D01*
X0774839Y0289178D02*
X0780839Y0283178D01*
X0791239Y0240278D02*
X0798839Y0247878D01*
X0133920Y0240278D02*
X0791239D01*
X0130720Y0243478D02*
X0133920Y0240278D01*
X0132139Y0246678D02*
X0135239Y0243578D01*
X0122539Y0246678D02*
X0132139D01*
X0133039Y0249878D02*
X0136139Y0246778D01*
X0122539Y0249878D02*
X0133039D01*
X0790439Y0295278D02*
X0795839Y0289878D01*
X0793039Y0298178D02*
X0799339Y0291878D01*
Y0278878D02*
Y0291878D01*
Y0278878D02*
X0801453Y0276764D01*
X0805642D01*
X0795839Y0277878D02*
Y0289878D01*
Y0277878D02*
X0800102Y0273614D01*
X0805642D01*
X0796533Y0270464D02*
X0805642D01*
X0784749Y0282249D02*
X0796533Y0270464D01*
X0780839Y0281878D02*
X0795402Y0267315D01*
X0805642D01*
X0794476Y0261016D02*
X0805642D01*
X0777039Y0243578D02*
X0794476Y0261016D01*
X0122539Y0243478D02*
X0130720D01*
X0798839Y0247878D02*
Y0255878D01*
X0800827Y0257866D01*
X0805642D01*
X0805630Y0257878D02*
X0805642Y0257866D01*
D15*
X0122676Y0265740D02*
X0773358D01*
X0122539Y0265878D02*
X0122676Y0265740D01*
D16*
X0130839Y0308614D02*
D03*
Y0228378D02*
D03*
D17*
X0789697Y0249106D02*
D03*
X0789500Y0287000D02*
D03*
D18*
X0136324Y0253849D02*
D03*
X0142324D02*
D03*
X0148324D02*
D03*
X0154324D02*
D03*
X0160324D02*
D03*
X0166324D02*
D03*
X0172324D02*
D03*
X0178324D02*
D03*
X0184324D02*
D03*
X0190324D02*
D03*
X0196324D02*
D03*
X0202324D02*
D03*
X0208324D02*
D03*
X0214324D02*
D03*
X0220324D02*
D03*
X0226324D02*
D03*
X0232324D02*
D03*
X0238324D02*
D03*
X0244324D02*
D03*
X0250324D02*
D03*
X0256324D02*
D03*
X0262324D02*
D03*
X0268324D02*
D03*
X0274324D02*
D03*
X0280324D02*
D03*
X0286324D02*
D03*
X0292324D02*
D03*
X0298324D02*
D03*
X0304324D02*
D03*
X0310324D02*
D03*
X0316324D02*
D03*
X0322324D02*
D03*
X0328324D02*
D03*
X0334324D02*
D03*
X0340324D02*
D03*
X0346324D02*
D03*
X0352324D02*
D03*
X0358324D02*
D03*
X0364324D02*
D03*
X0370324D02*
D03*
X0376324D02*
D03*
X0382324D02*
D03*
X0388324D02*
D03*
X0394324D02*
D03*
X0400324D02*
D03*
X0406324D02*
D03*
X0412324D02*
D03*
X0418324D02*
D03*
X0424324D02*
D03*
X0430324D02*
D03*
X0436324D02*
D03*
X0442324D02*
D03*
X0448324D02*
D03*
X0454324D02*
D03*
X0460324D02*
D03*
X0466324D02*
D03*
X0472324D02*
D03*
X0478324D02*
D03*
X0484324D02*
D03*
X0490324D02*
D03*
X0496324D02*
D03*
X0502324D02*
D03*
X0508324D02*
D03*
X0514324D02*
D03*
X0520324D02*
D03*
X0526324D02*
D03*
X0532324D02*
D03*
X0538324D02*
D03*
X0544324D02*
D03*
X0550324D02*
D03*
X0556324D02*
D03*
X0562324D02*
D03*
X0568324D02*
D03*
X0574324D02*
D03*
X0580324D02*
D03*
X0586324D02*
D03*
X0592324D02*
D03*
X0598324D02*
D03*
X0604324D02*
D03*
X0610324D02*
D03*
X0616324D02*
D03*
X0622324D02*
D03*
X0628324D02*
D03*
X0634324D02*
D03*
X0640324D02*
D03*
X0646324D02*
D03*
X0652324D02*
D03*
X0658324D02*
D03*
X0664324D02*
D03*
X0670324D02*
D03*
X0676324D02*
D03*
X0682324D02*
D03*
X0688324D02*
D03*
X0694324D02*
D03*
X0700324D02*
D03*
X0706324D02*
D03*
X0712324D02*
D03*
X0718324D02*
D03*
X0724324D02*
D03*
X0730324D02*
D03*
X0736324D02*
D03*
X0742324D02*
D03*
X0748324D02*
D03*
X0754324D02*
D03*
X0760324D02*
D03*
X0766324D02*
D03*
X0780409Y0257758D02*
D03*
X0760603Y0261907D02*
D03*
X0754603D02*
D03*
X0748603D02*
D03*
X0742603D02*
D03*
X0736603D02*
D03*
X0730603D02*
D03*
X0724603D02*
D03*
X0718603D02*
D03*
X0712603D02*
D03*
X0706603D02*
D03*
X0700603D02*
D03*
X0694603D02*
D03*
X0688603D02*
D03*
X0682603D02*
D03*
X0676603D02*
D03*
X0670603D02*
D03*
X0664603D02*
D03*
X0658603D02*
D03*
X0652603D02*
D03*
X0646603D02*
D03*
X0640603D02*
D03*
X0634603D02*
D03*
X0628603D02*
D03*
X0622603D02*
D03*
X0616603D02*
D03*
X0610603D02*
D03*
X0604603D02*
D03*
X0598603D02*
D03*
X0592603D02*
D03*
X0586603D02*
D03*
X0580603D02*
D03*
X0574603D02*
D03*
X0568603D02*
D03*
X0562603D02*
D03*
X0556603D02*
D03*
X0550603D02*
D03*
X0544603D02*
D03*
X0538603D02*
D03*
X0532603D02*
D03*
X0526603D02*
D03*
X0520603D02*
D03*
X0514603D02*
D03*
X0508603D02*
D03*
X0502603D02*
D03*
X0496603D02*
D03*
X0490603D02*
D03*
X0484603D02*
D03*
X0478603D02*
D03*
X0472603D02*
D03*
X0466603D02*
D03*
X0460603D02*
D03*
X0454603D02*
D03*
X0448603D02*
D03*
X0442603D02*
D03*
X0436603D02*
D03*
X0430603D02*
D03*
X0424603D02*
D03*
X0418603D02*
D03*
X0412603D02*
D03*
X0406603D02*
D03*
X0400603D02*
D03*
X0394603D02*
D03*
X0388603D02*
D03*
X0382603D02*
D03*
X0376603D02*
D03*
X0370603D02*
D03*
X0364603D02*
D03*
X0358603D02*
D03*
X0352603D02*
D03*
X0346603D02*
D03*
X0340603D02*
D03*
X0334603D02*
D03*
X0328603D02*
D03*
X0322603D02*
D03*
X0316603D02*
D03*
X0310603D02*
D03*
X0304603D02*
D03*
X0298603D02*
D03*
X0292603D02*
D03*
X0286603D02*
D03*
X0280603D02*
D03*
X0274603D02*
D03*
X0268603D02*
D03*
X0262603D02*
D03*
X0256603D02*
D03*
X0250603D02*
D03*
X0244603D02*
D03*
X0238603D02*
D03*
X0232603D02*
D03*
X0226603D02*
D03*
X0220603D02*
D03*
X0214603D02*
D03*
X0208603D02*
D03*
X0202603D02*
D03*
X0196603D02*
D03*
X0190603D02*
D03*
X0184603D02*
D03*
X0178603D02*
D03*
X0172603D02*
D03*
X0166603D02*
D03*
X0160603D02*
D03*
X0154603D02*
D03*
X0148603D02*
D03*
X0142603D02*
D03*
X0136603D02*
D03*
X0136326Y0273049D02*
D03*
X0142326D02*
D03*
X0148326D02*
D03*
X0154326D02*
D03*
X0160326D02*
D03*
X0166326D02*
D03*
X0172326D02*
D03*
X0178326D02*
D03*
X0184326D02*
D03*
X0190326D02*
D03*
X0196326D02*
D03*
X0202326D02*
D03*
X0208326D02*
D03*
X0214326D02*
D03*
X0220326D02*
D03*
X0226326D02*
D03*
X0232326D02*
D03*
X0238326D02*
D03*
X0244326D02*
D03*
X0250326D02*
D03*
X0256326D02*
D03*
X0262326D02*
D03*
X0268326D02*
D03*
X0274326D02*
D03*
X0280326D02*
D03*
X0286326D02*
D03*
X0292326D02*
D03*
X0298326D02*
D03*
X0304326D02*
D03*
X0310326D02*
D03*
X0316326D02*
D03*
X0322326D02*
D03*
X0328326D02*
D03*
X0334326D02*
D03*
X0340326D02*
D03*
X0346326D02*
D03*
X0352326D02*
D03*
X0358326D02*
D03*
X0364326D02*
D03*
X0370326D02*
D03*
X0376326D02*
D03*
X0382326D02*
D03*
X0388326D02*
D03*
X0394326D02*
D03*
X0400326D02*
D03*
X0406326D02*
D03*
X0412326D02*
D03*
X0418326D02*
D03*
X0424326D02*
D03*
X0430326D02*
D03*
X0436326D02*
D03*
X0442326D02*
D03*
X0448326D02*
D03*
X0454326D02*
D03*
X0460326D02*
D03*
X0466326D02*
D03*
X0472326D02*
D03*
X0478326D02*
D03*
X0484326D02*
D03*
X0490326D02*
D03*
X0496326D02*
D03*
X0502326D02*
D03*
X0508326D02*
D03*
X0514326D02*
D03*
X0520326D02*
D03*
X0526326D02*
D03*
X0532326D02*
D03*
X0538326D02*
D03*
X0544326D02*
D03*
X0550326D02*
D03*
X0556326D02*
D03*
X0562326D02*
D03*
X0568326D02*
D03*
X0574326D02*
D03*
X0580326D02*
D03*
X0586326D02*
D03*
X0592326D02*
D03*
X0598326D02*
D03*
X0604326D02*
D03*
X0610326D02*
D03*
X0616326D02*
D03*
X0622326D02*
D03*
X0628326D02*
D03*
X0634326D02*
D03*
X0640326D02*
D03*
X0646326D02*
D03*
X0652326D02*
D03*
X0658326D02*
D03*
X0664326D02*
D03*
X0670326D02*
D03*
X0676326D02*
D03*
X0682326D02*
D03*
X0688326D02*
D03*
X0694326D02*
D03*
X0700326D02*
D03*
X0706326D02*
D03*
X0712326D02*
D03*
X0718326D02*
D03*
X0724326D02*
D03*
X0730326D02*
D03*
X0736326D02*
D03*
X0742326D02*
D03*
X0748326D02*
D03*
X0754326D02*
D03*
X0760326D02*
D03*
X0766326D02*
D03*
X0780417Y0276597D02*
D03*
X0760603Y0281107D02*
D03*
X0754603D02*
D03*
X0748603D02*
D03*
X0742603D02*
D03*
X0736603D02*
D03*
X0730603D02*
D03*
X0724603D02*
D03*
X0718603D02*
D03*
X0712603D02*
D03*
X0706603D02*
D03*
X0700603D02*
D03*
X0694603D02*
D03*
X0688603D02*
D03*
X0682603D02*
D03*
X0676603D02*
D03*
X0670603D02*
D03*
X0664603D02*
D03*
X0658603D02*
D03*
X0652603D02*
D03*
X0646603D02*
D03*
X0640603D02*
D03*
X0634603D02*
D03*
X0628603D02*
D03*
X0622603D02*
D03*
X0616603D02*
D03*
X0610603D02*
D03*
X0604603D02*
D03*
X0598603D02*
D03*
X0592603D02*
D03*
X0586603D02*
D03*
X0580603D02*
D03*
X0574603D02*
D03*
X0568603D02*
D03*
X0562603D02*
D03*
X0556603D02*
D03*
X0550603D02*
D03*
X0544603D02*
D03*
X0538603D02*
D03*
X0532603D02*
D03*
X0526603D02*
D03*
X0520603D02*
D03*
X0514603D02*
D03*
X0508603D02*
D03*
X0502603D02*
D03*
X0496603D02*
D03*
X0490603D02*
D03*
X0484603D02*
D03*
X0478603D02*
D03*
X0472603D02*
D03*
X0466603D02*
D03*
X0460603D02*
D03*
X0454603D02*
D03*
X0448603D02*
D03*
X0442603D02*
D03*
X0436603D02*
D03*
X0430603D02*
D03*
X0424603D02*
D03*
X0418603D02*
D03*
X0412603D02*
D03*
X0406603D02*
D03*
X0400603D02*
D03*
X0394603D02*
D03*
X0388603D02*
D03*
X0382603D02*
D03*
X0376603D02*
D03*
X0370603D02*
D03*
X0364603D02*
D03*
X0358603D02*
D03*
X0352603D02*
D03*
X0346603D02*
D03*
X0340603D02*
D03*
X0334603D02*
D03*
X0328603D02*
D03*
X0322603D02*
D03*
X0316603D02*
D03*
X0310603D02*
D03*
X0304603D02*
D03*
X0298603D02*
D03*
X0292603D02*
D03*
X0286603D02*
D03*
X0280603D02*
D03*
X0274603D02*
D03*
X0268603D02*
D03*
X0262603D02*
D03*
X0256603D02*
D03*
X0250603D02*
D03*
X0244603D02*
D03*
X0238603D02*
D03*
X0232603D02*
D03*
X0226603D02*
D03*
X0220603D02*
D03*
X0214603D02*
D03*
X0208603D02*
D03*
X0202603D02*
D03*
X0196603D02*
D03*
X0190603D02*
D03*
X0184603D02*
D03*
X0178603D02*
D03*
X0172603D02*
D03*
X0166603D02*
D03*
X0160603D02*
D03*
X0154603D02*
D03*
X0148603D02*
D03*
X0142603D02*
D03*
X0136603D02*
D03*
D19*
X0817500Y0300000D02*
D03*
X0815000Y0295000D02*
D03*
X0817500Y0290000D02*
D03*
X0815000Y0285000D02*
D03*
X0817500Y0280000D02*
D03*
X0815000Y0275000D02*
D03*
X0817500Y0270000D02*
D03*
X0815000Y0265000D02*
D03*
X0817500Y0260000D02*
D03*
X0815000Y0255000D02*
D03*
X0817500Y0250000D02*
D03*
X0815000Y0245000D02*
D03*
X0817500Y0240000D02*
D03*
X0815000Y0235000D02*
D03*
X0812500Y0300000D02*
D03*
X0810000Y0295000D02*
D03*
X0812500Y0290000D02*
D03*
Y0280000D02*
D03*
Y0270000D02*
D03*
Y0260000D02*
D03*
Y0250000D02*
D03*
X0810000Y0245000D02*
D03*
X0812500Y0240000D02*
D03*
X0810000Y0235000D02*
D03*
X0807500Y0300000D02*
D03*
X0805000Y0295000D02*
D03*
X0807500Y0290000D02*
D03*
Y0250000D02*
D03*
X0805000Y0245000D02*
D03*
X0807500Y0240000D02*
D03*
X0805000Y0235000D02*
D03*
X0802500Y0300000D02*
D03*
Y0290000D02*
D03*
Y0250000D02*
D03*
Y0240000D02*
D03*
X0800000Y0235000D02*
D03*
X0797500Y0300000D02*
D03*
X0795000Y0255000D02*
D03*
X0797500Y0240000D02*
D03*
X0795000Y0235000D02*
D03*
M02*
