G04 Layer_Physical_Order=1*
G04 Layer_Color=255*
%FSAX25Y25*%
%MOIN*%
G70*
G01*
G75*
%ADD10R,0.15000X0.02200*%
%ADD11R,0.07874X0.01969*%
%ADD12C,0.02000*%
%ADD13C,0.02109*%
%ADD14C,0.01500*%
%ADD15C,0.01200*%
%ADD16C,0.06102*%
%ADD17C,0.11811*%
%ADD18C,0.02800*%
G36*
X0156281Y0307001D02*
X0156677Y0306736D01*
X0157146Y0306643D01*
X0821276D01*
Y0230349D01*
X0157071D01*
X0156982Y0230367D01*
X0156514Y0230274D01*
X0156117Y0230009D01*
X0140710Y0214601D01*
X0115062D01*
Y0241678D01*
X0130069D01*
X0132695Y0239052D01*
X0133257Y0238677D01*
X0133920Y0238545D01*
X0791239D01*
X0791902Y0238677D01*
X0792464Y0239052D01*
X0800064Y0246652D01*
X0800440Y0247215D01*
X0800572Y0247878D01*
Y0255160D01*
X0801545Y0256133D01*
X0805642D01*
X0805642Y0256133D01*
X0805888Y0256182D01*
X0810279D01*
Y0259331D01*
Y0262481D01*
X0810279D01*
Y0265631D01*
Y0268780D01*
Y0271930D01*
Y0275079D01*
Y0278448D01*
X0805888D01*
X0805642Y0278497D01*
X0802171D01*
X0801072Y0279596D01*
Y0291878D01*
X0801072Y0291878D01*
X0800940Y0292541D01*
X0800815Y0292728D01*
X0800564Y0293104D01*
X0800564Y0293104D01*
X0794264Y0299404D01*
X0793702Y0299779D01*
X0793039Y0299911D01*
X0133320D01*
X0132657Y0299779D01*
X0132095Y0299404D01*
X0129169Y0296478D01*
X0115062D01*
Y0322391D01*
X0140891D01*
X0156281Y0307001D01*
D02*
G37*
G36*
X0799292Y0258782D02*
X0797613Y0257104D01*
X0797237Y0256541D01*
X0797105Y0255878D01*
Y0248596D01*
X0790521Y0242011D01*
X0778630D01*
X0778423Y0242511D01*
X0785468Y0249556D01*
X0785942Y0249323D01*
X0785913Y0249106D01*
X0786042Y0248127D01*
X0786420Y0247215D01*
X0787021Y0246431D01*
X0787805Y0245830D01*
X0788718Y0245452D01*
X0789697Y0245323D01*
X0790676Y0245452D01*
X0791589Y0245830D01*
X0792372Y0246431D01*
X0792974Y0247215D01*
X0793352Y0248127D01*
X0793480Y0249106D01*
X0793352Y0250085D01*
X0792974Y0250998D01*
X0792372Y0251782D01*
X0791589Y0252383D01*
X0790676Y0252761D01*
X0789697Y0252890D01*
X0789480Y0252861D01*
X0789247Y0253335D01*
X0795194Y0259282D01*
X0799085D01*
X0799292Y0258782D01*
D02*
G37*
G36*
X0779105Y0282460D02*
Y0281878D01*
X0779237Y0281215D01*
X0779613Y0280652D01*
X0793867Y0266399D01*
X0793659Y0265899D01*
X0793126D01*
X0792463Y0265767D01*
X0791900Y0265391D01*
X0775021Y0248511D01*
X0136856D01*
X0134264Y0251104D01*
X0133702Y0251479D01*
X0133039Y0251611D01*
X0130739D01*
Y0251678D01*
X0115062D01*
Y0254478D01*
X0121535D01*
X0121737Y0254343D01*
X0122539Y0254183D01*
X0131093D01*
X0131262Y0254217D01*
X0768265D01*
X0768367Y0254197D01*
X0773358D01*
X0774160Y0254356D01*
X0774536Y0254607D01*
X0777995D01*
Y0257757D01*
Y0261125D01*
X0774536D01*
X0774160Y0261376D01*
X0773358Y0261536D01*
X0768367D01*
X0768265Y0261515D01*
X0131381D01*
X0131093Y0261573D01*
X0122539D01*
X0121737Y0261413D01*
X0121535Y0261278D01*
X0115062D01*
Y0264078D01*
X0130739D01*
Y0264415D01*
X0768721D01*
Y0264056D01*
X0777995D01*
Y0267206D01*
Y0270574D01*
X0768721D01*
Y0270556D01*
X0130739D01*
Y0270878D01*
X0115062D01*
Y0273678D01*
X0121535D01*
X0121737Y0273543D01*
X0122539Y0273383D01*
X0131093D01*
X0131322Y0273429D01*
X0766445D01*
X0766481Y0273405D01*
X0767282Y0273246D01*
X0767605D01*
X0768367Y0273094D01*
X0773358D01*
X0774160Y0273254D01*
X0774536Y0273505D01*
X0777995D01*
Y0276654D01*
Y0280023D01*
X0774591D01*
X0774049Y0280385D01*
X0773247Y0280544D01*
X0769224D01*
X0769189Y0280568D01*
X0768387Y0280727D01*
X0131322D01*
X0131093Y0280773D01*
X0122539D01*
X0121737Y0280613D01*
X0121535Y0280478D01*
X0115062D01*
Y0283278D01*
X0130739D01*
Y0283345D01*
X0132039D01*
X0132702Y0283477D01*
X0133264Y0283852D01*
X0136856Y0287445D01*
X0774121D01*
X0779105Y0282460D01*
D02*
G37*
G36*
X0794105Y0289160D02*
Y0277878D01*
X0794237Y0277215D01*
X0794613Y0276652D01*
X0798567Y0272698D01*
X0798360Y0272198D01*
X0797251D01*
X0786482Y0282967D01*
Y0283989D01*
X0786491Y0283998D01*
X0786982Y0284204D01*
X0787608Y0283723D01*
X0788521Y0283345D01*
X0789500Y0283216D01*
X0790479Y0283345D01*
X0791392Y0283723D01*
X0792175Y0284325D01*
X0792777Y0285108D01*
X0793155Y0286021D01*
X0793284Y0287000D01*
X0793155Y0287979D01*
X0792777Y0288892D01*
X0792175Y0289675D01*
X0791392Y0290277D01*
X0790479Y0290655D01*
X0789500Y0290784D01*
X0788521Y0290655D01*
X0787608Y0290277D01*
X0786825Y0289675D01*
X0786223Y0288892D01*
X0785845Y0287979D01*
X0785716Y0287000D01*
X0785799Y0286376D01*
X0785325Y0286143D01*
X0778423Y0293045D01*
X0778630Y0293545D01*
X0789721D01*
X0794105Y0289160D01*
D02*
G37*
%LPC*%
G36*
X0130839Y0235015D02*
X0129544Y0234888D01*
X0128298Y0234510D01*
X0127151Y0233897D01*
X0126145Y0233071D01*
X0125320Y0232066D01*
X0124706Y0230918D01*
X0124329Y0229673D01*
X0124201Y0228378D01*
X0124329Y0227083D01*
X0124706Y0225838D01*
X0125320Y0224690D01*
X0126145Y0223685D01*
X0127151Y0222859D01*
X0128298Y0222246D01*
X0129544Y0221868D01*
X0130839Y0221741D01*
X0132133Y0221868D01*
X0133379Y0222246D01*
X0134526Y0222859D01*
X0135532Y0223685D01*
X0136357Y0224690D01*
X0136971Y0225838D01*
X0137348Y0227083D01*
X0137476Y0228378D01*
X0137348Y0229673D01*
X0136971Y0230918D01*
X0136357Y0232066D01*
X0135532Y0233071D01*
X0134526Y0233897D01*
X0133379Y0234510D01*
X0132133Y0234888D01*
X0130839Y0235015D01*
D02*
G37*
G36*
Y0315252D02*
X0129544Y0315124D01*
X0128298Y0314746D01*
X0127151Y0314133D01*
X0126145Y0313308D01*
X0125320Y0312302D01*
X0124706Y0311154D01*
X0124329Y0309909D01*
X0124201Y0308614D01*
X0124329Y0307319D01*
X0124706Y0306074D01*
X0125320Y0304927D01*
X0126145Y0303921D01*
X0127151Y0303095D01*
X0128298Y0302482D01*
X0129544Y0302104D01*
X0130839Y0301977D01*
X0132133Y0302104D01*
X0133379Y0302482D01*
X0134526Y0303095D01*
X0135532Y0303921D01*
X0136357Y0304927D01*
X0136971Y0306074D01*
X0137348Y0307319D01*
X0137476Y0308614D01*
X0137348Y0309909D01*
X0136971Y0311154D01*
X0136357Y0312302D01*
X0135532Y0313308D01*
X0134526Y0314133D01*
X0133379Y0314746D01*
X0132133Y0315124D01*
X0130839Y0315252D01*
D02*
G37*
%LPD*%
D10*
X0122539Y0246678D02*
D03*
Y0269078D02*
D03*
Y0259478D02*
D03*
Y0256278D02*
D03*
Y0281878D02*
D03*
Y0272278D02*
D03*
Y0265878D02*
D03*
Y0262678D02*
D03*
Y0253078D02*
D03*
Y0249878D02*
D03*
Y0243478D02*
D03*
Y0285078D02*
D03*
Y0288278D02*
D03*
Y0294678D02*
D03*
Y0291478D02*
D03*
Y0278678D02*
D03*
Y0275478D02*
D03*
D11*
X0773358Y0253142D02*
D03*
Y0262591D02*
D03*
Y0265740D02*
D03*
Y0268890D02*
D03*
Y0272039D02*
D03*
Y0275189D02*
D03*
Y0278339D02*
D03*
Y0281488D02*
D03*
X0805642Y0283063D02*
D03*
Y0279913D02*
D03*
Y0276764D02*
D03*
Y0273614D02*
D03*
Y0270464D02*
D03*
Y0267315D02*
D03*
Y0264165D02*
D03*
X0805642Y0261016D02*
D03*
Y0257866D02*
D03*
X0805642Y0254716D02*
D03*
X0773358Y0259441D02*
D03*
Y0256291D02*
D03*
D12*
X0805630Y0257878D02*
X0805642Y0257866D01*
X0800827D02*
X0805642D01*
X0798839Y0255878D02*
X0800827Y0257866D01*
X0798839Y0247878D02*
Y0255878D01*
X0122539Y0243478D02*
X0130720D01*
X0777039Y0243578D02*
X0794476Y0261016D01*
X0805642D01*
X0795402Y0267315D02*
X0805642D01*
X0780839Y0281878D02*
X0795402Y0267315D01*
X0784749Y0282249D02*
X0796533Y0270464D01*
X0805642D01*
X0800102Y0273614D02*
X0805642D01*
X0795839Y0277878D02*
X0800102Y0273614D01*
X0795839Y0277878D02*
Y0289878D01*
X0801453Y0276764D02*
X0805642D01*
X0799339Y0278878D02*
X0801453Y0276764D01*
X0799339Y0278878D02*
Y0291878D01*
X0793039Y0298178D02*
X0799339Y0291878D01*
X0790439Y0295278D02*
X0795839Y0289878D01*
X0122539Y0249878D02*
X0133039D01*
X0136139Y0246778D01*
X0122539Y0246678D02*
X0132139D01*
X0135239Y0243578D01*
X0130720Y0243478D02*
X0133920Y0240278D01*
X0791239D01*
X0798839Y0247878D01*
X0774839Y0289178D02*
X0780839Y0283178D01*
Y0281878D02*
Y0283178D01*
X0776839Y0292178D02*
X0784749Y0284268D01*
Y0282249D02*
Y0284268D01*
X0793126Y0264165D02*
X0805642D01*
X0136139Y0246778D02*
X0775739D01*
X0793126Y0264165D01*
X0135239Y0243578D02*
X0777039D01*
X0122539Y0291478D02*
X0130439D01*
X0134239Y0295278D01*
X0790439D01*
X0122539Y0294678D02*
X0129820D01*
X0133320Y0298178D01*
X0793039D01*
X0122539Y0288278D02*
X0131339D01*
X0135239Y0292178D01*
X0776839D01*
X0122539Y0285078D02*
X0132039D01*
X0136139Y0289178D01*
X0774839D01*
D13*
X0122539Y0278678D02*
X0131093D01*
X0131139Y0278632D01*
X0122539Y0275478D02*
X0131093D01*
X0131139Y0275523D01*
X0768367Y0275189D02*
X0773358D01*
X0131139Y0278632D02*
X0768387D01*
X0768570Y0278449D01*
X0131139Y0275523D02*
X0767099D01*
X0767282Y0275340D01*
X0768215D01*
X0768367Y0275189D01*
X0773247Y0278449D02*
X0773358Y0278339D01*
X0768570Y0278449D02*
X0773247D01*
X0768367Y0259441D02*
X0773358D01*
X0768347Y0259421D02*
X0768367Y0259441D01*
Y0256291D02*
X0773358D01*
X0768347Y0256312D02*
X0768367Y0256291D01*
X0131127Y0256312D02*
X0768347D01*
X0131150Y0259421D02*
X0768347D01*
X0131093Y0259478D02*
X0131150Y0259421D01*
X0122539Y0259478D02*
X0131093D01*
Y0256278D02*
X0131127Y0256312D01*
X0122539Y0256278D02*
X0131093D01*
D14*
X0773170Y0269078D02*
X0773358Y0268890D01*
X0122539Y0269078D02*
X0773170D01*
D15*
X0122539Y0265878D02*
X0122676Y0265740D01*
X0773358D01*
D16*
X0789500Y0287000D02*
D03*
X0789697Y0249106D02*
D03*
D17*
X0130839Y0228378D02*
D03*
Y0308614D02*
D03*
D18*
X0134508Y0252789D02*
D03*
X0138008D02*
D03*
X0141508D02*
D03*
X0145008D02*
D03*
X0148508D02*
D03*
X0152008D02*
D03*
X0155508D02*
D03*
X0159008D02*
D03*
X0162508D02*
D03*
X0166008D02*
D03*
X0169508D02*
D03*
X0173008D02*
D03*
X0176508D02*
D03*
X0180008D02*
D03*
X0183508D02*
D03*
X0187008D02*
D03*
X0190508D02*
D03*
X0194008D02*
D03*
X0197508D02*
D03*
X0201008D02*
D03*
X0204508D02*
D03*
X0208008D02*
D03*
X0211508D02*
D03*
X0215008D02*
D03*
X0218508D02*
D03*
X0222008D02*
D03*
X0225508D02*
D03*
X0229008D02*
D03*
X0232508D02*
D03*
X0236008D02*
D03*
X0239508D02*
D03*
X0243008D02*
D03*
X0246508D02*
D03*
X0250008D02*
D03*
X0253508D02*
D03*
X0257008D02*
D03*
X0260508D02*
D03*
X0264008D02*
D03*
X0267508D02*
D03*
X0271008D02*
D03*
X0274508D02*
D03*
X0278008D02*
D03*
X0281508D02*
D03*
X0285008D02*
D03*
X0288508D02*
D03*
X0292008D02*
D03*
X0295508D02*
D03*
X0299008D02*
D03*
X0302508D02*
D03*
X0306008D02*
D03*
X0309508D02*
D03*
X0313008D02*
D03*
X0316508D02*
D03*
X0320008D02*
D03*
X0323508D02*
D03*
X0327008D02*
D03*
X0330508D02*
D03*
X0334008D02*
D03*
X0337508D02*
D03*
X0341008D02*
D03*
X0344508D02*
D03*
X0348008D02*
D03*
X0351508D02*
D03*
X0355008D02*
D03*
X0358508D02*
D03*
X0362008D02*
D03*
X0365508D02*
D03*
X0369008D02*
D03*
X0372508D02*
D03*
X0376008D02*
D03*
X0379508D02*
D03*
X0383008D02*
D03*
X0386508D02*
D03*
X0390008D02*
D03*
X0393508D02*
D03*
X0397008D02*
D03*
X0400508D02*
D03*
X0404008D02*
D03*
X0407508D02*
D03*
X0411008D02*
D03*
X0414508D02*
D03*
X0418008D02*
D03*
X0421508D02*
D03*
X0425008D02*
D03*
X0428508D02*
D03*
X0432008D02*
D03*
X0435508D02*
D03*
X0439008D02*
D03*
X0442508D02*
D03*
X0446008D02*
D03*
X0449508D02*
D03*
X0453008D02*
D03*
X0456508D02*
D03*
X0460008D02*
D03*
X0463508D02*
D03*
X0467008D02*
D03*
X0470508D02*
D03*
X0474008D02*
D03*
X0477508D02*
D03*
X0481008D02*
D03*
X0484508D02*
D03*
X0488008D02*
D03*
X0491508D02*
D03*
X0495008D02*
D03*
X0498508D02*
D03*
X0502008D02*
D03*
X0505508D02*
D03*
X0509008D02*
D03*
X0512508D02*
D03*
X0516008D02*
D03*
X0519508D02*
D03*
X0523008D02*
D03*
X0526508D02*
D03*
X0530008D02*
D03*
X0533508D02*
D03*
X0537008D02*
D03*
X0540508D02*
D03*
X0544008D02*
D03*
X0547508D02*
D03*
X0551008D02*
D03*
X0554508D02*
D03*
X0558008D02*
D03*
X0561508D02*
D03*
X0565008D02*
D03*
X0568508D02*
D03*
X0572008D02*
D03*
X0575508D02*
D03*
X0579008D02*
D03*
X0582508D02*
D03*
X0586008D02*
D03*
X0589508D02*
D03*
X0593008D02*
D03*
X0596508D02*
D03*
X0600008D02*
D03*
X0603508D02*
D03*
X0607008D02*
D03*
X0610508D02*
D03*
X0614008D02*
D03*
X0617508D02*
D03*
X0621008D02*
D03*
X0624508D02*
D03*
X0628008D02*
D03*
X0631508D02*
D03*
X0635008D02*
D03*
X0638508D02*
D03*
X0642008D02*
D03*
X0645508D02*
D03*
X0649008D02*
D03*
X0652508D02*
D03*
X0656008D02*
D03*
X0659508D02*
D03*
X0663008D02*
D03*
X0666508D02*
D03*
X0670008D02*
D03*
X0673508D02*
D03*
X0677008D02*
D03*
X0680508D02*
D03*
X0684008D02*
D03*
X0687508D02*
D03*
X0691008D02*
D03*
X0694508D02*
D03*
X0698008D02*
D03*
X0701508D02*
D03*
X0705008D02*
D03*
X0708508D02*
D03*
X0712008D02*
D03*
X0715508D02*
D03*
X0719008D02*
D03*
X0722508D02*
D03*
X0726008D02*
D03*
X0729508D02*
D03*
X0733008D02*
D03*
X0736508D02*
D03*
X0740008D02*
D03*
X0743508D02*
D03*
X0747008D02*
D03*
X0750508D02*
D03*
X0754008D02*
D03*
X0757508D02*
D03*
X0761008D02*
D03*
X0764508D02*
D03*
X0779742Y0256486D02*
D03*
Y0259985D02*
D03*
X0767163Y0262943D02*
D03*
X0763663D02*
D03*
X0760163D02*
D03*
X0756663D02*
D03*
X0753163D02*
D03*
X0749663D02*
D03*
X0746163D02*
D03*
X0742663D02*
D03*
X0739163D02*
D03*
X0735663D02*
D03*
X0732163D02*
D03*
X0728663D02*
D03*
X0725163D02*
D03*
X0721663D02*
D03*
X0718163D02*
D03*
X0714663D02*
D03*
X0711163D02*
D03*
X0707663D02*
D03*
X0704163D02*
D03*
X0700663D02*
D03*
X0697163D02*
D03*
X0693663D02*
D03*
X0690163D02*
D03*
X0686663D02*
D03*
X0683163D02*
D03*
X0679663D02*
D03*
X0676163D02*
D03*
X0672663D02*
D03*
X0669163D02*
D03*
X0665663D02*
D03*
X0662163D02*
D03*
X0658663D02*
D03*
X0655163D02*
D03*
X0651663D02*
D03*
X0648163D02*
D03*
X0644663D02*
D03*
X0641163D02*
D03*
X0637663D02*
D03*
X0634163D02*
D03*
X0630663D02*
D03*
X0627163D02*
D03*
X0623663D02*
D03*
X0620163D02*
D03*
X0616663D02*
D03*
X0613163D02*
D03*
X0609663D02*
D03*
X0606163D02*
D03*
X0602663D02*
D03*
X0599163D02*
D03*
X0595663D02*
D03*
X0592163D02*
D03*
X0588663D02*
D03*
X0585163D02*
D03*
X0581663D02*
D03*
X0578163D02*
D03*
X0574663D02*
D03*
X0571163D02*
D03*
X0567663D02*
D03*
X0564163D02*
D03*
X0560663D02*
D03*
X0557163D02*
D03*
X0553663D02*
D03*
X0550163D02*
D03*
X0546663D02*
D03*
X0543163D02*
D03*
X0539663D02*
D03*
X0536163D02*
D03*
X0532663D02*
D03*
X0529163D02*
D03*
X0525663D02*
D03*
X0522163D02*
D03*
X0518663D02*
D03*
X0515163D02*
D03*
X0511663D02*
D03*
X0508163D02*
D03*
X0504663D02*
D03*
X0501163D02*
D03*
X0497663D02*
D03*
X0494163D02*
D03*
X0490663D02*
D03*
X0487163D02*
D03*
X0483663D02*
D03*
X0480163D02*
D03*
X0476663D02*
D03*
X0473163D02*
D03*
X0469663D02*
D03*
X0466163D02*
D03*
X0462663D02*
D03*
X0459163D02*
D03*
X0455663D02*
D03*
X0452163D02*
D03*
X0448663D02*
D03*
X0445163D02*
D03*
X0441663D02*
D03*
X0438163D02*
D03*
X0434663D02*
D03*
X0431163D02*
D03*
X0427663D02*
D03*
X0424163D02*
D03*
X0420663D02*
D03*
X0417163D02*
D03*
X0413663D02*
D03*
X0410163D02*
D03*
X0406663D02*
D03*
X0403163D02*
D03*
X0399663D02*
D03*
X0396163D02*
D03*
X0392663D02*
D03*
X0389163D02*
D03*
X0385663D02*
D03*
X0382163D02*
D03*
X0378663D02*
D03*
X0375163D02*
D03*
X0371663D02*
D03*
X0368163D02*
D03*
X0364663D02*
D03*
X0361163D02*
D03*
X0357663D02*
D03*
X0354163D02*
D03*
X0350663D02*
D03*
X0347163D02*
D03*
X0343663D02*
D03*
X0340163D02*
D03*
X0336663D02*
D03*
X0333163D02*
D03*
X0329663D02*
D03*
X0326163D02*
D03*
X0322663D02*
D03*
X0319163D02*
D03*
X0315663D02*
D03*
X0312163D02*
D03*
X0308663D02*
D03*
X0305163D02*
D03*
X0301663D02*
D03*
X0298163D02*
D03*
X0294663D02*
D03*
X0291163D02*
D03*
X0287663D02*
D03*
X0284163D02*
D03*
X0280663D02*
D03*
X0277163D02*
D03*
X0273663D02*
D03*
X0270163D02*
D03*
X0266663D02*
D03*
X0263163D02*
D03*
X0259663D02*
D03*
X0256163D02*
D03*
X0252663D02*
D03*
X0249163D02*
D03*
X0245663D02*
D03*
X0242163D02*
D03*
X0238663D02*
D03*
X0235163D02*
D03*
X0231663D02*
D03*
X0228163D02*
D03*
X0224663D02*
D03*
X0221163D02*
D03*
X0217663D02*
D03*
X0214163D02*
D03*
X0210663D02*
D03*
X0207163D02*
D03*
X0203663D02*
D03*
X0200163D02*
D03*
X0196663D02*
D03*
X0193163D02*
D03*
X0189663D02*
D03*
X0186163D02*
D03*
X0182663D02*
D03*
X0179163D02*
D03*
X0175663D02*
D03*
X0172163D02*
D03*
X0168663D02*
D03*
X0165163D02*
D03*
X0161663D02*
D03*
X0158163D02*
D03*
X0154663D02*
D03*
X0151163D02*
D03*
X0147663D02*
D03*
X0144163D02*
D03*
X0140663D02*
D03*
X0137163D02*
D03*
X0133663D02*
D03*
X0134528Y0272001D02*
D03*
X0138028D02*
D03*
X0141528D02*
D03*
X0145028D02*
D03*
X0148528D02*
D03*
X0152028D02*
D03*
X0155528D02*
D03*
X0159028D02*
D03*
X0162528D02*
D03*
X0166028D02*
D03*
X0169528D02*
D03*
X0173028D02*
D03*
X0176528D02*
D03*
X0180028D02*
D03*
X0183528D02*
D03*
X0187028D02*
D03*
X0190528D02*
D03*
X0194028D02*
D03*
X0197528D02*
D03*
X0201028D02*
D03*
X0204528D02*
D03*
X0208028D02*
D03*
X0211528D02*
D03*
X0215028D02*
D03*
X0218528D02*
D03*
X0222028D02*
D03*
X0225528D02*
D03*
X0229028D02*
D03*
X0232528D02*
D03*
X0236028D02*
D03*
X0239528D02*
D03*
X0243028D02*
D03*
X0246528D02*
D03*
X0250028D02*
D03*
X0253528D02*
D03*
X0257028D02*
D03*
X0260528D02*
D03*
X0264028D02*
D03*
X0267528D02*
D03*
X0271028D02*
D03*
X0274528D02*
D03*
X0278028D02*
D03*
X0281528D02*
D03*
X0285028D02*
D03*
X0288528D02*
D03*
X0292028D02*
D03*
X0295528D02*
D03*
X0299028D02*
D03*
X0302528D02*
D03*
X0306028D02*
D03*
X0309528D02*
D03*
X0313028D02*
D03*
X0316528D02*
D03*
X0320028D02*
D03*
X0323528D02*
D03*
X0327028D02*
D03*
X0330528D02*
D03*
X0334028D02*
D03*
X0337528D02*
D03*
X0341028D02*
D03*
X0344528D02*
D03*
X0348028D02*
D03*
X0351528D02*
D03*
X0355028D02*
D03*
X0358528D02*
D03*
X0362028D02*
D03*
X0365528D02*
D03*
X0369028D02*
D03*
X0372528D02*
D03*
X0376028D02*
D03*
X0379528D02*
D03*
X0383028D02*
D03*
X0386528D02*
D03*
X0390028D02*
D03*
X0393528D02*
D03*
X0397028D02*
D03*
X0400528D02*
D03*
X0404028D02*
D03*
X0407528D02*
D03*
X0411028D02*
D03*
X0414528D02*
D03*
X0418028D02*
D03*
X0421528D02*
D03*
X0425028D02*
D03*
X0428528D02*
D03*
X0432028D02*
D03*
X0435528D02*
D03*
X0439028D02*
D03*
X0442528D02*
D03*
X0446028D02*
D03*
X0449528D02*
D03*
X0453028D02*
D03*
X0456528D02*
D03*
X0460028D02*
D03*
X0463528D02*
D03*
X0467028D02*
D03*
X0470528D02*
D03*
X0474028D02*
D03*
X0477528D02*
D03*
X0481028D02*
D03*
X0484528D02*
D03*
X0488028D02*
D03*
X0491528D02*
D03*
X0495028D02*
D03*
X0498528D02*
D03*
X0502028D02*
D03*
X0505528D02*
D03*
X0509028D02*
D03*
X0512528D02*
D03*
X0516028D02*
D03*
X0519528D02*
D03*
X0523028D02*
D03*
X0526528D02*
D03*
X0530028D02*
D03*
X0533528D02*
D03*
X0537028D02*
D03*
X0540528D02*
D03*
X0544028D02*
D03*
X0547528D02*
D03*
X0551028D02*
D03*
X0554528D02*
D03*
X0558028D02*
D03*
X0561528D02*
D03*
X0565028D02*
D03*
X0568528D02*
D03*
X0572028D02*
D03*
X0575528D02*
D03*
X0579028D02*
D03*
X0582528D02*
D03*
X0586028D02*
D03*
X0589528D02*
D03*
X0593028D02*
D03*
X0596528D02*
D03*
X0600028D02*
D03*
X0603528D02*
D03*
X0607028D02*
D03*
X0610528D02*
D03*
X0614028D02*
D03*
X0617528D02*
D03*
X0621028D02*
D03*
X0624528D02*
D03*
X0628028D02*
D03*
X0631528D02*
D03*
X0635028D02*
D03*
X0638528D02*
D03*
X0642028D02*
D03*
X0645528D02*
D03*
X0649028D02*
D03*
X0652528D02*
D03*
X0656028D02*
D03*
X0659528D02*
D03*
X0663028D02*
D03*
X0666528D02*
D03*
X0670028D02*
D03*
X0673528D02*
D03*
X0677028D02*
D03*
X0680528D02*
D03*
X0684028D02*
D03*
X0687528D02*
D03*
X0691028D02*
D03*
X0694528D02*
D03*
X0698028D02*
D03*
X0701528D02*
D03*
X0705028D02*
D03*
X0708528D02*
D03*
X0712028D02*
D03*
X0715528D02*
D03*
X0719028D02*
D03*
X0722528D02*
D03*
X0726028D02*
D03*
X0729528D02*
D03*
X0733028D02*
D03*
X0736528D02*
D03*
X0740028D02*
D03*
X0743528D02*
D03*
X0747028D02*
D03*
X0750528D02*
D03*
X0754028D02*
D03*
X0757528D02*
D03*
X0761028D02*
D03*
X0764528D02*
D03*
X0779742Y0275391D02*
D03*
X0767163Y0282155D02*
D03*
X0763663D02*
D03*
X0760163D02*
D03*
X0756663D02*
D03*
X0753163D02*
D03*
X0749663D02*
D03*
X0746163D02*
D03*
X0742663D02*
D03*
X0739163D02*
D03*
X0735663D02*
D03*
X0732163D02*
D03*
X0728663D02*
D03*
X0725163D02*
D03*
X0721663D02*
D03*
X0718163D02*
D03*
X0714663D02*
D03*
X0711163D02*
D03*
X0707663D02*
D03*
X0704163D02*
D03*
X0700663D02*
D03*
X0697163D02*
D03*
X0693663D02*
D03*
X0690163D02*
D03*
X0686663D02*
D03*
X0683163D02*
D03*
X0679663D02*
D03*
X0676163D02*
D03*
X0672663D02*
D03*
X0669163D02*
D03*
X0665663D02*
D03*
X0662163D02*
D03*
X0658663D02*
D03*
X0655163D02*
D03*
X0651663D02*
D03*
X0648163D02*
D03*
X0644663D02*
D03*
X0641163D02*
D03*
X0637663D02*
D03*
X0634163D02*
D03*
X0630663D02*
D03*
X0627163D02*
D03*
X0623663D02*
D03*
X0620163D02*
D03*
X0616663D02*
D03*
X0613163D02*
D03*
X0609663D02*
D03*
X0606163D02*
D03*
X0602663D02*
D03*
X0599163D02*
D03*
X0595663D02*
D03*
X0592163D02*
D03*
X0588663D02*
D03*
X0585163D02*
D03*
X0581663D02*
D03*
X0578163D02*
D03*
X0574663D02*
D03*
X0571163D02*
D03*
X0567663D02*
D03*
X0564163D02*
D03*
X0560663D02*
D03*
X0557163D02*
D03*
X0553663D02*
D03*
X0550163D02*
D03*
X0546663D02*
D03*
X0543163D02*
D03*
X0539663D02*
D03*
X0536163D02*
D03*
X0532663D02*
D03*
X0529163D02*
D03*
X0525663D02*
D03*
X0522163D02*
D03*
X0518663D02*
D03*
X0515163D02*
D03*
X0511663D02*
D03*
X0508163D02*
D03*
X0504663D02*
D03*
X0501163D02*
D03*
X0497663D02*
D03*
X0494163D02*
D03*
X0490663D02*
D03*
X0487163D02*
D03*
X0483663D02*
D03*
X0480163D02*
D03*
X0476663D02*
D03*
X0473163D02*
D03*
X0469663D02*
D03*
X0466163D02*
D03*
X0462663D02*
D03*
X0459163D02*
D03*
X0455663D02*
D03*
X0452163D02*
D03*
X0448663D02*
D03*
X0445163D02*
D03*
X0441663D02*
D03*
X0438163D02*
D03*
X0434663D02*
D03*
X0431163D02*
D03*
X0427663D02*
D03*
X0424163D02*
D03*
X0420663D02*
D03*
X0417163D02*
D03*
X0413663D02*
D03*
X0410163D02*
D03*
X0406663D02*
D03*
X0403163D02*
D03*
X0399663D02*
D03*
X0396163D02*
D03*
X0392663D02*
D03*
X0389163D02*
D03*
X0385663D02*
D03*
X0382163D02*
D03*
X0378663D02*
D03*
X0375163D02*
D03*
X0371663D02*
D03*
X0368163D02*
D03*
X0364663D02*
D03*
X0361163D02*
D03*
X0357663D02*
D03*
X0354163D02*
D03*
X0350663D02*
D03*
X0347163D02*
D03*
X0343663D02*
D03*
X0340163D02*
D03*
X0336663D02*
D03*
X0333163D02*
D03*
X0329663D02*
D03*
X0326163D02*
D03*
X0322663D02*
D03*
X0319163D02*
D03*
X0315663D02*
D03*
X0312163D02*
D03*
X0308663D02*
D03*
X0305163D02*
D03*
X0301663D02*
D03*
X0298163D02*
D03*
X0294663D02*
D03*
X0291163D02*
D03*
X0287663D02*
D03*
X0284163D02*
D03*
X0280663D02*
D03*
X0277163D02*
D03*
X0273663D02*
D03*
X0270163D02*
D03*
X0266663D02*
D03*
X0263163D02*
D03*
X0259663D02*
D03*
X0256163D02*
D03*
X0252663D02*
D03*
X0249163D02*
D03*
X0245663D02*
D03*
X0242163D02*
D03*
X0238663D02*
D03*
X0235163D02*
D03*
X0231663D02*
D03*
X0228163D02*
D03*
X0224663D02*
D03*
X0221163D02*
D03*
X0217663D02*
D03*
X0214163D02*
D03*
X0210663D02*
D03*
X0207163D02*
D03*
X0203663D02*
D03*
X0200163D02*
D03*
X0196663D02*
D03*
X0193163D02*
D03*
X0189663D02*
D03*
X0186163D02*
D03*
X0182663D02*
D03*
X0179163D02*
D03*
X0175663D02*
D03*
X0172163D02*
D03*
X0168663D02*
D03*
X0165163D02*
D03*
X0161663D02*
D03*
X0158163D02*
D03*
X0154663D02*
D03*
X0151163D02*
D03*
X0147663D02*
D03*
X0144163D02*
D03*
X0140663D02*
D03*
X0137163D02*
D03*
X0133663D02*
D03*
X0795000Y0235000D02*
D03*
X0797500Y0240000D02*
D03*
X0795000Y0255000D02*
D03*
X0797500Y0300000D02*
D03*
X0800000Y0235000D02*
D03*
X0802500Y0240000D02*
D03*
Y0250000D02*
D03*
Y0290000D02*
D03*
Y0300000D02*
D03*
X0805000Y0235000D02*
D03*
X0807500Y0240000D02*
D03*
X0805000Y0245000D02*
D03*
X0807500Y0250000D02*
D03*
Y0290000D02*
D03*
X0805000Y0295000D02*
D03*
X0807500Y0300000D02*
D03*
X0810000Y0235000D02*
D03*
X0812500Y0240000D02*
D03*
X0810000Y0245000D02*
D03*
X0812500Y0250000D02*
D03*
Y0260000D02*
D03*
Y0270000D02*
D03*
Y0280000D02*
D03*
Y0290000D02*
D03*
X0810000Y0295000D02*
D03*
X0812500Y0300000D02*
D03*
X0815000Y0235000D02*
D03*
X0817500Y0240000D02*
D03*
X0815000Y0245000D02*
D03*
X0817500Y0250000D02*
D03*
X0815000Y0255000D02*
D03*
X0817500Y0260000D02*
D03*
X0815000Y0265000D02*
D03*
X0817500Y0270000D02*
D03*
X0815000Y0275000D02*
D03*
X0817500Y0280000D02*
D03*
X0815000Y0285000D02*
D03*
X0817500Y0290000D02*
D03*
X0815000Y0295000D02*
D03*
X0817500Y0300000D02*
D03*
M02*
