M48
;Layer_Color=9474304
;FILE_FORMAT=2:5
INCH
;TYPE=PLATED
T1F00S00C0.01500
T2F00S00C0.06102
T3F00S00C0.07874
%
T01
X0795000Y0235000
X0800000
X0805000
X0810000
X0815000
X0812500Y0240000
X0807500
X0802500
X0797500
X0805000Y0245000
X0810000
X0815000
X0812500Y0250000
X0807500
X0802500
X0795000Y0255000
X0815000
X0812500Y0260000
X0817500
X0815000Y0265000
X0812500Y0270000
X0817500
X0815000Y0275000
X0812500Y0280000
X0817500
X0815000Y0285000
X0812500Y0290000
X0807500
X0802500
X0805000Y0295000
X0810000
X0815000
X0812500Y0300000
X0807500
X0802500
X0797500
X0817500
Y0290000
Y0250000
Y0240000
X0779742Y0256486
Y0259985
X0779742Y0275391
X0764528Y0272001
X0761028
X0757528
X0754028
X0750528
X0747028
X0743528
X0740028
X0736528
X0733028
X0729528
X0726028
X0722528
X0719028
X0715528
X0712028
X0708528
X0705028
X0701528
X0698028
X0694528
X0691028
X0687528
X0684028
X0680528
X0677028
X0673528
X0670028
X0666528
X0663028
X0659528
X0656028
X0652528
X0649028
X0645528
X0642028
X0638528
X0635028
X0631528
X0628028
X0627163Y0262943
X0630663
X0634163
X0637663
X0641163
X0644663
X0648163
X0651663
X0655163
X0658663
X0662163
X0665663
X0669163
X0672663
X0676163
X0679663
X0683163
X0686663
X0690163
X0693663
X0697163
X0700663
X0704163
X0707663
X0711163
X0714663
X0718163
X0721663
X0725163
X0728663
X0732163
X0735663
X0739163
X0742663
X0746163
X0749663
X0753163
X0756663
X0760163
X0763663
X0767163
X0764508Y0252789
X0761008
X0757508
X0754008
X0750508
X0747008
X0743508
X0740008
X0736508
X0733008
X0729508
X0726008
X0722508
X0719008
X0715508
X0712008
X0708508
X0705008
X0701508
X0698008
X0694508
X0691008
X0687508
X0684008
X0680508
X0677008
X0673508
X0670008
X0666508
X0663008
X0659508
X0656008
X0652508
X0649008
X0645508
X0642008
X0638508
X0635008
X0631508
X0628008
X0627163Y0282155
X0630663
X0634163
X0637663
X0641163
X0644663
X0648163
X0651663
X0655163
X0658663
X0662163
X0665663
X0669163
X0672663
X0676163
X0679663
X0683163
X0686663
X0690163
X0693663
X0697163
X0700663
X0704163
X0707663
X0711163
X0714663
X0718163
X0721663
X0725163
X0728663
X0732163
X0735663
X0739163
X0742663
X0746163
X0749663
X0753163
X0756663
X0760163
X0763663
X0767163
X0623663
X0620163
X0616663
X0613163
X0609663
X0606163
X0602663
X0599163
X0595663
X0592163
X0588663
X0585163
X0581663
X0578163
X0574663
X0571163
X0567663
X0564163
X0560663
X0557163
X0553663
X0550163
X0546663
X0543163
X0539663
X0536163
X0532663
X0529163
X0525663
X0522163
X0518663
X0515163
X0511663
X0508163
X0504663
X0501163
X0497663
X0494163
X0490663
X0487163
X0483663
X0480163
X0476663
X0473163
X0469663
X0470528Y0272001
X0474028
X0477528
X0481028
X0484528
X0488028
X0491528
X0495028
X0498528
X0502028
X0505528
X0509028
X0512528
X0516028
X0519528
X0523028
X0526528
X0530028
X0533528
X0537028
X0540528
X0544028
X0547528
X0551028
X0554528
X0558028
X0561528
X0565028
X0568528
X0572028
X0575528
X0579028
X0582528
X0586028
X0589528
X0593028
X0596528
X0600028
X0603528
X0607028
X0610528
X0614028
X0617528
X0621028
X0624528
X0623663Y0262943
X0620163
X0616663
X0613163
X0609663
X0606163
X0602663
X0599163
X0595663
X0592163
X0588663
X0585163
X0581663
X0578163
X0574663
X0571163
X0567663
X0564163
X0560663
X0557163
X0553663
X0550163
X0546663
X0543163
X0539663
X0536163
X0532663
X0529163
X0525663
X0522163
X0518663
X0515163
X0511663
X0508163
X0504663
X0501163
X0497663
X0494163
X0490663
X0487163
X0483663
X0480163
X0476663
X0473163
X0469663
X0470508Y0252789
X0474008
X0477508
X0481008
X0484508
X0488008
X0491508
X0495008
X0498508
X0502008
X0505508
X0509008
X0512508
X0516008
X0519508
X0523008
X0526508
X0530008
X0533508
X0537008
X0540508
X0544008
X0547508
X0551008
X0554508
X0558008
X0561508
X0565008
X0568508
X0572008
X0575508
X0579008
X0582508
X0586008
X0589508
X0593008
X0596508
X0600008
X0603508
X0607008
X0610508
X0614008
X0617508
X0621008
X0624508
X0467008
X0463508
X0460008
X0456508
X0453008
X0449508
X0446008
X0442508
X0439008
X0435508
X0432008
X0428508
X0425008
X0421508
X0418008
X0414508
X0411008
X0407508
X0404008
X0400508
X0397008
X0393508
X0390008
X0386508
X0383008
X0379508
X0376008
X0372508
X0369008
X0365508
X0362008
X0358508
X0355008
X0351508
X0348008
X0344508
X0341008
X0337508
X0334008
X0330508
X0327008
X0323508
X0320008
X0316508
X0313008
X0315663Y0262943
X0319163
X0322663
X0326163
X0329663
X0333163
X0336663
X0340163
X0343663
X0347163
X0350663
X0354163
X0357663
X0361163
X0364663
X0368163
X0371663
X0375163
X0378663
X0382163
X0385663
X0389163
X0392663
X0396163
X0399663
X0403163
X0406663
X0410163
X0413663
X0417163
X0420663
X0424163
X0427663
X0431163
X0434663
X0438163
X0441663
X0445163
X0448663
X0452163
X0455663
X0459163
X0462663
X0466163
X0467028Y0272001
X0463528
X0460028
X0456528
X0453028
X0449528
X0446028
X0442528
X0439028
X0435528
X0432028
X0428528
X0425028
X0421528
X0418028
X0414528
X0411028
X0407528
X0404028
X0400528
X0397028
X0393528
X0390028
X0386528
X0383028
X0379528
X0376028
X0372528
X0369028
X0365528
X0362028
X0358528
X0355028
X0351528
X0348028
X0344528
X0341028
X0337528
X0334028
X0330528
X0327028
X0323528
X0320028
X0316528
X0313028
X0315663Y0282155
X0319163
X0322663
X0326163
X0329663
X0333163
X0336663
X0340163
X0343663
X0347163
X0350663
X0354163
X0357663
X0361163
X0364663
X0368163
X0371663
X0375163
X0378663
X0382163
X0385663
X0389163
X0392663
X0396163
X0399663
X0403163
X0406663
X0410163
X0413663
X0417163
X0420663
X0424163
X0427663
X0431163
X0434663
X0438163
X0441663
X0445163
X0448663
X0452163
X0455663
X0459163
X0462663
X0466163
X0312163
X0308663
X0305163
X0301663
X0298163
X0294663
X0291163
X0287663
X0284163
X0280663
X0277163
X0273663
X0270163
X0266663
X0263163
X0259663
X0256163
X0252663
X0249163
X0245663
X0242163
X0238663
X0235163
X0231663
X0228163
X0224663
X0221163
X0217663
X0214163
X0210663
X0207163
X0203663
X0200163
X0196663
X0193163
X0189663
X0186163
X0182663
X0179163
X0175663
X0172163
X0168663
X0165163
X0161663
X0158163
X0159028Y0272001
X0162528
X0166028
X0169528
X0173028
X0176528
X0180028
X0183528
X0187028
X0190528
X0194028
X0197528
X0201028
X0204528
X0208028
X0211528
X0215028
X0218528
X0222028
X0225528
X0229028
X0232528
X0236028
X0239528
X0243028
X0246528
X0250028
X0253528
X0257028
X0260528
X0264028
X0267528
X0271028
X0274528
X0278028
X0281528
X0285028
X0288528
X0292028
X0295528
X0299028
X0302528
X0306028
X0309528
X0308663Y0262943
X0312163
X0305163
X0301663
X0298163
X0294663
X0291163
X0287663
X0284163
X0280663
X0277163
X0273663
X0270163
X0266663
X0263163
X0259663
X0256163
X0252663
X0249163
X0245663
X0242163
X0238663
X0235163
X0231663
X0228163
X0224663
X0221163
X0217663
X0214163
X0210663
X0207163
X0203663
X0200163
X0196663
X0193163
X0189663
X0186163
X0182663
X0179163
X0175663
X0172163
X0168663
X0165163
X0161663
X0158163
X0159008Y0252789
X0162508
X0166008
X0169508
X0173008
X0176508
X0180008
X0183508
X0187008
X0190508
X0194008
X0197508
X0201008
X0204508
X0208008
X0211508
X0215008
X0218508
X0222008
X0225508
X0229008
X0232508
X0236008
X0239508
X0243008
X0246508
X0250008
X0253508
X0257008
X0260508
X0264008
X0267508
X0271008
X0274508
X0278008
X0281508
X0285008
X0288508
X0292008
X0295508
X0299008
X0302508
X0306008
X0309508
X0155508
X0152008
X0148508
X0145008
X0141508
X0138008
X0134508
X0133663Y0262943
X0137163
X0140663
X0144163
X0147663
X0151163
X0154663
X0155528Y0272001
X0152028
X0148528
X0145028
X0141528
X0138028
X0134528
X0133663Y0282155
X0137163
X0140663
X0144163
X0147663
X0151163
X0154663
T02
X0789697Y0249106
X0789500Y0287000
T03
X0130839Y0228378
Y0308614
M30
