M48
;Layer_Color=9474304
;FILE_FORMAT=2:5
INCH
;TYPE=PLATED
T1F00S00C0.01500
T2F00S00C0.02800
T3F00S00C0.06102
T4F00S00C0.07874
%
T01
X0795000Y0235000
X0800000
X0805000
X0810000
X0815000
X0817500Y0240000
X0812500
X0807500
X0802500
X0797500
X0805000Y0245000
X0810000
X0815000
X0817500Y0250000
X0812500
X0807500
X0802500
X0795000Y0255000
X0815000
X0817500Y0260000
X0812500
X0815000Y0265000
X0817500Y0270000
X0812500
X0815000Y0275000
X0817500Y0280000
X0812500
X0815000Y0285000
X0817500Y0290000
X0812500
X0807500
X0802500
X0805000Y0295000
X0810000
X0815000
X0817500Y0300000
X0812500
X0807500
X0802500
X0797500
T02
X0628324Y0253849
X0634324
X0640324
X0646324
X0652324
X0658324
X0664324
X0670324
X0676324
X0682324
X0688324
X0694324
X0700324
X0706324
X0712324
X0718324
X0724324
X0730324
X0736324
X0742324
X0748324
X0754324
X0760324
X0766324
X0760603Y0261907
X0754603
X0748603
X0742603
X0736603
X0730603
X0724603
X0718603
X0712603
X0706603
X0700603
X0694603
X0688603
X0682603
X0676603
X0670603
X0664603
X0658603
X0652603
X0646603
X0640603
X0634603
X0628603
X0628326Y0273049
X0634326
X0640326
X0646326
X0652326
X0658326
X0664326
X0670326
X0676326
X0682326
X0688326
X0694326
X0700326
X0706326
X0712326
X0718326
X0724326
X0730326
X0736326
X0742326
X0748326
X0754326
X0760326
X0766326
X0760603Y0281107
X0754603
X0748603
X0742603
X0736603
X0730603
X0724603
X0718603
X0712603
X0706603
X0700603
X0694603
X0688603
X0682603
X0676603
X0670603
X0664603
X0658603
X0652603
X0646603
X0640603
X0634603
X0628603
X0780417Y0276597
X0780409Y0257758
X0622603Y0261907
X0616603
X0610603
X0604603
X0598603
X0592603
X0586603
X0580603
X0574603
X0568603
X0562603
X0556603
X0550603
X0544603
X0538603
X0532603
X0526603
X0520603
X0514603
X0508603
X0502603
X0496603
X0490603
X0484603
X0478603
X0472603
X0472324Y0253849
X0478324
X0484324
X0490324
X0496324
X0502324
X0508324
X0514324
X0520324
X0526324
X0532324
X0538324
X0544324
X0550324
X0556324
X0562324
X0568324
X0574324
X0580324
X0586324
X0592324
X0598324
X0604324
X0610324
X0616324
X0622324
X0622326Y0273049
X0616326
X0610326
X0604326
X0598326
X0592326
X0586326
X0580326
X0574326
X0568326
X0562326
X0556326
X0550326
X0544326
X0538326
X0532326
X0526326
X0520326
X0514326
X0508326
X0502326
X0496326
X0490326
X0484326
X0478326
X0472326
X0472603Y0281107
X0478603
X0484603
X0490603
X0496603
X0502603
X0508603
X0514603
X0520603
X0526603
X0532603
X0538603
X0544603
X0550603
X0556603
X0562603
X0568603
X0574603
X0580603
X0586603
X0592603
X0598603
X0604603
X0610603
X0616603
X0622603
X0466603
X0460603
X0454603
X0448603
X0442603
X0436603
X0430603
X0424603
X0418603
X0412603
X0406603
X0400603
X0394603
X0388603
X0382603
X0376603
X0370603
X0364603
X0358603
X0352603
X0346603
X0340603
X0334603
X0328603
X0322603
X0316603
X0316326Y0273049
X0322326
X0328326
X0334326
X0340326
X0346326
X0352326
X0358326
X0364326
X0370326
X0376326
X0382326
X0388326
X0394326
X0400326
X0406326
X0412326
X0418326
X0424326
X0430326
X0436326
X0442326
X0448326
X0454326
X0460326
X0466326
X0466603Y0261907
X0460603
X0454603
X0448603
X0442603
X0436603
X0430603
X0424603
X0418603
X0412603
X0406603
X0400603
X0394603
X0388603
X0382603
X0376603
X0370603
X0364603
X0358603
X0352603
X0346603
X0340603
X0334603
X0328603
X0322603
X0316603
X0316324Y0253849
X0322324
X0328324
X0334324
X0340324
X0346324
X0352324
X0358324
X0364324
X0370324
X0376324
X0382324
X0388324
X0394324
X0400324
X0406324
X0412324
X0418324
X0424324
X0430324
X0436324
X0442324
X0448324
X0454324
X0460324
X0466324
X0310324
X0304324
X0298324
X0292324
X0286324
X0280324
X0274324
X0268324
X0262324
X0256324
X0250324
X0244324
X0238324
X0232324
X0226324
X0220324
X0214324
X0208324
X0202324
X0196324
X0190324
X0184324
X0178324
X0172324
X0166324
X0160324
X0160603Y0261907
X0166603
X0172603
X0178603
X0184603
X0190603
X0196603
X0202603
X0208603
X0214603
X0220603
X0226603
X0232603
X0238603
X0244603
X0250603
X0256603
X0262603
X0268603
X0274603
X0280603
X0286603
X0292603
X0298603
X0304603
X0310603
X0310326Y0273049
X0304326
X0298326
X0292326
X0286326
X0280326
X0274326
X0268326
X0262326
X0256326
X0250326
X0244326
X0238326
X0232326
X0226326
X0220326
X0214326
X0208326
X0202326
X0196326
X0190326
X0184326
X0178326
X0172326
X0166326
X0160326
X0160603Y0281107
X0166603
X0172603
X0178603
X0184603
X0190603
X0196603
X0202603
X0208603
X0214603
X0220603
X0226603
X0232603
X0238603
X0244603
X0250603
X0256603
X0262603
X0268603
X0274603
X0280603
X0286603
X0292603
X0298603
X0304603
X0310603
X0154603
X0148603
X0142603
X0136603
X0136326Y0273049
X0142326
X0148326
X0154326
X0154603Y0261907
X0148603
X0142603
X0136603
X0136324Y0253849
X0142324
X0148324
X0154324
T03
X0789697Y0249106
X0789500Y0287000
T04
X0130839Y0228378
Y0308614
M30
