G04 Layer_Physical_Order=3*
G04 Layer_Color=128*
%FSAX25Y25*%
%MOIN*%
G70*
G01*
G75*
%ADD38C,0.04000*%
%ADD39C,0.16097*%
%ADD40C,0.17779*%
%ADD41C,0.16598*%
%ADD42C,0.10102*%
%ADD43C,0.07543*%
%ADD44C,0.11874*%
%ADD45C,0.05496*%
%ADD46C,0.05500*%
%ADD47C,0.08200*%
%ADD48C,0.08134*%
%ADD49C,0.06800*%
D38*
X0463240Y0412906D02*
X0465544Y0412679D01*
X0467760Y0412006D01*
X0469802Y0410915D01*
X0471592Y0409446D01*
X0473061Y0407656D01*
X0474152Y0405614D01*
X0474824Y0403399D01*
X0475051Y0401094D01*
Y0168811D02*
Y0401094D01*
X0474824Y0166507D02*
X0475051Y0168811D01*
X0474152Y0164291D02*
X0474824Y0166507D01*
X0473061Y0162249D02*
X0474152Y0164291D01*
X0471592Y0160459D02*
X0473061Y0162249D01*
X0469802Y0158991D02*
X0471592Y0160459D01*
X0467760Y0157899D02*
X0469802Y0158991D01*
X0465544Y0157227D02*
X0467760Y0157899D01*
X0463240Y0157000D02*
X0465544Y0157227D01*
X0384500Y0157000D02*
X0463240D01*
X0384500D02*
Y0204244D01*
X0311665D02*
X0384500D01*
X0311665D02*
Y0412906D01*
X0463240D01*
D39*
X0403634Y0397157D02*
D03*
D40*
Y0214441D02*
D03*
X0459303Y0172748D02*
D03*
D41*
Y0397157D02*
D03*
D42*
X0366280Y0344902D02*
D03*
X0328386Y0344706D02*
D03*
D43*
X0449134Y0251657D02*
D03*
Y0241657D02*
D03*
Y0231657D02*
D03*
Y0221657D02*
D03*
Y0211657D02*
D03*
X0459134Y0251657D02*
D03*
Y0241657D02*
D03*
Y0231657D02*
D03*
Y0221657D02*
D03*
Y0211657D02*
D03*
D44*
X0428434Y0320557D02*
D03*
Y0400794D02*
D03*
D45*
X0385134Y0224157D02*
D03*
X0376134Y0251657D02*
D03*
X0352634Y0259657D02*
D03*
X0428134Y0242657D02*
D03*
X0399634Y0237157D02*
D03*
X0401134Y0252157D02*
D03*
X0445634Y0386157D02*
D03*
X0439634Y0383657D02*
D03*
X0437134Y0380657D02*
D03*
X0437634Y0377157D02*
D03*
X0431634Y0335157D02*
D03*
X0416134Y0251157D02*
D03*
X0419134Y0257657D02*
D03*
X0403634Y0263157D02*
D03*
X0395134Y0253157D02*
D03*
X0331134Y0279657D02*
D03*
X0425134Y0273157D02*
D03*
X0407134Y0269157D02*
D03*
X0378134Y0272657D02*
D03*
X0395634Y0163657D02*
D03*
X0393134Y0168657D02*
D03*
X0457634Y0266657D02*
D03*
X0466134Y0274157D02*
D03*
X0424634Y0277657D02*
D03*
X0426134Y0285157D02*
D03*
X0395134Y0275657D02*
D03*
X0404134Y0307157D02*
D03*
X0389134Y0294657D02*
D03*
X0387634Y0285657D02*
D03*
X0344134Y0345657D02*
D03*
X0349134Y0346157D02*
D03*
X0413134Y0231657D02*
D03*
X0416634Y0228157D02*
D03*
X0439134Y0190657D02*
D03*
X0439634Y0205157D02*
D03*
X0409134Y0235657D02*
D03*
X0419634Y0205657D02*
D03*
X0434634Y0337657D02*
D03*
D46*
X0435634Y0185157D02*
D03*
D47*
X0347131Y0369457D02*
D03*
X0366034D02*
D03*
X0374941Y0223249D02*
D03*
X0328234Y0369457D02*
D03*
D48*
X0319134Y0351257D02*
D03*
X0375234Y0361157D02*
D03*
Y0351257D02*
D03*
Y0331657D02*
D03*
Y0321757D02*
D03*
X0352934Y0223257D02*
D03*
X0375234Y0242957D02*
D03*
Y0282357D02*
D03*
X0362734Y0302057D02*
D03*
X0341534D02*
D03*
X0319134Y0223257D02*
D03*
Y0313157D02*
D03*
Y0331657D02*
D03*
Y0262657D02*
D03*
Y0302057D02*
D03*
Y0341457D02*
D03*
X0375234Y0311915D02*
D03*
D49*
X0371917Y0400763D02*
D03*
X0377881Y0400109D02*
D03*
X0388710Y0395100D02*
D03*
X0393160Y0391075D02*
D03*
X0397403Y0386832D02*
D03*
X0401646Y0382590D02*
D03*
X0405888Y0378347D02*
D03*
X0397275Y0373335D02*
D03*
X0393033Y0377577D02*
D03*
X0388790Y0381820D02*
D03*
X0384548Y0386064D02*
D03*
X0379588Y0389438D02*
D03*
X0373806Y0391042D02*
D03*
X0367807Y0391140D02*
D03*
X0349820Y0390740D02*
D03*
X0344707Y0387600D02*
D03*
X0342035Y0382227D02*
D03*
X0341865Y0376230D02*
D03*
X0339768Y0353401D02*
D03*
X0333768Y0353475D02*
D03*
X0332230Y0376640D02*
D03*
X0332384Y0382638D02*
D03*
X0333967Y0388425D02*
D03*
X0337163Y0393503D02*
D03*
X0341676Y0397457D02*
D03*
X0353074Y0400775D02*
D03*
X0359074D02*
D03*
X0365074D02*
D03*
X0355807Y0391140D02*
D03*
X0347130Y0399958D02*
D03*
X0361807Y0391140D02*
D03*
X0383564Y0398185D02*
D03*
X0406519Y0365777D02*
D03*
X0401518Y0369092D02*
D03*
X0431156Y0369697D02*
D03*
X0431160Y0350528D02*
D03*
X0406936Y0347236D02*
D03*
X0402663Y0351447D02*
D03*
X0398420Y0355690D02*
D03*
X0394177Y0359933D02*
D03*
X0389935Y0364175D02*
D03*
X0385692Y0368418D02*
D03*
X0381449Y0372661D02*
D03*
X0376940Y0376618D02*
D03*
X0370962Y0377140D02*
D03*
X0364962D02*
D03*
X0360762Y0372855D02*
D03*
X0355618Y0353415D02*
D03*
X0351917Y0379541D02*
D03*
X0355511Y0384346D02*
D03*
M02*
