G04 Layer_Color=16711935*
%FSAX25Y25*%
%MOIN*%
G70*
G01*
G75*
%ADD65C,0.12897*%
%ADD66C,0.14579*%
%ADD67C,0.13398*%
%ADD68C,0.06312*%
%ADD69R,0.08674X0.08674*%
%ADD70C,0.06902*%
%ADD71C,0.06706*%
%ADD72R,0.06706X0.06706*%
%ADD73C,0.12611*%
D65*
X0403634Y0397157D02*
D03*
D66*
Y0214441D02*
D03*
X0459303Y0172748D02*
D03*
D67*
Y0397157D02*
D03*
D68*
X0347131Y0369457D02*
D03*
X0366034D02*
D03*
X0374941Y0223249D02*
D03*
X0328234Y0369457D02*
D03*
D69*
X0319134Y0351257D02*
D03*
X0375234Y0361157D02*
D03*
Y0351257D02*
D03*
Y0331657D02*
D03*
Y0321757D02*
D03*
X0352934Y0223257D02*
D03*
X0375234Y0242957D02*
D03*
Y0282357D02*
D03*
X0362734Y0302057D02*
D03*
X0341534D02*
D03*
X0319134Y0223257D02*
D03*
Y0313157D02*
D03*
Y0331657D02*
D03*
Y0262657D02*
D03*
Y0302057D02*
D03*
Y0341457D02*
D03*
X0375234Y0311915D02*
D03*
D70*
X0366280Y0344902D02*
D03*
X0328386Y0344706D02*
D03*
D71*
X0449134Y0251657D02*
D03*
Y0241657D02*
D03*
Y0231657D02*
D03*
Y0221657D02*
D03*
Y0211657D02*
D03*
X0459134Y0251657D02*
D03*
Y0241657D02*
D03*
Y0231657D02*
D03*
Y0221657D02*
D03*
D72*
Y0211657D02*
D03*
D73*
X0428434Y0320557D02*
D03*
Y0400794D02*
D03*
M02*
