G04 Layer_Physical_Order=1*
G04 Layer_Color=255*
%FSAX25Y25*%
%MOIN*%
G70*
G01*
G75*
%ADD10C,0.00900*%
%ADD11R,0.03937X0.07284*%
%ADD12R,0.12598X0.07284*%
%ADD13R,0.01969X0.07874*%
%ADD14R,0.02362X0.03347*%
%ADD15R,0.03347X0.02362*%
%ADD16R,0.04724X0.05512*%
%ADD17R,0.05512X0.04724*%
%ADD18R,0.02559X0.03543*%
%ADD19R,0.03543X0.02559*%
%ADD20R,0.04921X0.05512*%
%ADD21R,0.05512X0.04921*%
%ADD22R,0.15000X0.02200*%
%ADD23C,0.01500*%
%ADD24C,0.00800*%
%ADD25C,0.03937*%
%ADD26R,0.17500X0.17500*%
%ADD27C,0.12097*%
%ADD28C,0.13780*%
%ADD29C,0.12598*%
%ADD30C,0.05512*%
%ADD31R,0.07874X0.07874*%
%ADD32C,0.06102*%
%ADD33C,0.05906*%
%ADD34R,0.05906X0.05906*%
%ADD35C,0.11811*%
%ADD36C,0.02500*%
%ADD37C,0.05000*%
G36*
X0346350Y0313814D02*
Y0277001D01*
X0343850Y0275965D01*
X0336418Y0283397D01*
Y0307418D01*
X0343850Y0314850D01*
X0346350Y0313814D01*
D02*
G37*
G36*
X0400378Y0282339D02*
X0400378Y0279838D01*
Y0275252D01*
X0407890D01*
Y0276092D01*
X0409000Y0276913D01*
X0411500Y0275652D01*
Y0274886D01*
X0411500D01*
X0411885Y0272386D01*
X0411840Y0272158D01*
X0409533Y0270942D01*
X0408513D01*
X0408012Y0271277D01*
X0407134Y0271451D01*
X0406256Y0271277D01*
X0405512Y0270780D01*
X0405014Y0270035D01*
X0402524Y0270328D01*
Y0272331D01*
X0398161D01*
Y0272331D01*
X0396815D01*
Y0272331D01*
X0394186D01*
X0392389Y0272551D01*
X0391807Y0274563D01*
Y0276984D01*
X0386461D01*
X0386461Y0276984D01*
Y0276984D01*
X0384655Y0278660D01*
X0384418Y0278896D01*
Y0282263D01*
X0386688Y0283501D01*
X0386918Y0283506D01*
X0387634Y0283363D01*
X0388512Y0283538D01*
X0389013Y0283873D01*
X0393736D01*
X0394419Y0284009D01*
X0394998Y0284396D01*
X0395334Y0284732D01*
X0397862D01*
Y0285227D01*
X0400378D01*
X0400378Y0282339D01*
D02*
G37*
G36*
X0367350Y0309918D02*
Y0300657D01*
X0367485Y0299975D01*
X0367872Y0299396D01*
X0380850Y0286418D01*
Y0278157D01*
X0380985Y0277475D01*
X0381372Y0276896D01*
X0384872Y0273396D01*
X0384872Y0273396D01*
X0386199Y0272391D01*
X0386461Y0270453D01*
Y0267831D01*
X0386461D01*
Y0266484D01*
X0386461D01*
Y0262122D01*
X0386461Y0262122D01*
X0385689Y0259942D01*
X0370873D01*
X0362352Y0268462D01*
X0362374Y0268648D01*
X0363477Y0270873D01*
X0376754D01*
X0377256Y0270538D01*
X0378134Y0270363D01*
X0379012Y0270538D01*
X0379756Y0271035D01*
X0380253Y0271779D01*
X0380428Y0272657D01*
X0380253Y0273535D01*
X0379756Y0274280D01*
X0379012Y0274777D01*
X0378134Y0274952D01*
X0377256Y0274777D01*
X0376754Y0274442D01*
X0363373D01*
X0357418Y0280397D01*
Y0316314D01*
X0359918Y0317350D01*
X0367350Y0309918D01*
D02*
G37*
G36*
X0464948Y0410704D02*
X0472743Y0403290D01*
X0472830Y0403002D01*
X0473028Y0400995D01*
Y0168910D01*
X0472830Y0166903D01*
X0472694Y0166454D01*
X0465597Y0159357D01*
X0465148Y0159221D01*
X0463141Y0159023D01*
X0386523D01*
Y0181643D01*
X0388930Y0183643D01*
X0389378Y0183537D01*
Y0178945D01*
X0396890D01*
Y0185638D01*
X0405134D01*
X0405524Y0185715D01*
X0405855Y0185936D01*
X0406000Y0186154D01*
X0406076Y0186267D01*
X0406076Y0186267D01*
X0406153Y0186657D01*
X0406335Y0188516D01*
X0410640D01*
Y0168157D01*
X0410665Y0167963D01*
Y0163516D01*
X0416602D01*
Y0167963D01*
X0416628Y0168157D01*
Y0188516D01*
X0420933D01*
Y0190646D01*
X0421878Y0191278D01*
X0423433Y0191754D01*
X0423756Y0191538D01*
X0424634Y0191363D01*
X0425512Y0191538D01*
X0425549Y0191563D01*
X0426312Y0192035D01*
X0428012Y0192035D01*
X0428544Y0191680D01*
X0428756Y0191538D01*
X0429753Y0191013D01*
X0430760Y0190029D01*
X0431184Y0189526D01*
X0431512Y0189035D01*
X0432256Y0188538D01*
X0433134Y0188363D01*
X0434012Y0188538D01*
X0434756Y0189035D01*
X0435253Y0189779D01*
X0435371Y0190371D01*
X0437895Y0192896D01*
X0437895Y0192896D01*
X0438047Y0193122D01*
X0439307D01*
X0439307Y0197484D01*
X0441528Y0198157D01*
X0452633D01*
X0453590Y0195848D01*
X0442517Y0184775D01*
X0442041Y0184154D01*
X0441742Y0183432D01*
X0441640Y0182657D01*
Y0176474D01*
X0439390Y0175870D01*
Y0175870D01*
X0431878D01*
Y0175403D01*
X0426941D01*
X0426166Y0175302D01*
X0425444Y0175002D01*
X0424824Y0174527D01*
X0423096Y0172799D01*
X0419721D01*
Y0168352D01*
X0419695Y0168157D01*
X0419721Y0167963D01*
Y0163516D01*
X0425658D01*
Y0166892D01*
X0428181Y0169415D01*
X0431878D01*
Y0168949D01*
X0439390D01*
Y0169415D01*
X0442886D01*
X0443661Y0169517D01*
X0444383Y0169816D01*
X0445003Y0170292D01*
X0446751Y0172040D01*
X0447227Y0172660D01*
X0447526Y0173382D01*
X0447628Y0174157D01*
Y0181417D01*
X0461251Y0195040D01*
X0461727Y0195660D01*
X0462026Y0196382D01*
X0462128Y0197157D01*
Y0207705D01*
X0463087D01*
Y0215610D01*
X0461396D01*
X0460899Y0218110D01*
X0461127Y0218205D01*
X0461953Y0218838D01*
X0462587Y0219664D01*
X0462985Y0220626D01*
X0463121Y0221657D01*
X0462985Y0222689D01*
X0462587Y0223651D01*
X0461953Y0224477D01*
X0461127Y0225110D01*
X0460538Y0225354D01*
X0460340Y0226657D01*
X0460538Y0227961D01*
X0461127Y0228205D01*
X0461953Y0228838D01*
X0462587Y0229664D01*
X0462985Y0230626D01*
X0463121Y0231657D01*
X0462985Y0232689D01*
X0462587Y0233651D01*
X0461953Y0234477D01*
X0461127Y0235110D01*
X0460538Y0235354D01*
X0460340Y0236657D01*
X0460538Y0237961D01*
X0461127Y0238205D01*
X0461953Y0238838D01*
X0462587Y0239664D01*
X0462985Y0240626D01*
X0463121Y0241657D01*
X0462985Y0242689D01*
X0462587Y0243651D01*
X0461953Y0244477D01*
X0461127Y0245110D01*
X0460538Y0245354D01*
X0460340Y0246657D01*
X0460538Y0247961D01*
X0461127Y0248205D01*
X0461953Y0248838D01*
X0462587Y0249664D01*
X0462985Y0250626D01*
X0463121Y0251657D01*
X0462985Y0252689D01*
X0462587Y0253651D01*
X0461953Y0254477D01*
X0461127Y0255110D01*
X0460166Y0255508D01*
X0459134Y0255644D01*
X0458102Y0255508D01*
X0457893Y0255422D01*
X0454895Y0258419D01*
X0454317Y0258806D01*
X0453634Y0258942D01*
X0446022D01*
X0429815Y0267946D01*
Y0270831D01*
X0429384D01*
X0429282Y0271340D01*
X0428896Y0271919D01*
X0428896Y0271919D01*
X0427371Y0273444D01*
X0427253Y0274035D01*
X0426756Y0274780D01*
X0426012Y0275277D01*
X0425134Y0275451D01*
X0424256Y0275277D01*
X0423512Y0274780D01*
X0423014Y0274035D01*
X0422840Y0273158D01*
X0421859Y0271761D01*
X0419744Y0270831D01*
X0417461Y0271354D01*
X0416371Y0272444D01*
X0416358Y0272510D01*
X0416059Y0274886D01*
X0416059D01*
Y0280429D01*
X0416847Y0281401D01*
X0416846D01*
Y0287901D01*
X0416847Y0288913D01*
X0418730Y0290402D01*
X0423539D01*
Y0297913D01*
X0421961D01*
Y0301843D01*
X0422253Y0302279D01*
X0422428Y0303157D01*
X0422253Y0304035D01*
X0421756Y0304780D01*
X0421012Y0305277D01*
X0420134Y0305451D01*
X0419256Y0305277D01*
X0418512Y0304780D01*
X0418014Y0304035D01*
X0417840Y0303157D01*
X0418014Y0302279D01*
X0418393Y0301713D01*
Y0299265D01*
X0416453Y0297913D01*
X0414315Y0297913D01*
X0410165D01*
X0409728Y0297913D01*
Y0297913D01*
X0407890Y0297370D01*
X0407890Y0297370D01*
X0400378D01*
Y0293587D01*
X0397862D01*
Y0294083D01*
X0392319D01*
X0390936Y0296010D01*
X0390756Y0296280D01*
X0390012Y0296777D01*
X0389134Y0296952D01*
X0388256Y0296777D01*
X0387512Y0296280D01*
X0387014Y0295535D01*
X0386840Y0294657D01*
X0387014Y0293779D01*
X0387512Y0293035D01*
X0388256Y0292538D01*
X0388848Y0292420D01*
X0390451Y0290817D01*
X0390726Y0290541D01*
X0391245Y0289942D01*
X0391017Y0288714D01*
X0390982Y0288639D01*
X0388553Y0287749D01*
X0388512Y0287777D01*
X0387634Y0287951D01*
X0386841Y0287794D01*
X0386704Y0287778D01*
X0386347Y0287787D01*
X0384101Y0288308D01*
X0383956Y0288387D01*
X0383818Y0288496D01*
X0370918Y0301396D01*
Y0310657D01*
X0370918Y0310657D01*
X0370782Y0311340D01*
X0370395Y0311919D01*
X0370395Y0311919D01*
X0357929Y0324385D01*
Y0333501D01*
X0354780D01*
Y0333501D01*
X0335063D01*
Y0323627D01*
X0338413D01*
Y0318960D01*
X0329372Y0309919D01*
X0328985Y0309340D01*
X0328850Y0308657D01*
Y0280157D01*
X0328894Y0279932D01*
X0328840Y0279657D01*
X0329014Y0278780D01*
X0329512Y0278035D01*
X0330256Y0277538D01*
X0331134Y0277363D01*
X0332012Y0277538D01*
X0332756Y0278035D01*
X0332933Y0278300D01*
X0334928Y0278880D01*
X0335833Y0278935D01*
X0350850Y0263918D01*
Y0261037D01*
X0350514Y0260535D01*
X0350340Y0259657D01*
X0350514Y0258780D01*
X0351012Y0258035D01*
X0351756Y0257538D01*
X0352634Y0257363D01*
X0353512Y0257538D01*
X0354256Y0258035D01*
X0354753Y0258780D01*
X0354928Y0259657D01*
X0354753Y0260535D01*
X0355115Y0262168D01*
X0357713Y0263055D01*
X0370872Y0249896D01*
X0370872Y0249896D01*
X0371451Y0249509D01*
X0372134Y0249373D01*
X0372134Y0249373D01*
X0376085D01*
X0376134Y0249363D01*
X0377012Y0249538D01*
X0377756Y0250035D01*
X0378253Y0250780D01*
X0378428Y0251657D01*
X0378253Y0252535D01*
X0377756Y0253280D01*
X0377012Y0253777D01*
X0376528Y0253873D01*
X0376774Y0256373D01*
X0388280D01*
X0388962Y0256509D01*
X0389444Y0256831D01*
X0391807D01*
X0392461Y0255622D01*
X0393941D01*
X0394659Y0254166D01*
X0394846Y0253122D01*
X0390180Y0247176D01*
X0388598Y0245331D01*
X0386634Y0244952D01*
X0385756Y0244777D01*
X0385012Y0244280D01*
X0384514Y0243535D01*
X0384340Y0242657D01*
X0384514Y0241779D01*
X0385012Y0241035D01*
X0385756Y0240538D01*
X0386634Y0240363D01*
X0387471Y0240530D01*
X0388598Y0237662D01*
Y0234484D01*
X0388598D01*
Y0234331D01*
X0388598D01*
Y0228984D01*
X0392011D01*
X0396441Y0217720D01*
X0396309Y0217475D01*
X0395858Y0215988D01*
X0395706Y0214441D01*
X0395858Y0212894D01*
X0396309Y0211407D01*
X0397042Y0210036D01*
X0398028Y0208835D01*
X0399229Y0207849D01*
X0399551Y0207677D01*
X0398925Y0205177D01*
X0389945D01*
X0389230Y0205177D01*
X0387470Y0205396D01*
X0386820Y0205497D01*
X0385274Y0206113D01*
X0384500Y0206267D01*
X0384500Y0206267D01*
X0384163Y0206267D01*
X0313688D01*
Y0410882D01*
X0463141D01*
X0464948Y0410704D01*
D02*
G37*
%LPC*%
G36*
X0428434Y0327496D02*
X0427080Y0327363D01*
X0425778Y0326968D01*
X0424579Y0326327D01*
X0423527Y0325464D01*
X0422664Y0324412D01*
X0422023Y0323213D01*
X0421628Y0321911D01*
X0421495Y0320557D01*
X0421628Y0319204D01*
X0422023Y0317902D01*
X0422664Y0316702D01*
X0423527Y0315651D01*
X0424579Y0314788D01*
X0425778Y0314147D01*
X0427080Y0313752D01*
X0428434Y0313618D01*
X0429788Y0313752D01*
X0431089Y0314147D01*
X0432289Y0314788D01*
X0433340Y0315651D01*
X0434203Y0316702D01*
X0434845Y0317902D01*
X0435239Y0319204D01*
X0435373Y0320557D01*
X0435239Y0321911D01*
X0434845Y0323213D01*
X0434203Y0324412D01*
X0433340Y0325464D01*
X0432289Y0326327D01*
X0431089Y0326968D01*
X0429788Y0327363D01*
X0428434Y0327496D01*
D02*
G37*
G36*
X0459303Y0180676D02*
X0457757Y0180524D01*
X0456269Y0180072D01*
X0454899Y0179340D01*
X0453697Y0178354D01*
X0452711Y0177153D01*
X0451979Y0175782D01*
X0451528Y0174295D01*
X0451375Y0172748D01*
X0451528Y0171201D01*
X0451979Y0169714D01*
X0452711Y0168343D01*
X0453697Y0167142D01*
X0454899Y0166156D01*
X0456269Y0165424D01*
X0457757Y0164972D01*
X0459303Y0164820D01*
X0460850Y0164972D01*
X0462337Y0165424D01*
X0463708Y0166156D01*
X0464909Y0167142D01*
X0465895Y0168343D01*
X0466628Y0169714D01*
X0467079Y0171201D01*
X0467231Y0172748D01*
X0467079Y0174295D01*
X0466628Y0175782D01*
X0465895Y0177153D01*
X0464909Y0178354D01*
X0463708Y0179340D01*
X0462337Y0180072D01*
X0460850Y0180524D01*
X0459303Y0180676D01*
D02*
G37*
G36*
X0328386Y0348792D02*
X0327328Y0348652D01*
X0326343Y0348244D01*
X0325497Y0347595D01*
X0324847Y0346748D01*
X0324439Y0345763D01*
X0324300Y0344706D01*
X0324439Y0343648D01*
X0324847Y0342662D01*
X0325497Y0341816D01*
X0326343Y0341167D01*
X0327328Y0340759D01*
X0328386Y0340619D01*
X0329443Y0340759D01*
X0330429Y0341167D01*
X0331275Y0341816D01*
X0331925Y0342662D01*
X0332333Y0343648D01*
X0332472Y0344706D01*
X0332333Y0345763D01*
X0331925Y0346748D01*
X0331275Y0347595D01*
X0330429Y0348244D01*
X0329443Y0348652D01*
X0328386Y0348792D01*
D02*
G37*
G36*
X0428434Y0407733D02*
X0427080Y0407599D01*
X0425778Y0407204D01*
X0424579Y0406563D01*
X0423527Y0405700D01*
X0422664Y0404649D01*
X0422023Y0403449D01*
X0421628Y0402147D01*
X0421495Y0400794D01*
X0421628Y0399440D01*
X0422023Y0398138D01*
X0422664Y0396939D01*
X0423527Y0395887D01*
X0424579Y0395024D01*
X0425778Y0394383D01*
X0427080Y0393988D01*
X0428434Y0393855D01*
X0429788Y0393988D01*
X0431089Y0394383D01*
X0432289Y0395024D01*
X0433340Y0395887D01*
X0434203Y0396939D01*
X0434845Y0398138D01*
X0435239Y0399440D01*
X0435373Y0400794D01*
X0435239Y0402147D01*
X0434845Y0403449D01*
X0434203Y0404649D01*
X0433340Y0405700D01*
X0432289Y0406563D01*
X0431089Y0407204D01*
X0429788Y0407599D01*
X0428434Y0407733D01*
D02*
G37*
G36*
X0371818Y0398248D02*
Y0398236D01*
X0352821D01*
Y0398246D01*
X0350463Y0398092D01*
X0350387Y0398076D01*
X0348146Y0397631D01*
X0345909Y0396871D01*
X0343790Y0395826D01*
X0341825Y0394514D01*
X0340049Y0392956D01*
X0338491Y0391180D01*
X0337178Y0389215D01*
X0336134Y0387096D01*
X0335374Y0384859D01*
X0334928Y0382618D01*
X0334913Y0382542D01*
X0334759Y0380184D01*
X0334769D01*
Y0366501D01*
X0334541Y0366204D01*
X0334367Y0365784D01*
X0333488D01*
Y0355910D01*
X0340437D01*
X0340606Y0355910D01*
X0342937D01*
X0343137Y0355710D01*
Y0347697D01*
X0342512Y0347280D01*
X0342014Y0346535D01*
X0341840Y0345657D01*
X0342014Y0344779D01*
X0342512Y0344035D01*
X0343256Y0343538D01*
X0344134Y0343363D01*
X0345012Y0343538D01*
X0345122Y0343612D01*
X0347219Y0344422D01*
X0348256Y0344038D01*
X0349134Y0343863D01*
X0350012Y0344038D01*
X0350756Y0344535D01*
X0351253Y0345280D01*
X0351428Y0346157D01*
X0351253Y0347035D01*
X0350756Y0347780D01*
X0350012Y0348277D01*
X0349855Y0348308D01*
Y0353493D01*
X0352355Y0355910D01*
X0352555Y0355910D01*
X0359504D01*
Y0365784D01*
X0358625D01*
X0358452Y0366204D01*
X0358223Y0366501D01*
Y0375460D01*
X0358214Y0375504D01*
X0358353Y0376556D01*
X0358776Y0377577D01*
X0359449Y0378454D01*
X0360326Y0379127D01*
X0361347Y0379549D01*
X0362398Y0379688D01*
X0362442Y0379679D01*
X0374492D01*
X0374557Y0379692D01*
X0376158Y0379535D01*
X0377760Y0379048D01*
X0379237Y0378259D01*
X0380480Y0377239D01*
X0380517Y0377183D01*
X0408338Y0349362D01*
X0408365Y0349344D01*
X0408977Y0348875D01*
X0409719Y0348567D01*
X0410113Y0348516D01*
X0410646Y0348078D01*
X0411634Y0347550D01*
Y0346657D01*
X0411634Y0346357D01*
Y0344157D01*
X0411634Y0343857D01*
Y0339957D01*
Y0336757D01*
Y0333557D01*
X0427577D01*
X0428634Y0333557D01*
X0430756Y0333038D01*
X0431634Y0332863D01*
X0432512Y0333038D01*
X0433256Y0333535D01*
X0433753Y0334279D01*
X0434634Y0335363D01*
X0435512Y0335538D01*
X0436256Y0336035D01*
X0436753Y0336779D01*
X0436928Y0337657D01*
X0436753Y0338535D01*
X0436256Y0339280D01*
X0435512Y0339777D01*
X0434920Y0339895D01*
X0431496Y0343319D01*
X0430917Y0343706D01*
X0430234Y0343842D01*
X0428950D01*
X0428634Y0344158D01*
Y0346357D01*
X0428634Y0346657D01*
Y0349557D01*
Y0353457D01*
X0428634Y0353757D01*
Y0355957D01*
X0428950Y0356273D01*
X0437995D01*
X0443204Y0351064D01*
Y0299929D01*
X0442709D01*
Y0294386D01*
X0440421Y0293913D01*
Y0286402D01*
X0440421Y0286402D01*
X0439878Y0285063D01*
X0439878Y0285063D01*
X0439878Y0284127D01*
Y0280476D01*
X0439878Y0278339D01*
X0438526Y0276398D01*
X0436591D01*
X0436590Y0276398D01*
X0436496Y0276380D01*
X0436134Y0276451D01*
X0435256Y0276277D01*
X0434512Y0275780D01*
X0434014Y0275035D01*
X0433840Y0274157D01*
X0434014Y0273280D01*
X0434512Y0272535D01*
X0435256Y0272038D01*
X0436134Y0271863D01*
X0437012Y0272038D01*
X0437378Y0272283D01*
X0437759Y0272172D01*
X0439878Y0271252D01*
X0439878Y0271252D01*
X0439878Y0271252D01*
X0442365D01*
X0444000Y0269429D01*
Y0263886D01*
X0448559D01*
Y0268363D01*
X0449339Y0269791D01*
X0450656Y0270402D01*
X0456595D01*
Y0277913D01*
X0456595D01*
X0456890Y0278752D01*
X0458736Y0280330D01*
X0460319D01*
X0460756Y0280038D01*
X0461634Y0279863D01*
X0462512Y0280038D01*
X0463256Y0280535D01*
X0463753Y0281279D01*
X0463928Y0282157D01*
X0463753Y0283035D01*
X0463256Y0283780D01*
X0462512Y0284277D01*
X0461634Y0284452D01*
X0460756Y0284277D01*
X0460189Y0283898D01*
X0458241D01*
X0456890Y0285839D01*
X0456890Y0287976D01*
Y0292563D01*
X0454194D01*
X0452559Y0294386D01*
Y0299929D01*
X0452064D01*
Y0354512D01*
X0452064Y0354512D01*
X0451928Y0355195D01*
X0451541Y0355773D01*
X0444796Y0362519D01*
X0444217Y0362906D01*
X0443534Y0363042D01*
X0428950D01*
X0428634Y0363357D01*
Y0365557D01*
X0428634Y0365858D01*
Y0368757D01*
Y0372657D01*
X0428634Y0372957D01*
Y0375157D01*
X0428950Y0375473D01*
X0436105D01*
X0436756Y0375038D01*
X0437634Y0374863D01*
X0438512Y0375038D01*
X0439256Y0375535D01*
X0439753Y0376279D01*
X0439928Y0377157D01*
X0439753Y0378035D01*
X0439256Y0378780D01*
X0440081Y0381188D01*
X0440512Y0381538D01*
X0441256Y0382035D01*
X0441753Y0382780D01*
X0441851Y0383270D01*
X0443014Y0383951D01*
X0444347Y0384311D01*
X0444756Y0384038D01*
X0445634Y0383863D01*
X0446512Y0384038D01*
X0447256Y0384535D01*
X0447753Y0385279D01*
X0447928Y0386157D01*
X0447753Y0387035D01*
X0447256Y0387780D01*
X0446512Y0388277D01*
X0445725Y0388433D01*
X0445617Y0388506D01*
X0444934Y0388642D01*
X0428634D01*
Y0388957D01*
X0411634D01*
Y0384757D01*
Y0381557D01*
Y0378357D01*
Y0375458D01*
X0411634Y0375157D01*
Y0372957D01*
X0409300Y0372289D01*
X0408999Y0372414D01*
X0407006Y0373638D01*
X0405239Y0375406D01*
X0389898Y0390747D01*
X0389906Y0390756D01*
X0387767Y0392667D01*
X0385428Y0394327D01*
X0382917Y0395714D01*
X0380267Y0396812D01*
X0377510Y0397606D01*
X0374682Y0398087D01*
X0371818Y0398248D01*
D02*
G37*
G36*
X0403634Y0404240D02*
X0402252Y0404104D01*
X0400923Y0403701D01*
X0399699Y0403047D01*
X0398625Y0402166D01*
X0397745Y0401092D01*
X0397090Y0399868D01*
X0396687Y0398539D01*
X0396551Y0397157D01*
X0396687Y0395776D01*
X0397090Y0394447D01*
X0397745Y0393222D01*
X0398625Y0392149D01*
X0399699Y0391268D01*
X0400923Y0390614D01*
X0402252Y0390211D01*
X0403634Y0390075D01*
X0405016Y0390211D01*
X0406344Y0390614D01*
X0407569Y0391268D01*
X0408642Y0392149D01*
X0409523Y0393222D01*
X0410178Y0394447D01*
X0410581Y0395776D01*
X0410717Y0397157D01*
X0410581Y0398539D01*
X0410178Y0399868D01*
X0409523Y0401092D01*
X0408642Y0402166D01*
X0407569Y0403047D01*
X0406344Y0403701D01*
X0405016Y0404104D01*
X0403634Y0404240D01*
D02*
G37*
G36*
X0366280Y0348989D02*
X0365222Y0348849D01*
X0364236Y0348441D01*
X0363390Y0347792D01*
X0362741Y0346945D01*
X0362333Y0345960D01*
X0362193Y0344902D01*
X0362333Y0343845D01*
X0362741Y0342859D01*
X0363390Y0342013D01*
X0364236Y0341364D01*
X0365222Y0340955D01*
X0366280Y0340816D01*
X0367337Y0340955D01*
X0368323Y0341364D01*
X0369169Y0342013D01*
X0369818Y0342859D01*
X0370226Y0343845D01*
X0370366Y0344902D01*
X0370226Y0345960D01*
X0369818Y0346945D01*
X0369169Y0347792D01*
X0368323Y0348441D01*
X0367337Y0348849D01*
X0366280Y0348989D01*
D02*
G37*
G36*
X0459303Y0404492D02*
X0457872Y0404351D01*
X0456496Y0403934D01*
X0455228Y0403256D01*
X0454117Y0402344D01*
X0453205Y0401232D01*
X0452527Y0399964D01*
X0452109Y0398588D01*
X0451969Y0397157D01*
X0452109Y0395726D01*
X0452527Y0394351D01*
X0453205Y0393083D01*
X0454117Y0391971D01*
X0455228Y0391059D01*
X0456496Y0390381D01*
X0457872Y0389964D01*
X0459303Y0389823D01*
X0460734Y0389964D01*
X0462110Y0390381D01*
X0463378Y0391059D01*
X0464489Y0391971D01*
X0465402Y0393083D01*
X0466079Y0394351D01*
X0466497Y0395726D01*
X0466638Y0397157D01*
X0466497Y0398588D01*
X0466079Y0399964D01*
X0465402Y0401232D01*
X0464489Y0402344D01*
X0463378Y0403256D01*
X0462110Y0403934D01*
X0460734Y0404351D01*
X0459303Y0404492D01*
D02*
G37*
%LPD*%
G36*
X0374627Y0393524D02*
X0377297Y0392993D01*
X0379875Y0392118D01*
X0382316Y0390914D01*
X0384580Y0389401D01*
X0386561Y0387664D01*
X0386610Y0387590D01*
X0403784Y0370416D01*
X0403771Y0370403D01*
X0405242Y0369196D01*
X0405682Y0368961D01*
X0406920Y0368300D01*
X0408741Y0367747D01*
X0410238Y0367600D01*
X0410686Y0367232D01*
X0411634Y0366726D01*
Y0365858D01*
X0411634Y0365557D01*
Y0363357D01*
X0411634Y0363057D01*
Y0359157D01*
Y0356258D01*
X0411634Y0356047D01*
X0409934Y0354464D01*
X0409501Y0354644D01*
X0383740Y0380405D01*
X0383748Y0380414D01*
X0382186Y0381748D01*
X0381875Y0381939D01*
X0380435Y0382821D01*
X0378537Y0383607D01*
X0376895Y0384001D01*
X0376539Y0384087D01*
X0374492Y0384248D01*
Y0384236D01*
X0362471D01*
X0362471Y0384250D01*
X0360751Y0384081D01*
X0360115Y0383888D01*
X0360115Y0383888D01*
X0360115Y0383888D01*
X0359096Y0383579D01*
X0357572Y0382764D01*
X0356235Y0381667D01*
X0355706Y0381024D01*
X0355654Y0380989D01*
X0355554Y0380840D01*
X0355139Y0380331D01*
X0354324Y0378806D01*
X0354015Y0377787D01*
X0354015Y0377787D01*
X0354015Y0377787D01*
X0353822Y0377152D01*
X0353652Y0375431D01*
X0353666D01*
Y0368118D01*
X0353365Y0367484D01*
X0351464Y0365784D01*
X0350055Y0365784D01*
X0349886Y0365784D01*
X0343106D01*
X0342937Y0365784D01*
X0340606D01*
X0339326Y0367824D01*
Y0380288D01*
X0339312Y0380359D01*
X0339471Y0382386D01*
X0339962Y0384432D01*
X0340768Y0386376D01*
X0341867Y0388171D01*
X0343234Y0389771D01*
X0344834Y0391138D01*
X0346629Y0392237D01*
X0348573Y0393042D01*
X0350619Y0393534D01*
X0352646Y0393693D01*
X0352717Y0393679D01*
X0371911D01*
X0371997Y0393696D01*
X0374627Y0393524D01*
D02*
G37*
D10*
X0357520Y0364139D02*
G03*
X0356745Y0366009I-0002645J0000000D01*
G01*
X0362442Y0381157D02*
G03*
X0356745Y0375460I0000000J-0005697D01*
G01*
X0410703Y0349939D02*
G03*
X0414279Y0348457I0003576J0003576D01*
G01*
X0381563Y0378228D02*
G03*
X0374492Y0381157I-0007071J-0007071D01*
G01*
X0409384Y0350407D02*
G03*
X0410515Y0349939I0001131J0001131D01*
G01*
X0338622Y0364139D02*
G03*
X0337847Y0366009I-0002645J0000000D01*
G01*
X0352717Y0395157D02*
G03*
X0337847Y0380288I0000000J-0014870D01*
G01*
X0410784Y0369057D02*
G03*
X0414164Y0367657I0003380J0003380D01*
G01*
X0387656Y0388636D02*
G03*
X0371911Y0395157I-0015745J-0015745D01*
G01*
X0404830Y0371462D02*
G03*
X0410634Y0369057I0005804J0005804D01*
G01*
X0336247Y0366009D02*
G03*
X0335472Y0364139I0001870J-0001870D01*
G01*
X0352821Y0396757D02*
G03*
X0336247Y0380184I0000000J-0016573D01*
G01*
X0405961Y0372593D02*
G03*
X0410634Y0370657I0004673J0004673D01*
G01*
X0388852Y0389702D02*
G03*
X0371818Y0396757I-0017034J-0017034D01*
G01*
X0411701Y0370657D02*
G03*
X0412184Y0370857I0000000J0000683D01*
G01*
X0355145Y0366009D02*
G03*
X0354370Y0364139I0001870J-0001870D01*
G01*
X0356700Y0379944D02*
G03*
X0355145Y0375431I0005771J-0004513D01*
G01*
X0362471Y0382757D02*
G03*
X0356700Y0379944I0000000J-0007326D01*
G01*
X0382694Y0379360D02*
G03*
X0374492Y0382757I-0008202J-0008202D01*
G01*
X0411897Y0351539D02*
G03*
X0412184Y0351657I0000000J0000405D01*
G01*
X0357520Y0360847D02*
Y0364139D01*
X0356745Y0366009D02*
Y0375460D01*
X0362442Y0381157D02*
X0374492D01*
X0414279Y0348457D02*
X0420134D01*
X0381563Y0378228D02*
X0409384Y0350407D01*
X0410515Y0349939D02*
X0410703D01*
X0338622Y0360847D02*
Y0364139D01*
X0337847Y0366009D02*
Y0380288D01*
X0352717Y0395157D02*
X0371911D01*
X0414164Y0367657D02*
X0420134D01*
X0387656Y0388636D02*
X0404830Y0371462D01*
X0410634Y0369057D02*
X0410784D01*
X0335472Y0360847D02*
Y0364139D01*
X0336247Y0366009D02*
Y0380184D01*
X0352821Y0396757D02*
X0371818D01*
X0410634Y0370657D02*
X0411701D01*
X0388852Y0389702D02*
X0405961Y0372593D01*
X0412184Y0370857D02*
X0420134D01*
X0354370Y0360847D02*
Y0364139D01*
X0355145Y0366009D02*
Y0375431D01*
X0382694Y0379360D02*
X0410515Y0351539D01*
X0411897D01*
X0362471Y0382757D02*
X0374492D01*
X0412184Y0351657D02*
X0420134D01*
D11*
X0404579Y0168157D02*
D03*
X0413634D02*
D03*
X0422689D02*
D03*
D12*
X0413634Y0193157D02*
D03*
D13*
X0360669Y0360847D02*
D03*
X0357520Y0360847D02*
D03*
X0354370D02*
D03*
X0351220Y0360847D02*
D03*
X0348071D02*
D03*
X0344921D02*
D03*
X0341772D02*
D03*
X0332323D02*
D03*
X0333898Y0328564D02*
D03*
X0337047D02*
D03*
X0340197D02*
D03*
X0343347D02*
D03*
X0346496D02*
D03*
X0349646D02*
D03*
X0352795D02*
D03*
X0355945Y0328564D02*
D03*
X0359095D02*
D03*
X0362244Y0328564D02*
D03*
X0338622Y0360847D02*
D03*
X0335472D02*
D03*
D14*
X0427488Y0262657D02*
D03*
X0421779D02*
D03*
X0411279D02*
D03*
X0416988D02*
D03*
X0396488Y0248157D02*
D03*
X0390779D02*
D03*
X0403279Y0242657D02*
D03*
X0408988D02*
D03*
X0390779Y0237157D02*
D03*
X0396488D02*
D03*
X0421925Y0268157D02*
D03*
X0427634D02*
D03*
X0416988D02*
D03*
X0411279D02*
D03*
X0390779Y0242657D02*
D03*
X0396488D02*
D03*
Y0226157D02*
D03*
X0390779D02*
D03*
X0425988Y0232657D02*
D03*
X0420280D02*
D03*
X0401279Y0258157D02*
D03*
X0406988D02*
D03*
X0394634Y0269657D02*
D03*
X0400343D02*
D03*
X0430780Y0232657D02*
D03*
X0436488D02*
D03*
X0390779Y0231657D02*
D03*
X0396488D02*
D03*
X0420280Y0227157D02*
D03*
X0425988D02*
D03*
D15*
X0442134Y0201012D02*
D03*
Y0195303D02*
D03*
X0425634Y0201803D02*
D03*
Y0207512D02*
D03*
X0431134Y0201803D02*
D03*
Y0207512D02*
D03*
X0436634Y0195303D02*
D03*
Y0201012D02*
D03*
X0389134Y0259012D02*
D03*
Y0253303D02*
D03*
Y0274803D02*
D03*
Y0280512D02*
D03*
X0402634Y0231657D02*
D03*
Y0225949D02*
D03*
X0395134Y0263512D02*
D03*
Y0257803D02*
D03*
X0389134Y0264303D02*
D03*
Y0270012D02*
D03*
D16*
X0413091Y0294158D02*
D03*
X0420177D02*
D03*
D17*
X0404134Y0285701D02*
D03*
Y0278614D02*
D03*
X0443634Y0281701D02*
D03*
Y0274614D02*
D03*
X0453134Y0289201D02*
D03*
Y0282114D02*
D03*
D18*
X0413779Y0277657D02*
D03*
X0419488D02*
D03*
X0446279Y0266657D02*
D03*
X0451988D02*
D03*
X0444988Y0297157D02*
D03*
X0439280D02*
D03*
X0450280D02*
D03*
X0455988D02*
D03*
D19*
X0395091Y0291803D02*
D03*
Y0297512D02*
D03*
Y0287012D02*
D03*
Y0281303D02*
D03*
D20*
X0413386Y0285157D02*
D03*
X0419882D02*
D03*
X0453134Y0274157D02*
D03*
X0459630D02*
D03*
X0443882Y0290157D02*
D03*
X0437386D02*
D03*
D21*
X0404134Y0293909D02*
D03*
Y0300406D02*
D03*
X0393134Y0182405D02*
D03*
Y0175909D02*
D03*
X0435634Y0172409D02*
D03*
Y0178905D02*
D03*
D22*
X0420134Y0367657D02*
D03*
Y0370857D02*
D03*
Y0383657D02*
D03*
Y0386857D02*
D03*
Y0380457D02*
D03*
Y0377257D02*
D03*
Y0335657D02*
D03*
Y0342057D02*
D03*
Y0345257D02*
D03*
Y0354857D02*
D03*
Y0358057D02*
D03*
Y0364457D02*
D03*
Y0374057D02*
D03*
Y0348457D02*
D03*
Y0351657D02*
D03*
Y0361257D02*
D03*
Y0338857D02*
D03*
D23*
X0396488Y0231657D02*
X0402634D01*
X0396488Y0226157D02*
Y0231657D01*
X0390779D02*
Y0237157D01*
X0385134Y0224157D02*
X0387134Y0226157D01*
X0390779D01*
X0334634Y0282657D02*
X0352634Y0264657D01*
Y0259657D02*
Y0264657D01*
X0428134Y0242657D02*
X0448134D01*
X0408988D02*
X0428134D01*
X0448134D02*
X0449134Y0241657D01*
X0454134Y0246657D02*
X0459134Y0241657D01*
X0401134Y0247157D02*
X0403279Y0245012D01*
Y0242657D02*
Y0245012D01*
X0396488Y0237157D02*
X0399634D01*
X0390779D02*
Y0242657D01*
X0397134Y0248157D02*
X0401134Y0252157D01*
X0396488Y0248157D02*
X0397134D01*
X0396488Y0242657D02*
Y0248157D01*
X0386634Y0242657D02*
X0390779D01*
X0389134Y0253303D02*
X0390779Y0251657D01*
Y0248157D02*
Y0251657D01*
X0444934Y0386857D02*
X0445634Y0386157D01*
X0420134Y0386857D02*
X0444934D01*
X0437134Y0380657D02*
Y0381157D01*
X0420134Y0380457D02*
X0436434D01*
X0437534Y0377257D02*
X0437634Y0377157D01*
X0420134Y0377257D02*
X0437534D01*
X0430234Y0342057D02*
X0434634Y0337657D01*
X0431634Y0335157D02*
Y0336657D01*
X0429434Y0338857D02*
X0431634Y0336657D01*
X0437634Y0246657D02*
X0454134D01*
X0433134Y0251157D02*
X0437634Y0246657D01*
X0416134Y0251157D02*
X0433134D01*
X0399279Y0263512D02*
X0399634Y0263157D01*
X0395134Y0263512D02*
X0399279D01*
X0419134Y0257657D02*
X0421779Y0260303D01*
Y0262657D01*
X0453634Y0257157D02*
X0459134Y0251657D01*
X0443134Y0257157D02*
X0453634D01*
X0440634Y0254657D02*
X0443134Y0257157D01*
X0410488Y0254657D02*
X0440634D01*
X0406988Y0258157D02*
X0410488Y0254657D01*
X0400343Y0266449D02*
X0403634Y0263157D01*
X0400343Y0266449D02*
Y0269657D01*
X0444091Y0274157D02*
X0446279Y0271969D01*
Y0266657D02*
Y0271969D01*
X0394988Y0253303D02*
X0395134Y0253157D01*
X0389134Y0253303D02*
X0394988D01*
X0395134Y0257803D02*
X0400925D01*
X0389134Y0264303D02*
X0389925Y0263512D01*
X0395134D01*
X0400925Y0257803D02*
X0401279Y0258157D01*
X0393925Y0259012D02*
X0395134Y0257803D01*
X0389134Y0259012D02*
X0393925D01*
X0388280Y0258157D02*
X0389134Y0259012D01*
X0370134Y0258157D02*
X0388280D01*
X0351634Y0276657D02*
X0370134Y0258157D01*
X0348134Y0275157D02*
X0372134Y0251157D01*
X0330634Y0280157D02*
X0331134Y0279657D01*
X0425134Y0273157D02*
X0427634Y0270657D01*
Y0268157D02*
Y0270657D01*
X0427488Y0268012D02*
X0427634Y0268157D01*
X0427488Y0262657D02*
Y0268012D01*
X0416988Y0262657D02*
X0421779D01*
X0416988Y0268157D02*
X0421925D01*
X0414134Y0272157D02*
X0416988Y0269303D01*
X0410280Y0269157D02*
X0411279Y0268157D01*
X0407134Y0269157D02*
X0410280D01*
X0411279Y0262657D02*
Y0268157D01*
X0362634Y0272657D02*
X0378134D01*
X0389134Y0270012D02*
X0389488Y0269657D01*
X0394634D01*
X0389134Y0270012D02*
Y0274803D01*
X0388988Y0274657D02*
X0389134Y0274803D01*
X0386134Y0274657D02*
X0388988D01*
X0382634Y0278157D02*
X0386134Y0274657D01*
X0382634Y0278157D02*
Y0287157D01*
X0369134Y0300657D02*
X0382634Y0287157D01*
X0355945Y0323846D02*
Y0328564D01*
X0355634Y0279657D02*
X0362634Y0272657D01*
X0355634Y0279657D02*
Y0319657D01*
X0352795Y0322496D02*
X0355634Y0319657D01*
X0352795Y0322496D02*
Y0328564D01*
X0351634Y0276657D02*
Y0318157D01*
X0349646Y0320146D02*
X0351634Y0318157D01*
X0349646Y0320146D02*
Y0328564D01*
X0348134Y0275157D02*
Y0316157D01*
X0346496Y0317795D02*
X0348134Y0316157D01*
X0346496Y0317795D02*
Y0328564D01*
X0334634Y0282657D02*
Y0308157D01*
X0343347Y0316870D01*
Y0328564D01*
X0330634Y0280157D02*
Y0308657D01*
X0340197Y0318220D01*
Y0328564D01*
X0395634Y0163657D02*
X0400134Y0168157D01*
X0404579D01*
X0393134Y0168657D02*
Y0175909D01*
X0436134Y0274157D02*
X0436590Y0274614D01*
X0443634D01*
X0444091Y0274157D01*
X0453134D01*
X0451988Y0266657D02*
X0457634D01*
X0459630Y0274157D02*
X0466134D01*
X0461590Y0282114D02*
X0461634Y0282157D01*
X0453134Y0282114D02*
X0461590D01*
X0453134Y0274157D02*
X0453134Y0274158D01*
Y0282114D01*
X0450280Y0292055D02*
X0453134Y0289201D01*
X0450280Y0292055D02*
Y0297157D01*
X0443634Y0281701D02*
X0443882Y0281949D01*
Y0290157D01*
X0444988Y0291264D01*
Y0297157D01*
Y0351803D01*
X0438734Y0358057D02*
X0444988Y0351803D01*
X0420134Y0358057D02*
X0438734D01*
X0450280Y0297157D02*
Y0354512D01*
X0443534Y0361257D02*
X0450280Y0354512D01*
X0420134Y0361257D02*
X0443534D01*
X0412843Y0293909D02*
X0413091Y0294158D01*
X0404134Y0293909D02*
X0412843D01*
X0419488Y0277657D02*
X0424634D01*
X0419882Y0285157D02*
X0426134D01*
X0420134Y0303157D02*
X0420177Y0303114D01*
Y0294158D02*
Y0303114D01*
X0413779Y0272512D02*
X0414134Y0272157D01*
X0413779Y0272512D02*
Y0277657D01*
X0413386Y0278051D02*
X0413779Y0277657D01*
X0413386Y0278051D02*
Y0285157D01*
X0406843Y0278614D02*
X0413386Y0285157D01*
X0404134Y0278614D02*
X0406843D01*
X0395091Y0275701D02*
X0395134Y0275657D01*
X0395091Y0275701D02*
Y0281303D01*
X0404134Y0300406D02*
Y0307157D01*
X0399382Y0300406D02*
X0404134D01*
X0396488Y0297512D02*
X0399382Y0300406D01*
X0395091Y0297512D02*
X0396488D01*
X0402823Y0287012D02*
X0404134Y0285701D01*
X0395091Y0287012D02*
X0402823D01*
X0402028Y0291803D02*
X0404134Y0293909D01*
X0395091Y0291803D02*
X0402028D01*
X0391988D02*
X0395091D01*
X0389134Y0294657D02*
X0391988Y0291803D01*
X0393736Y0285657D02*
X0395091Y0287012D01*
X0387634Y0285657D02*
X0393736D01*
X0344134Y0345657D02*
X0344921Y0346445D01*
Y0360847D01*
X0348634Y0346157D02*
X0349134D01*
X0348071Y0346720D02*
X0348634Y0346157D01*
X0348071Y0346720D02*
Y0360847D01*
X0402634Y0231657D02*
X0413134D01*
X0402634Y0225949D02*
X0414425D01*
X0425988Y0227157D02*
Y0232657D01*
X0430780D01*
X0414425Y0225949D02*
X0416634Y0228157D01*
X0436488Y0232657D02*
X0437134D01*
X0443134Y0226657D01*
X0454134D01*
X0459134Y0231657D01*
X0435634Y0178905D02*
Y0185157D01*
X0436634Y0194157D02*
Y0195303D01*
X0433134Y0190657D02*
X0436634Y0194157D01*
X0442134Y0193657D02*
Y0195303D01*
X0439134Y0190657D02*
X0442134Y0193657D01*
X0436634Y0201012D02*
X0439634Y0204012D01*
Y0203512D02*
X0442134Y0201012D01*
X0439634Y0203512D02*
Y0204012D01*
Y0205157D01*
X0399634Y0237157D02*
X0401134Y0238657D01*
X0442134D01*
X0449134Y0231657D01*
X0418634Y0232657D02*
X0420280D01*
X0415634Y0235657D02*
X0418634Y0232657D01*
X0409134Y0235657D02*
X0415634D01*
X0431134Y0207512D02*
X0435280Y0211657D01*
X0449134D01*
X0425634Y0207512D02*
Y0209157D01*
Y0194157D02*
Y0201803D01*
X0425134Y0193657D02*
X0425634Y0194157D01*
X0431134Y0195157D02*
Y0201803D01*
X0429634Y0193657D02*
X0431134Y0195157D01*
X0425988Y0217012D02*
Y0227157D01*
X0419634Y0210657D02*
X0425988Y0217012D01*
X0419634Y0205657D02*
Y0210657D01*
X0420280Y0216803D02*
Y0227157D01*
X0415134Y0211657D02*
X0420280Y0216803D01*
X0415134Y0201657D02*
Y0211657D01*
X0420134Y0342057D02*
X0430234D01*
X0420134Y0338857D02*
X0429434D01*
X0420134Y0383657D02*
X0439634D01*
X0420134Y0345257D02*
X0431234D01*
X0431634Y0345657D01*
X0420134Y0364457D02*
X0432934D01*
X0433134Y0364657D01*
X0409434Y0364457D02*
X0420134D01*
X0409134Y0364157D02*
X0409434Y0364457D01*
X0410934Y0354857D02*
X0420134D01*
X0409634Y0356157D02*
X0410934Y0354857D01*
X0420134D02*
X0430334D01*
X0430634Y0355157D01*
X0420134Y0374057D02*
X0430734D01*
X0431134Y0373657D01*
X0409734Y0374057D02*
X0420134D01*
X0409634Y0374157D02*
X0409734Y0374057D01*
X0351220Y0360847D02*
Y0367571D01*
X0351134Y0367657D02*
X0351220Y0367571D01*
X0341772Y0360847D02*
Y0367020D01*
X0341134Y0367657D02*
X0341772Y0367020D01*
Y0355405D02*
Y0360847D01*
X0339768Y0353401D02*
X0341772Y0355405D01*
X0351220Y0353071D02*
Y0360847D01*
Y0353071D02*
X0355274D01*
X0355618Y0353415D01*
X0436434Y0380457D02*
X0437134Y0381157D01*
X0369134Y0300657D02*
Y0310657D01*
X0355945Y0323846D02*
X0369134Y0310657D01*
X0425634Y0209157D02*
X0438134Y0221657D01*
X0449134D01*
X0372134Y0251157D02*
X0376134D01*
D24*
X0416988Y0268157D02*
Y0269303D01*
D25*
X0400634Y0193157D02*
X0413634D01*
X0397134D02*
X0400634D01*
X0395634Y0191657D02*
X0397134Y0193157D01*
X0393134Y0189157D02*
X0395634Y0191657D01*
X0393134Y0188157D02*
Y0189157D01*
Y0182405D02*
Y0188157D01*
X0413634Y0168157D02*
Y0193157D01*
X0422689Y0168157D02*
X0426941Y0172409D01*
X0435634D01*
X0442886D01*
X0444634Y0174157D01*
Y0182657D01*
X0459134Y0197157D01*
Y0211657D01*
D26*
X0396384Y0195407D02*
D03*
D27*
X0403634Y0397157D02*
D03*
D28*
Y0214441D02*
D03*
X0459303Y0172748D02*
D03*
D29*
Y0397157D02*
D03*
D30*
X0347131Y0369457D02*
D03*
X0366034D02*
D03*
X0374941Y0223249D02*
D03*
X0328234Y0369457D02*
D03*
D31*
X0319134Y0351257D02*
D03*
X0375234Y0361157D02*
D03*
Y0351257D02*
D03*
Y0331657D02*
D03*
Y0321757D02*
D03*
X0352934Y0223257D02*
D03*
X0375234Y0242957D02*
D03*
Y0282357D02*
D03*
X0362734Y0302057D02*
D03*
X0341534D02*
D03*
X0319134Y0223257D02*
D03*
Y0313157D02*
D03*
Y0331657D02*
D03*
Y0262657D02*
D03*
Y0302057D02*
D03*
Y0341457D02*
D03*
X0375234Y0311915D02*
D03*
D32*
X0366280Y0344902D02*
D03*
X0328386Y0344706D02*
D03*
D33*
X0449134Y0251657D02*
D03*
Y0241657D02*
D03*
Y0231657D02*
D03*
Y0221657D02*
D03*
Y0211657D02*
D03*
X0459134Y0251657D02*
D03*
Y0241657D02*
D03*
Y0231657D02*
D03*
Y0221657D02*
D03*
D34*
Y0211657D02*
D03*
D35*
X0428434Y0320557D02*
D03*
Y0400794D02*
D03*
D36*
X0385134Y0224157D02*
D03*
X0376134Y0251657D02*
D03*
X0352634Y0259657D02*
D03*
X0428134Y0242657D02*
D03*
X0401134Y0247157D02*
D03*
X0399634Y0237157D02*
D03*
X0401134Y0252157D02*
D03*
X0386634Y0242657D02*
D03*
X0445634Y0386157D02*
D03*
X0439634Y0383657D02*
D03*
X0437134Y0380657D02*
D03*
X0437634Y0377157D02*
D03*
X0431634Y0335157D02*
D03*
X0416134Y0251157D02*
D03*
X0399634Y0263157D02*
D03*
X0419134Y0257657D02*
D03*
X0403634Y0263157D02*
D03*
X0395134Y0253157D02*
D03*
X0331134Y0279657D02*
D03*
X0425134Y0273157D02*
D03*
X0407134Y0269157D02*
D03*
X0378134Y0272657D02*
D03*
X0389634Y0202157D02*
D03*
X0393634D02*
D03*
X0397634D02*
D03*
Y0197657D02*
D03*
X0393634D02*
D03*
X0389634D02*
D03*
Y0193657D02*
D03*
X0400634Y0193157D02*
D03*
X0395634Y0191657D02*
D03*
X0393134Y0188157D02*
D03*
X0395634Y0163657D02*
D03*
X0393134Y0168657D02*
D03*
X0436134Y0274157D02*
D03*
X0457634Y0266657D02*
D03*
X0466134Y0274157D02*
D03*
X0461634Y0282157D02*
D03*
X0424634Y0277657D02*
D03*
X0426134Y0285157D02*
D03*
X0420134Y0303157D02*
D03*
X0414134Y0272157D02*
D03*
X0395134Y0275657D02*
D03*
X0404134Y0307157D02*
D03*
X0389134Y0294657D02*
D03*
X0387634Y0285657D02*
D03*
X0344134Y0345657D02*
D03*
X0349134Y0346157D02*
D03*
X0413134Y0231657D02*
D03*
X0416634Y0228157D02*
D03*
X0435634Y0185157D02*
D03*
X0433134Y0190657D02*
D03*
X0439134D02*
D03*
X0439634Y0205157D02*
D03*
X0409134Y0235657D02*
D03*
X0424634Y0193657D02*
D03*
X0429634D02*
D03*
X0419634Y0205657D02*
D03*
X0415134Y0201657D02*
D03*
X0434634Y0337657D02*
D03*
D37*
X0371917Y0400763D02*
D03*
X0377881Y0400109D02*
D03*
X0388710Y0395100D02*
D03*
X0393160Y0391075D02*
D03*
X0397403Y0386832D02*
D03*
X0401646Y0382590D02*
D03*
X0405888Y0378347D02*
D03*
X0397275Y0373335D02*
D03*
X0393033Y0377577D02*
D03*
X0388790Y0381820D02*
D03*
X0384548Y0386064D02*
D03*
X0379588Y0389438D02*
D03*
X0373806Y0391042D02*
D03*
X0367807Y0391140D02*
D03*
X0349820Y0390740D02*
D03*
X0344707Y0387600D02*
D03*
X0342035Y0382227D02*
D03*
X0341865Y0376230D02*
D03*
X0339768Y0353401D02*
D03*
X0333768Y0353475D02*
D03*
X0332230Y0376640D02*
D03*
X0332384Y0382638D02*
D03*
X0333967Y0388425D02*
D03*
X0337163Y0393503D02*
D03*
X0341676Y0397457D02*
D03*
X0353074Y0400775D02*
D03*
X0359074D02*
D03*
X0365074D02*
D03*
X0355807Y0391140D02*
D03*
X0347130Y0399958D02*
D03*
X0361807Y0391140D02*
D03*
X0383564Y0398185D02*
D03*
X0406519Y0365777D02*
D03*
X0401518Y0369092D02*
D03*
X0431156Y0369697D02*
D03*
X0431160Y0350528D02*
D03*
X0406936Y0347236D02*
D03*
X0402663Y0351447D02*
D03*
X0398420Y0355690D02*
D03*
X0394177Y0359933D02*
D03*
X0389935Y0364175D02*
D03*
X0385692Y0368418D02*
D03*
X0381449Y0372661D02*
D03*
X0376940Y0376618D02*
D03*
X0370962Y0377140D02*
D03*
X0364962D02*
D03*
X0360762Y0372855D02*
D03*
X0355618Y0353415D02*
D03*
X0351917Y0379541D02*
D03*
X0355511Y0384346D02*
D03*
M02*
