M48
;Layer_Color=9474304
;FILE_FORMAT=2:5
INCH
;TYPE=PLATED
T1F00S00C0.01496
T2F00S00C0.01500
T3F00S00C0.02800
T4F00S00C0.03543
T5F00S00C0.04134
T6F00S00C0.04200
T7F00S00C0.06102
T8F00S00C0.07874
T9F00S00C0.12097
T10F00S00C0.12598
T11F00S00C0.13780
%
T01
X0395634Y0163657
X0393134Y0168657
X0415134Y0201657
X0419634Y0205657
X0439634Y0205157
X0439134Y0190657
X0433134
X0416634Y0228157
X0413134Y0231657
X0409134Y0235657
X0399634Y0237157
X0401134Y0247157
Y0252157
X0395134Y0253157
X0399634Y0263157
X0403634
X0407134Y0269157
X0414134Y0272157
X0425134Y0273157
X0424634Y0277657
X0426134Y0285157
X0436134Y0274157
X0457634Y0266657
X0466134Y0274157
X0461634Y0282157
X0420134Y0303157
X0404134Y0307157
X0389134Y0294657
X0387634Y0285657
X0395134Y0275657
X0378134Y0272657
X0376134Y0251657
X0386634Y0242657
X0385134Y0224157
X0416134Y0251157
X0419134Y0257657
X0428134Y0242657
X0352634Y0259657
X0331134Y0279657
X0344134Y0345657
X0349134Y0346157
X0431634Y0335157
X0434634Y0337657
X0437634Y0377157
X0437134Y0380657
X0439634Y0383657
X0445634Y0386157
T02
X0393134Y0188157
X0395634Y0191657
X0400634Y0193157
X0397634Y0197657
X0393634
X0389634
Y0193657
Y0202157
X0393634
X0397634
X0424634Y0193657
X0429634
X0435634Y0185157
T03
X0333768Y0353475
X0339768Y0353401
X0355618Y0353415
X0360762Y0372855
X0364962Y0377140
X0370962
X0376940Y0376618
X0381449Y0372661
X0385692Y0368418
X0389935Y0364175
X0394177Y0359933
X0398420Y0355690
X0402663Y0351447
X0406936Y0347236
X0406519Y0365777
X0401518Y0369092
X0397275Y0373335
X0393033Y0377577
X0388790Y0381820
X0384548Y0386064
X0379588Y0389438
X0373806Y0391042
X0367807Y0391140
X0361807
X0355807
X0349820Y0390740
X0344707Y0387600
X0342035Y0382227
X0341865Y0376230
X0332230Y0376640
X0332384Y0382638
X0333967Y0388425
X0337163Y0393503
X0341676Y0397457
X0347130Y0399958
X0353074Y0400775
X0359074
X0365074
X0371917Y0400763
X0377881Y0400109
X0383564Y0398185
X0388710Y0395100
X0393160Y0391075
X0397403Y0386832
X0401646Y0382590
X0405888Y0378347
X0431156Y0369697
X0431160Y0350528
X0351917Y0379541
X0355511Y0384346
T04
X0449134Y0211657
Y0221657
Y0231657
Y0241657
Y0251657
X0459134
Y0241657
Y0231657
Y0221657
Y0211657
T05
X0319134Y0223257
X0352934
X0375234Y0242957
Y0282357
Y0311915
X0362734Y0302057
X0341534
X0319134
Y0262657
Y0313157
Y0331657
Y0341457
Y0351257
X0375234
Y0361157
Y0331657
Y0321757
T06
X0374941Y0223249
X0366034Y0369457
X0347131
X0328234
T07
X0328386Y0344706
X0366280Y0344902
T08
X0428434Y0320557
Y0400794
T09
X0403634Y0397157
T10
X0459303Y0397157
T11
X0403634Y0214441
X0459303Y0172748
M30
