G04 Layer_Physical_Order=2*
G04 Layer_Color=32768*
%FSAX25Y25*%
%MOIN*%
G70*
G01*
G75*
%ADD38C,0.04000*%
%ADD39C,0.16097*%
%ADD40C,0.17779*%
%ADD41C,0.16598*%
%ADD42C,0.10102*%
%ADD43C,0.07543*%
%ADD44C,0.11874*%
%ADD45C,0.05496*%
%ADD46C,0.05500*%
D38*
X0463240Y0412906D02*
X0465544Y0412679D01*
X0467760Y0412006D01*
X0469802Y0410915D01*
X0471592Y0409446D01*
X0473061Y0407656D01*
X0474152Y0405614D01*
X0474824Y0403399D01*
X0475051Y0401094D01*
Y0168811D02*
Y0401094D01*
X0474824Y0166507D02*
X0475051Y0168811D01*
X0474152Y0164291D02*
X0474824Y0166507D01*
X0473061Y0162249D02*
X0474152Y0164291D01*
X0471592Y0160459D02*
X0473061Y0162249D01*
X0469802Y0158991D02*
X0471592Y0160459D01*
X0467760Y0157899D02*
X0469802Y0158991D01*
X0465544Y0157227D02*
X0467760Y0157899D01*
X0463240Y0157000D02*
X0465544Y0157227D01*
X0384500Y0157000D02*
X0463240D01*
X0384500D02*
Y0204244D01*
X0311665D02*
X0384500D01*
X0311665D02*
Y0412906D01*
X0463240D01*
D39*
X0403634Y0397157D02*
D03*
D40*
Y0214441D02*
D03*
X0459303Y0172748D02*
D03*
D41*
Y0397157D02*
D03*
D42*
X0366280Y0344902D02*
D03*
X0328386Y0344706D02*
D03*
D43*
X0449134Y0241657D02*
D03*
Y0231657D02*
D03*
Y0221657D02*
D03*
Y0211657D02*
D03*
X0459134Y0251657D02*
D03*
Y0241657D02*
D03*
Y0231657D02*
D03*
Y0221657D02*
D03*
Y0211657D02*
D03*
D44*
X0428434Y0320557D02*
D03*
Y0400794D02*
D03*
D45*
X0376134Y0251657D02*
D03*
X0352634Y0259657D02*
D03*
X0428134Y0242657D02*
D03*
X0401134Y0247157D02*
D03*
X0399634Y0237157D02*
D03*
X0401134Y0252157D02*
D03*
X0386634Y0242657D02*
D03*
X0445634Y0386157D02*
D03*
X0439634Y0383657D02*
D03*
X0437134Y0380657D02*
D03*
X0437634Y0377157D02*
D03*
X0431634Y0335157D02*
D03*
X0416134Y0251157D02*
D03*
X0399634Y0263157D02*
D03*
X0403634D02*
D03*
X0331134Y0279657D02*
D03*
X0425134Y0273157D02*
D03*
X0407134Y0269157D02*
D03*
X0378134Y0272657D02*
D03*
X0436134Y0274157D02*
D03*
X0461634Y0282157D02*
D03*
X0420134Y0303157D02*
D03*
X0414134Y0272157D02*
D03*
X0389134Y0294657D02*
D03*
X0387634Y0285657D02*
D03*
X0344134Y0345657D02*
D03*
X0349134Y0346157D02*
D03*
X0413134Y0231657D02*
D03*
X0416634Y0228157D02*
D03*
X0433134Y0190657D02*
D03*
X0439634Y0205157D02*
D03*
X0419634Y0205657D02*
D03*
X0415134Y0201657D02*
D03*
X0434634Y0337657D02*
D03*
D46*
X0389634Y0202157D02*
D03*
X0393634D02*
D03*
X0397634D02*
D03*
Y0197657D02*
D03*
X0393634D02*
D03*
X0389634D02*
D03*
Y0193657D02*
D03*
X0400634Y0193157D02*
D03*
X0395634Y0191657D02*
D03*
X0393134Y0188157D02*
D03*
X0424634Y0193657D02*
D03*
X0429634D02*
D03*
M02*
