G04 Layer_Color=65535*
%FSAX25Y25*%
%MOIN*%
G70*
G01*
G75*
%ADD50C,0.00984*%
%ADD51C,0.00787*%
%ADD52C,0.01000*%
D50*
X0400937Y0168157D02*
G03*
X0400937Y0168157I-0000492J0000000D01*
G01*
D51*
X0400445Y0172980D02*
X0426823D01*
X0400445Y0188335D02*
X0426823D01*
X0400445Y0172980D02*
Y0188335D01*
X0426823Y0172980D02*
Y0188335D01*
X0424437Y0263937D02*
X0424831D01*
X0424437Y0261378D02*
X0424831D01*
X0413937D02*
X0414331D01*
X0413937Y0263937D02*
X0414331D01*
X0393437Y0249437D02*
X0393831D01*
X0393437Y0246878D02*
X0393831D01*
X0440854Y0197961D02*
Y0198354D01*
X0443413Y0197961D02*
Y0198354D01*
X0405937Y0241378D02*
X0406331D01*
X0405937Y0243937D02*
X0406331D01*
X0393437Y0235878D02*
X0393831D01*
X0393437Y0238437D02*
X0393831D01*
X0424583Y0266878D02*
X0424976D01*
X0424583Y0269437D02*
X0424976D01*
X0413937D02*
X0414331D01*
X0413937Y0266878D02*
X0414331D01*
X0426913Y0204461D02*
Y0204854D01*
X0424354Y0204461D02*
Y0204854D01*
X0432413Y0204461D02*
Y0204854D01*
X0429854Y0204461D02*
Y0204854D01*
X0393437Y0241378D02*
X0393831D01*
X0393437Y0243937D02*
X0393831D01*
X0437913Y0197961D02*
Y0198354D01*
X0435354Y0197961D02*
Y0198354D01*
X0387854Y0255961D02*
Y0256354D01*
X0390413Y0255961D02*
Y0256354D01*
Y0277461D02*
Y0277854D01*
X0387854Y0277461D02*
Y0277854D01*
X0393437Y0227437D02*
X0393831D01*
X0393437Y0224878D02*
X0393831D01*
X0422937Y0233937D02*
X0423331D01*
X0422937Y0231378D02*
X0423331D01*
X0403937Y0256878D02*
X0404331D01*
X0403937Y0259437D02*
X0404331D01*
X0397291Y0268378D02*
X0397685D01*
X0397291Y0270937D02*
X0397685D01*
X0401354Y0228606D02*
Y0229000D01*
X0403913Y0228606D02*
Y0229000D01*
X0433437Y0231378D02*
X0433831D01*
X0433437Y0233937D02*
X0433831D01*
X0393854Y0260461D02*
Y0260854D01*
X0396413Y0260461D02*
Y0260854D01*
X0390413Y0266961D02*
Y0267354D01*
X0387854Y0266961D02*
Y0267354D01*
X0393437Y0230378D02*
X0393831D01*
X0393437Y0232937D02*
X0393831D01*
X0422937Y0225878D02*
X0423331D01*
X0422937Y0228437D02*
X0423331D01*
X0444134Y0206657D02*
X0464134D01*
Y0256657D01*
X0444134D02*
X0464134D01*
X0444134Y0206657D02*
Y0256657D01*
X0416634Y0291795D02*
Y0296520D01*
X0401772Y0282157D02*
X0406496D01*
X0441272Y0278157D02*
X0445996D01*
X0450772Y0285657D02*
X0455496D01*
X0416240Y0276279D02*
X0417028D01*
X0416240Y0279035D02*
X0417028D01*
X0396468Y0294264D02*
Y0295051D01*
X0393713Y0294264D02*
Y0295051D01*
X0393713Y0283764D02*
Y0284551D01*
X0396468Y0283764D02*
Y0284551D01*
X0448740Y0265280D02*
X0449528D01*
X0448740Y0268035D02*
X0449528D01*
X0441740Y0298535D02*
X0442527D01*
X0441740Y0295779D02*
X0442527D01*
X0452740Y0295779D02*
X0453527D01*
X0452740Y0298535D02*
X0453527D01*
X0398134Y0163700D02*
Y0160748D01*
X0398724Y0160157D01*
X0399905D01*
X0400495Y0160748D01*
Y0163700D01*
X0401676Y0160157D02*
X0402857D01*
X0402266D01*
Y0163700D01*
X0401676Y0163109D01*
X0317182Y0380519D02*
X0316592Y0379928D01*
Y0378748D01*
X0317182Y0378157D01*
X0317772D01*
X0318363Y0378748D01*
Y0379928D01*
X0318953Y0380519D01*
X0319544D01*
X0320134Y0379928D01*
Y0378748D01*
X0319544Y0378157D01*
X0316592Y0384061D02*
Y0381700D01*
X0318363D01*
Y0382880D01*
Y0381700D01*
X0320134D01*
Y0385242D02*
X0316592D01*
Y0387013D01*
X0317182Y0387603D01*
X0318363D01*
X0318953Y0387013D01*
Y0385242D01*
X0320134Y0388784D02*
Y0389965D01*
Y0389374D01*
X0316592D01*
X0317182Y0388784D01*
X0431134Y0261157D02*
Y0264700D01*
X0432905D01*
X0433495Y0264109D01*
Y0262929D01*
X0432905Y0262338D01*
X0431134D01*
X0432315D02*
X0433495Y0261157D01*
X0437037D02*
X0434676D01*
X0437037Y0263519D01*
Y0264109D01*
X0436447Y0264700D01*
X0435266D01*
X0434676Y0264109D01*
X0439989Y0261157D02*
Y0264700D01*
X0438218Y0262929D01*
X0440580D01*
X0414634Y0259157D02*
X0418176D01*
Y0257386D01*
X0417586Y0256796D01*
X0416405D01*
X0415815Y0257386D01*
Y0259157D01*
Y0257977D02*
X0414634Y0256796D01*
Y0253254D02*
Y0255615D01*
X0416995Y0253254D01*
X0417586D01*
X0418176Y0253844D01*
Y0255025D01*
X0417586Y0255615D01*
Y0252073D02*
X0418176Y0251483D01*
Y0250302D01*
X0417586Y0249712D01*
X0416995D01*
X0416405Y0250302D01*
Y0250892D01*
Y0250302D01*
X0415815Y0249712D01*
X0415224D01*
X0414634Y0250302D01*
Y0251483D01*
X0415224Y0252073D01*
X0386134Y0207657D02*
Y0211200D01*
X0387905D01*
X0388495Y0210609D01*
Y0209429D01*
X0387905Y0208838D01*
X0386134D01*
X0387315D02*
X0388495Y0207657D01*
X0392037D02*
X0389676D01*
X0392037Y0210019D01*
Y0210609D01*
X0391447Y0211200D01*
X0390266D01*
X0389676Y0210609D01*
X0395580Y0207657D02*
X0393218D01*
X0395580Y0210019D01*
Y0210609D01*
X0394989Y0211200D01*
X0393809D01*
X0393218Y0210609D01*
X0445634Y0193157D02*
Y0196700D01*
X0447405D01*
X0447995Y0196109D01*
Y0194929D01*
X0447405Y0194338D01*
X0445634D01*
X0446815D02*
X0447995Y0193157D01*
X0451537D02*
X0449176D01*
X0451537Y0195519D01*
Y0196109D01*
X0450947Y0196700D01*
X0449766D01*
X0449176Y0196109D01*
X0452718Y0193157D02*
X0453899D01*
X0453308D01*
Y0196700D01*
X0452718Y0196109D01*
X0411634Y0241157D02*
Y0244700D01*
X0413405D01*
X0413995Y0244109D01*
Y0242929D01*
X0413405Y0242338D01*
X0411634D01*
X0412815D02*
X0413995Y0241157D01*
X0417537D02*
X0415176D01*
X0417537Y0243519D01*
Y0244109D01*
X0416947Y0244700D01*
X0415766D01*
X0415176Y0244109D01*
X0418718D02*
X0419309Y0244700D01*
X0420489D01*
X0421080Y0244109D01*
Y0241748D01*
X0420489Y0241157D01*
X0419309D01*
X0418718Y0241748D01*
Y0244109D01*
X0386134Y0197657D02*
Y0201200D01*
X0387905D01*
X0388495Y0200609D01*
Y0199428D01*
X0387905Y0198838D01*
X0386134D01*
X0387315D02*
X0388495Y0197657D01*
X0389676D02*
X0390857D01*
X0390266D01*
Y0201200D01*
X0389676Y0200609D01*
X0392628Y0198248D02*
X0393218Y0197657D01*
X0394399D01*
X0394989Y0198248D01*
Y0200609D01*
X0394399Y0201200D01*
X0393218D01*
X0392628Y0200609D01*
Y0200019D01*
X0393218Y0199428D01*
X0394989D01*
X0431134Y0266657D02*
Y0270200D01*
X0432905D01*
X0433495Y0269609D01*
Y0268428D01*
X0432905Y0267838D01*
X0431134D01*
X0432315D02*
X0433495Y0266657D01*
X0434676D02*
X0435857D01*
X0435266D01*
Y0270200D01*
X0434676Y0269609D01*
X0437628D02*
X0438218Y0270200D01*
X0439399D01*
X0439989Y0269609D01*
Y0269019D01*
X0439399Y0268428D01*
X0439989Y0267838D01*
Y0267248D01*
X0439399Y0266657D01*
X0438218D01*
X0437628Y0267248D01*
Y0267838D01*
X0438218Y0268428D01*
X0437628Y0269019D01*
Y0269609D01*
X0438218Y0268428D02*
X0439399D01*
X0408134Y0271157D02*
Y0274700D01*
X0409905D01*
X0410495Y0274109D01*
Y0272929D01*
X0409905Y0272338D01*
X0408134D01*
X0409315D02*
X0410495Y0271157D01*
X0411676D02*
X0412857D01*
X0412266D01*
Y0274700D01*
X0411676Y0274109D01*
X0414628Y0274700D02*
X0416989D01*
Y0274109D01*
X0414628Y0271748D01*
Y0271157D01*
X0427634Y0210157D02*
X0424092D01*
Y0211929D01*
X0424682Y0212519D01*
X0425863D01*
X0426453Y0211929D01*
Y0210157D01*
Y0211338D02*
X0427634Y0212519D01*
Y0213700D02*
Y0214880D01*
Y0214290D01*
X0424092D01*
X0424682Y0213700D01*
X0424092Y0219013D02*
X0424682Y0217832D01*
X0425863Y0216651D01*
X0427043D01*
X0427634Y0217242D01*
Y0218423D01*
X0427043Y0219013D01*
X0426453D01*
X0425863Y0218423D01*
Y0216651D01*
X0433134Y0210157D02*
X0429592D01*
Y0211929D01*
X0430182Y0212519D01*
X0431363D01*
X0431953Y0211929D01*
Y0210157D01*
Y0211338D02*
X0433134Y0212519D01*
Y0213700D02*
Y0214880D01*
Y0214290D01*
X0429592D01*
X0430182Y0213700D01*
X0429592Y0219013D02*
Y0216651D01*
X0431363D01*
X0430772Y0217832D01*
Y0218423D01*
X0431363Y0219013D01*
X0432544D01*
X0433134Y0218423D01*
Y0217242D01*
X0432544Y0216651D01*
X0386134Y0202657D02*
Y0206200D01*
X0387905D01*
X0388495Y0205609D01*
Y0204429D01*
X0387905Y0203838D01*
X0386134D01*
X0387315D02*
X0388495Y0202657D01*
X0389676D02*
X0390857D01*
X0390266D01*
Y0206200D01*
X0389676Y0205609D01*
X0394399Y0202657D02*
Y0206200D01*
X0392628Y0204429D01*
X0394989D01*
X0438134Y0210157D02*
X0434592D01*
Y0211929D01*
X0435182Y0212519D01*
X0436363D01*
X0436953Y0211929D01*
Y0210157D01*
Y0211338D02*
X0438134Y0212519D01*
Y0213700D02*
Y0214880D01*
Y0214290D01*
X0434592D01*
X0435182Y0213700D01*
Y0216651D02*
X0434592Y0217242D01*
Y0218423D01*
X0435182Y0219013D01*
X0435772D01*
X0436363Y0218423D01*
Y0217832D01*
Y0218423D01*
X0436953Y0219013D01*
X0437543D01*
X0438134Y0218423D01*
Y0217242D01*
X0437543Y0216651D01*
X0390134Y0299657D02*
X0386592D01*
Y0301429D01*
X0387182Y0302019D01*
X0388363D01*
X0388953Y0301429D01*
Y0299657D01*
Y0300838D02*
X0390134Y0302019D01*
Y0303200D02*
Y0304380D01*
Y0303790D01*
X0386592D01*
X0387182Y0303200D01*
X0390134Y0308513D02*
Y0306151D01*
X0387772Y0308513D01*
X0387182D01*
X0386592Y0307923D01*
Y0306742D01*
X0387182Y0306151D01*
X0390134Y0318657D02*
X0386592D01*
Y0320428D01*
X0387182Y0321019D01*
X0388363D01*
X0388953Y0320428D01*
Y0318657D01*
Y0319838D02*
X0390134Y0321019D01*
Y0322200D02*
Y0323380D01*
Y0322790D01*
X0386592D01*
X0387182Y0322200D01*
X0390134Y0325151D02*
Y0326332D01*
Y0325742D01*
X0386592D01*
X0387182Y0325151D01*
X0386134Y0187657D02*
Y0191200D01*
X0387905D01*
X0388495Y0190609D01*
Y0189428D01*
X0387905Y0188838D01*
X0386134D01*
X0387315D02*
X0388495Y0187657D01*
X0389676D02*
X0390857D01*
X0390266D01*
Y0191200D01*
X0389676Y0190609D01*
X0392628D02*
X0393218Y0191200D01*
X0394399D01*
X0394989Y0190609D01*
Y0188248D01*
X0394399Y0187657D01*
X0393218D01*
X0392628Y0188248D01*
Y0190609D01*
X0420134Y0235657D02*
Y0239200D01*
X0421905D01*
X0422495Y0238609D01*
Y0237428D01*
X0421905Y0236838D01*
X0420134D01*
X0421315D02*
X0422495Y0235657D01*
X0423676Y0236248D02*
X0424266Y0235657D01*
X0425447D01*
X0426037Y0236248D01*
Y0238609D01*
X0425447Y0239200D01*
X0424266D01*
X0423676Y0238609D01*
Y0238019D01*
X0424266Y0237428D01*
X0426037D01*
X0401134Y0261657D02*
Y0265200D01*
X0402905D01*
X0403495Y0264609D01*
Y0263428D01*
X0402905Y0262838D01*
X0401134D01*
X0402315D02*
X0403495Y0261657D01*
X0404676Y0264609D02*
X0405266Y0265200D01*
X0406447D01*
X0407037Y0264609D01*
Y0264019D01*
X0406447Y0263428D01*
X0407037Y0262838D01*
Y0262248D01*
X0406447Y0261657D01*
X0405266D01*
X0404676Y0262248D01*
Y0262838D01*
X0405266Y0263428D01*
X0404676Y0264019D01*
Y0264609D01*
X0405266Y0263428D02*
X0406447D01*
X0394134Y0272657D02*
Y0276200D01*
X0395905D01*
X0396495Y0275609D01*
Y0274429D01*
X0395905Y0273838D01*
X0394134D01*
X0395315D02*
X0396495Y0272657D01*
X0397676Y0276200D02*
X0400037D01*
Y0275609D01*
X0397676Y0273248D01*
Y0272657D01*
X0409634Y0225157D02*
X0406092D01*
Y0226928D01*
X0406682Y0227519D01*
X0407863D01*
X0408453Y0226928D01*
Y0225157D01*
Y0226338D02*
X0409634Y0227519D01*
X0406092Y0231061D02*
X0406682Y0229880D01*
X0407863Y0228700D01*
X0409044D01*
X0409634Y0229290D01*
Y0230471D01*
X0409044Y0231061D01*
X0408453D01*
X0407863Y0230471D01*
Y0228700D01*
X0430134Y0225657D02*
Y0229200D01*
X0431905D01*
X0432495Y0228609D01*
Y0227429D01*
X0431905Y0226838D01*
X0430134D01*
X0431315D02*
X0432495Y0225657D01*
X0436037Y0229200D02*
X0433676D01*
Y0227429D01*
X0434857Y0228019D01*
X0435447D01*
X0436037Y0227429D01*
Y0226248D01*
X0435447Y0225657D01*
X0434266D01*
X0433676Y0226248D01*
X0395134Y0307157D02*
X0391592D01*
Y0308928D01*
X0392182Y0309519D01*
X0393363D01*
X0393953Y0308928D01*
Y0307157D01*
Y0308338D02*
X0395134Y0309519D01*
Y0312471D02*
X0391592D01*
X0393363Y0310700D01*
Y0313061D01*
X0390134Y0310657D02*
X0386592D01*
Y0312428D01*
X0387182Y0313019D01*
X0388363D01*
X0388953Y0312428D01*
Y0310657D01*
Y0311838D02*
X0390134Y0313019D01*
X0387182Y0314200D02*
X0386592Y0314790D01*
Y0315971D01*
X0387182Y0316561D01*
X0387772D01*
X0388363Y0315971D01*
Y0315380D01*
Y0315971D01*
X0388953Y0316561D01*
X0389544D01*
X0390134Y0315971D01*
Y0314790D01*
X0389544Y0314200D01*
X0386134Y0192657D02*
Y0196200D01*
X0387905D01*
X0388495Y0195609D01*
Y0194429D01*
X0387905Y0193838D01*
X0386134D01*
X0387315D02*
X0388495Y0192657D01*
X0392037D02*
X0389676D01*
X0392037Y0195019D01*
Y0195609D01*
X0391447Y0196200D01*
X0390266D01*
X0389676Y0195609D01*
X0420634Y0220657D02*
Y0224200D01*
X0422405D01*
X0422995Y0223609D01*
Y0222428D01*
X0422405Y0221838D01*
X0420634D01*
X0421815D02*
X0422995Y0220657D01*
X0424176D02*
X0425357D01*
X0424766D01*
Y0224200D01*
X0424176Y0223609D01*
X0464634Y0197657D02*
Y0201200D01*
X0466405D01*
X0466995Y0200609D01*
Y0199428D01*
X0466405Y0198838D01*
X0464634D01*
X0468176Y0197657D02*
X0469357D01*
X0468766D01*
Y0201200D01*
X0468176Y0200609D01*
X0411134Y0301700D02*
Y0298157D01*
X0413495D01*
X0416447D02*
Y0301700D01*
X0414676Y0299928D01*
X0417037D01*
X0414626Y0288207D02*
X0411084D01*
Y0285846D01*
X0414036Y0284665D02*
X0414626Y0284075D01*
Y0282894D01*
X0414036Y0282304D01*
X0413445D01*
X0412855Y0282894D01*
Y0283485D01*
Y0282894D01*
X0412265Y0282304D01*
X0411674D01*
X0411084Y0282894D01*
Y0284075D01*
X0411674Y0284665D01*
X0433134Y0283200D02*
Y0279657D01*
X0435495D01*
X0439037D02*
X0436676D01*
X0439037Y0282019D01*
Y0282609D01*
X0438447Y0283200D01*
X0437266D01*
X0436676Y0282609D01*
X0458134Y0291200D02*
Y0287657D01*
X0460495D01*
X0461676D02*
X0462857D01*
X0462266D01*
Y0291200D01*
X0461676Y0290609D01*
X0424495Y0279109D02*
X0423905Y0279700D01*
X0422724D01*
X0422134Y0279109D01*
Y0276748D01*
X0422724Y0276157D01*
X0423905D01*
X0424495Y0276748D01*
X0425676Y0276157D02*
X0426857D01*
X0426266D01*
Y0279700D01*
X0425676Y0279109D01*
X0430989Y0276157D02*
X0428628D01*
X0430989Y0278519D01*
Y0279109D01*
X0430399Y0279700D01*
X0429218D01*
X0428628Y0279109D01*
X0392182Y0334019D02*
X0391592Y0333429D01*
Y0332248D01*
X0392182Y0331657D01*
X0394544D01*
X0395134Y0332248D01*
Y0333429D01*
X0394544Y0334019D01*
X0395134Y0335200D02*
Y0336380D01*
Y0335790D01*
X0391592D01*
X0392182Y0335200D01*
X0395134Y0338151D02*
Y0339332D01*
Y0338742D01*
X0391592D01*
X0392182Y0338151D01*
X0425995Y0287609D02*
X0425405Y0288200D01*
X0424224D01*
X0423634Y0287609D01*
Y0285248D01*
X0424224Y0284657D01*
X0425405D01*
X0425995Y0285248D01*
X0427176Y0284657D02*
X0428357D01*
X0427766D01*
Y0288200D01*
X0427176Y0287609D01*
X0430128D02*
X0430718Y0288200D01*
X0431899D01*
X0432489Y0287609D01*
Y0285248D01*
X0431899Y0284657D01*
X0430718D01*
X0430128Y0285248D01*
Y0287609D01*
X0403495Y0307609D02*
X0402905Y0308200D01*
X0401724D01*
X0401134Y0307609D01*
Y0305248D01*
X0401724Y0304657D01*
X0402905D01*
X0403495Y0305248D01*
X0404676D02*
X0405266Y0304657D01*
X0406447D01*
X0407037Y0305248D01*
Y0307609D01*
X0406447Y0308200D01*
X0405266D01*
X0404676Y0307609D01*
Y0307019D01*
X0405266Y0306429D01*
X0407037D01*
X0392182Y0326019D02*
X0391592Y0325429D01*
Y0324248D01*
X0392182Y0323657D01*
X0394544D01*
X0395134Y0324248D01*
Y0325429D01*
X0394544Y0326019D01*
X0392182Y0327200D02*
X0391592Y0327790D01*
Y0328971D01*
X0392182Y0329561D01*
X0392772D01*
X0393363Y0328971D01*
X0393953Y0329561D01*
X0394544D01*
X0395134Y0328971D01*
Y0327790D01*
X0394544Y0327200D01*
X0393953D01*
X0393363Y0327790D01*
X0392772Y0327200D01*
X0392182D01*
X0393363Y0327790D02*
Y0328971D01*
X0462995Y0268109D02*
X0462405Y0268700D01*
X0461224D01*
X0460634Y0268109D01*
Y0265748D01*
X0461224Y0265157D01*
X0462405D01*
X0462995Y0265748D01*
X0464176Y0268700D02*
X0466537D01*
Y0268109D01*
X0464176Y0265748D01*
Y0265157D01*
X0437995Y0304109D02*
X0437405Y0304700D01*
X0436224D01*
X0435634Y0304109D01*
Y0301748D01*
X0436224Y0301157D01*
X0437405D01*
X0437995Y0301748D01*
X0441537Y0304700D02*
X0440357Y0304109D01*
X0439176Y0302928D01*
Y0301748D01*
X0439766Y0301157D01*
X0440947D01*
X0441537Y0301748D01*
Y0302338D01*
X0440947Y0302928D01*
X0439176D01*
X0467995Y0280109D02*
X0467405Y0280700D01*
X0466224D01*
X0465634Y0280109D01*
Y0277748D01*
X0466224Y0277157D01*
X0467405D01*
X0467995Y0277748D01*
X0471537Y0280700D02*
X0469176D01*
Y0278928D01*
X0470357Y0279519D01*
X0470947D01*
X0471537Y0278928D01*
Y0277748D01*
X0470947Y0277157D01*
X0469766D01*
X0469176Y0277748D01*
X0431495Y0297609D02*
X0430905Y0298200D01*
X0429724D01*
X0429134Y0297609D01*
Y0295248D01*
X0429724Y0294657D01*
X0430905D01*
X0431495Y0295248D01*
X0434447Y0294657D02*
Y0298200D01*
X0432676Y0296428D01*
X0435037D01*
X0389495Y0172109D02*
X0388905Y0172700D01*
X0387724D01*
X0387134Y0172109D01*
Y0169748D01*
X0387724Y0169157D01*
X0388905D01*
X0389495Y0169748D01*
X0390676Y0172109D02*
X0391266Y0172700D01*
X0392447D01*
X0393037Y0172109D01*
Y0171519D01*
X0392447Y0170929D01*
X0391857D01*
X0392447D01*
X0393037Y0170338D01*
Y0169748D01*
X0392447Y0169157D01*
X0391266D01*
X0390676Y0169748D01*
X0437495Y0167609D02*
X0436905Y0168200D01*
X0435724D01*
X0435134Y0167609D01*
Y0165248D01*
X0435724Y0164657D01*
X0436905D01*
X0437495Y0165248D01*
X0441037Y0164657D02*
X0438676D01*
X0441037Y0167019D01*
Y0167609D01*
X0440447Y0168200D01*
X0439266D01*
X0438676Y0167609D01*
X0455495Y0304109D02*
X0454905Y0304700D01*
X0453724D01*
X0453134Y0304109D01*
Y0301748D01*
X0453724Y0301157D01*
X0454905D01*
X0455495Y0301748D01*
X0456676Y0301157D02*
X0457857D01*
X0457266D01*
Y0304700D01*
X0456676Y0304109D01*
X0447592Y0204019D02*
X0448182Y0202838D01*
X0449363Y0201657D01*
X0450543D01*
X0451134Y0202248D01*
Y0203429D01*
X0450543Y0204019D01*
X0449953D01*
X0449363Y0203429D01*
Y0201657D01*
X0451134Y0257657D02*
Y0258838D01*
Y0258248D01*
X0447592D01*
X0448182Y0257657D01*
Y0260609D02*
X0447592Y0261200D01*
Y0262380D01*
X0448182Y0262971D01*
X0450543D01*
X0451134Y0262380D01*
Y0261200D01*
X0450543Y0260609D01*
X0448182D01*
X0457592Y0260019D02*
Y0257657D01*
X0459363D01*
X0458772Y0258838D01*
Y0259429D01*
X0459363Y0260019D01*
X0460543D01*
X0461134Y0259429D01*
Y0258248D01*
X0460543Y0257657D01*
X0461134Y0201657D02*
Y0202838D01*
Y0202248D01*
X0457592D01*
X0458182Y0201657D01*
D52*
X0324646Y0358485D02*
X0329764D01*
X0324646Y0328662D02*
Y0358485D01*
X0361949Y0334666D02*
X0362047Y0355434D01*
X0361949Y0334666D02*
X0364213D01*
Y0328170D02*
Y0334666D01*
Y0328170D02*
X0369724D01*
Y0358288D01*
X0362638D02*
X0369724D01*
X0362638Y0356123D02*
Y0358288D01*
X0362047Y0355434D02*
X0362638Y0356123D01*
X0329764Y0355237D02*
Y0358485D01*
Y0355237D02*
X0331929D01*
Y0333879D02*
Y0355237D01*
X0331142Y0333780D02*
X0331929Y0333879D01*
X0331142Y0328662D02*
Y0333780D01*
X0324646Y0328662D02*
X0331142D01*
X0314234Y0204657D02*
Y0351257D01*
Y0204657D02*
X0384134D01*
X0314234Y0351257D02*
Y0374457D01*
X0384134Y0204657D02*
Y0374457D01*
X0361791D02*
X0384134D01*
X0314234D02*
X0331291D01*
M02*
