G04 Layer_Color=16711935*
%FSAX25Y25*%
%MOIN*%
G70*
G01*
G75*
%ADD23C,0.01500*%
%ADD52C,0.01000*%
%ADD75C,0.00100*%
%ADD76C,0.00600*%
D23*
X0673495Y0309248D02*
X0675199Y0309080D01*
X0676838Y0308583D01*
X0678349Y0307775D01*
X0679673Y0306689D01*
X0680760Y0305365D01*
X0681567Y0303854D01*
X0682064Y0302215D01*
X0682232Y0300511D01*
Y0128674D02*
Y0300511D01*
X0682064Y0126970D02*
X0682232Y0128674D01*
X0681567Y0125330D02*
X0682064Y0126970D01*
X0680760Y0123820D02*
X0681567Y0125330D01*
X0679673Y0122496D02*
X0680760Y0123820D01*
X0678349Y0121409D02*
X0679673Y0122496D01*
X0676838Y0120602D02*
X0678349Y0121409D01*
X0675199Y0120105D02*
X0676838Y0120602D01*
X0673495Y0119937D02*
X0675199Y0120105D01*
X0615245Y0119937D02*
X0673495D01*
X0615245D02*
Y0154886D01*
X0561364D02*
X0615245D01*
X0561364D02*
Y0309248D01*
X0673495D01*
X1026241Y0312248D02*
Y0456248D01*
X0914273Y0432248D02*
X1026241D01*
X0914273Y0420248D02*
X1026241D01*
X0914273Y0408248D02*
X1026241D01*
X0914273Y0396248D02*
X1026241D01*
X0914273Y0384248D02*
X1026241D01*
X0914273Y0372248D02*
X1026241D01*
X0914273Y0360248D02*
X1026241D01*
X0914273Y0348248D02*
X1026241D01*
X0914273Y0336248D02*
X1026241D01*
X0914273Y0324248D02*
X1026241D01*
X0914273Y0312248D02*
X1026241D01*
X0914273D02*
Y0456248D01*
X0857287Y0432248D02*
X0914273D01*
X0857287Y0420248D02*
X0914273D01*
X0857287Y0408248D02*
X0914273D01*
X0857287Y0396248D02*
X0914273D01*
X0857287Y0384248D02*
X0914273D01*
X0857287Y0372248D02*
X0914273D01*
X0857287Y0360248D02*
X0914273D01*
X0857287Y0348248D02*
X0914273D01*
X0857287Y0336248D02*
X0914273D01*
X0857287Y0324248D02*
X0914273D01*
X0857287Y0312248D02*
X0914273D01*
X0857287D02*
Y0456248D01*
X0792303Y0432248D02*
X0857287D01*
X0792303Y0420248D02*
X0857287D01*
X0792303Y0408248D02*
X0857287D01*
X0792303Y0396248D02*
X0857287D01*
X0792303Y0384248D02*
X0857287D01*
X0792303Y0372248D02*
X0857287D01*
X0792303Y0360248D02*
X0857287D01*
X0792303Y0348248D02*
X0857287D01*
X0792303Y0336248D02*
X0857287D01*
X0792303Y0324248D02*
X0857287D01*
X0792303Y0312248D02*
X0857287D01*
X0792303D02*
Y0456248D01*
X0706326Y0432248D02*
X0792303D01*
X0706326Y0420248D02*
X0792303D01*
X0706326Y0408248D02*
X0792303D01*
X0706326Y0396248D02*
X0792303D01*
X0706326Y0384248D02*
X0792303D01*
X0706326Y0372248D02*
X0792303D01*
X0706326Y0360248D02*
X0792303D01*
X0706326Y0348248D02*
X0792303D01*
X0706326Y0336248D02*
X0792303D01*
X0706326Y0324248D02*
X0792303D01*
X0706326Y0312248D02*
X0792303D01*
X0706326D02*
Y0456248D01*
X0602355Y0432248D02*
X0706326D01*
X0602355Y0420248D02*
X0706326D01*
X0602355Y0408248D02*
X0706326D01*
X0602355Y0396248D02*
X0706326D01*
X0602355Y0384248D02*
X0706326D01*
X0602355Y0372248D02*
X0706326D01*
X0602355Y0360248D02*
X0706326D01*
X0602355Y0348248D02*
X0706326D01*
X0602355Y0336248D02*
X0706326D01*
X0602355Y0324248D02*
X0706326D01*
X0602355Y0312248D02*
X0706326D01*
X0602355D02*
Y0456248D01*
X0561364Y0432248D02*
X0602355D01*
X0561364Y0420248D02*
X0602355D01*
X0561364Y0408248D02*
X0602355D01*
X0561364Y0396248D02*
X0602355D01*
X0561364Y0384248D02*
X0602355D01*
X0561364Y0372248D02*
X0602355D01*
X0561364Y0360248D02*
X0602355D01*
X0561364Y0348248D02*
X0602355D01*
X0561364Y0336248D02*
X0602355D01*
X0561364Y0324248D02*
X0602355D01*
X0561364Y0312248D02*
X0602355D01*
X0561364D02*
Y0456248D01*
X1026241D01*
X0561364Y0444248D02*
X1026241D01*
D52*
X0463905Y0251657D02*
X0505634D01*
X0468602Y0397157D02*
X0505634D01*
X0504634Y0251657D02*
Y0307712D01*
Y0337903D02*
Y0397157D01*
Y0251657D02*
X0506634Y0257657D01*
X0502634D02*
X0504634Y0251657D01*
X0502634Y0391157D02*
X0504634Y0397157D01*
X0506634Y0391157D01*
X0459134Y0256429D02*
Y0430657D01*
X0459303Y0406457D02*
Y0430657D01*
Y0429657D02*
X0469303D01*
X0449134D02*
X0459134D01*
X0459303D02*
X0465303Y0427657D01*
X0459303Y0429657D02*
X0465303Y0431657D01*
X0453134D02*
X0459134Y0429657D01*
X0453134Y0427657D02*
X0459134Y0429657D01*
X0475051Y0403079D02*
Y0452748D01*
X0311665Y0414890D02*
Y0452748D01*
X0406354Y0451748D02*
X0475051D01*
X0311665D02*
X0377162D01*
X0469051Y0453748D02*
X0475051Y0451748D01*
X0469051Y0449748D02*
X0475051Y0451748D01*
X0311665D02*
X0317665Y0449748D01*
X0311665Y0451748D02*
X0317665Y0453748D01*
X0269303Y0157000D02*
X0382516D01*
X0269303Y0412906D02*
X0309681D01*
X0270303Y0157000D02*
Y0268257D01*
Y0298448D02*
Y0412906D01*
Y0157000D02*
X0272303Y0163000D01*
X0268303D02*
X0270303Y0157000D01*
X0268303Y0406906D02*
X0270303Y0412906D01*
X0272303Y0406906D01*
X0286803Y0412906D02*
X0309681D01*
X0286803Y0204244D02*
X0309681D01*
X0287803Y0322070D02*
Y0412906D01*
Y0204244D02*
Y0291879D01*
X0285803Y0406906D02*
X0287803Y0412906D01*
X0289803Y0406906D01*
X0287803Y0204244D02*
X0289803Y0210244D01*
X0285803D02*
X0287803Y0204244D01*
X0920273Y0453246D02*
Y0447248D01*
X0923272D01*
X0924271Y0448248D01*
Y0449247D01*
X0923272Y0450247D01*
X0920273D01*
X0923272D01*
X0924271Y0451247D01*
Y0452246D01*
X0923272Y0453246D01*
X0920273D01*
X0927271Y0447248D02*
X0929270D01*
X0930270Y0448248D01*
Y0450247D01*
X0929270Y0451247D01*
X0927271D01*
X0926271Y0450247D01*
Y0448248D01*
X0927271Y0447248D01*
X0933269Y0451247D02*
X0935268D01*
X0936267Y0450247D01*
Y0447248D01*
X0933269D01*
X0932269Y0448248D01*
X0933269Y0449247D01*
X0936267D01*
X0938267Y0451247D02*
Y0447248D01*
Y0449247D01*
X0939267Y0450247D01*
X0940266Y0451247D01*
X0941266D01*
X0948264Y0453246D02*
Y0447248D01*
X0945265D01*
X0944265Y0448248D01*
Y0450247D01*
X0945265Y0451247D01*
X0948264D01*
X0956261Y0453246D02*
Y0447248D01*
X0960260D01*
X0963259Y0451247D02*
X0965258D01*
X0966258Y0450247D01*
Y0447248D01*
X0963259D01*
X0962259Y0448248D01*
X0963259Y0449247D01*
X0966258D01*
X0968257Y0451247D02*
Y0448248D01*
X0969257Y0447248D01*
X0972256D01*
Y0446248D01*
X0971256Y0445249D01*
X0970257D01*
X0972256Y0447248D02*
Y0451247D01*
X0977254Y0447248D02*
X0975255D01*
X0974255Y0448248D01*
Y0450247D01*
X0975255Y0451247D01*
X0977254D01*
X0978254Y0450247D01*
Y0449247D01*
X0974255D01*
X0980253Y0451247D02*
Y0447248D01*
Y0449247D01*
X0981253Y0450247D01*
X0982253Y0451247D01*
X0983252D01*
X0996248Y0452246D02*
X0995249Y0453246D01*
X0993249D01*
X0992249Y0452246D01*
Y0451247D01*
X0993249Y0450247D01*
X0995249D01*
X0996248Y0449247D01*
Y0448248D01*
X0995249Y0447248D01*
X0993249D01*
X0992249Y0448248D01*
X0999247Y0452246D02*
Y0451247D01*
X0998248D01*
X1000247D01*
X0999247D01*
Y0448248D01*
X1000247Y0447248D01*
X1004246Y0451247D02*
X1006245D01*
X1007245Y0450247D01*
Y0447248D01*
X1004246D01*
X1003246Y0448248D01*
X1004246Y0449247D01*
X1007245D01*
X1013243Y0451247D02*
X1010244D01*
X1009244Y0450247D01*
Y0448248D01*
X1010244Y0447248D01*
X1013243D01*
X1015242D02*
Y0453246D01*
Y0449247D02*
X1018241Y0451247D01*
X1015242Y0449247D02*
X1018241Y0447248D01*
X0863287Y0428246D02*
X0864286Y0429246D01*
X0866286D01*
X0867285Y0428246D01*
Y0427247D01*
X0866286Y0426247D01*
X0865286D01*
X0866286D01*
X0867285Y0425247D01*
Y0424248D01*
X0866286Y0423248D01*
X0864286D01*
X0863287Y0424248D01*
X0869285Y0423248D02*
Y0424248D01*
X0870284D01*
Y0423248D01*
X0869285D01*
X0878282Y0429246D02*
X0874283D01*
Y0426247D01*
X0876282Y0427247D01*
X0877282D01*
X0878282Y0426247D01*
Y0424248D01*
X0877282Y0423248D01*
X0875283D01*
X0874283Y0424248D01*
X0866286Y0399248D02*
Y0405246D01*
X0863287Y0402247D01*
X0867285D01*
X0869285Y0399248D02*
Y0400248D01*
X0870284D01*
Y0399248D01*
X0869285D01*
X0878282D02*
X0874283D01*
X0878282Y0403247D01*
Y0404246D01*
X0877282Y0405246D01*
X0875283D01*
X0874283Y0404246D01*
X0866286Y0375248D02*
Y0381246D01*
X0863287Y0378247D01*
X0867285D01*
X0869285Y0375248D02*
Y0376248D01*
X0870284D01*
Y0375248D01*
X0869285D01*
X0878282D02*
X0874283D01*
X0878282Y0379247D01*
Y0380246D01*
X0877282Y0381246D01*
X0875283D01*
X0874283Y0380246D01*
X0866286Y0351248D02*
Y0357246D01*
X0863287Y0354247D01*
X0867285D01*
X0869285Y0351248D02*
Y0352248D01*
X0870284D01*
Y0351248D01*
X0869285D01*
X0878282D02*
X0874283D01*
X0878282Y0355247D01*
Y0356246D01*
X0877282Y0357246D01*
X0875283D01*
X0874283Y0356246D01*
X0863287Y0332246D02*
X0864286Y0333246D01*
X0866286D01*
X0867285Y0332246D01*
Y0331247D01*
X0866286Y0330247D01*
X0865286D01*
X0866286D01*
X0867285Y0329247D01*
Y0328248D01*
X0866286Y0327248D01*
X0864286D01*
X0863287Y0328248D01*
X0869285Y0327248D02*
Y0328248D01*
X0870284D01*
Y0327248D01*
X0869285D01*
X0878282Y0333246D02*
X0874283D01*
Y0330247D01*
X0876282Y0331247D01*
X0877282D01*
X0878282Y0330247D01*
Y0328248D01*
X0877282Y0327248D01*
X0875283D01*
X0874283Y0328248D01*
X0867285Y0452246D02*
X0866286Y0453246D01*
X0864286D01*
X0863287Y0452246D01*
Y0448248D01*
X0864286Y0447248D01*
X0866286D01*
X0867285Y0448248D01*
X0870284Y0447248D02*
X0872284D01*
X0873283Y0448248D01*
Y0450247D01*
X0872284Y0451247D01*
X0870284D01*
X0869285Y0450247D01*
Y0448248D01*
X0870284Y0447248D01*
X0875283D02*
Y0451247D01*
X0878282D01*
X0879282Y0450247D01*
Y0447248D01*
X0881281D02*
X0884280D01*
X0885279Y0448248D01*
X0884280Y0449247D01*
X0882281D01*
X0881281Y0450247D01*
X0882281Y0451247D01*
X0885279D01*
X0888278Y0452246D02*
Y0451247D01*
X0887279D01*
X0889278D01*
X0888278D01*
Y0448248D01*
X0889278Y0447248D01*
X0893277Y0451247D02*
X0895276D01*
X0896276Y0450247D01*
Y0447248D01*
X0893277D01*
X0892277Y0448248D01*
X0893277Y0449247D01*
X0896276D01*
X0898275Y0447248D02*
Y0451247D01*
X0901274D01*
X0902274Y0450247D01*
Y0447248D01*
X0905273Y0452246D02*
Y0451247D01*
X0904273D01*
X0906273D01*
X0905273D01*
Y0448248D01*
X0906273Y0447248D01*
X0798303Y0428246D02*
X0799303Y0429246D01*
X0801302D01*
X0802302Y0428246D01*
Y0424248D01*
X0801302Y0423248D01*
X0799303D01*
X0798303Y0424248D01*
Y0428246D01*
X0804301Y0423248D02*
Y0424248D01*
X0805301D01*
Y0423248D01*
X0804301D01*
X0812299D02*
Y0429246D01*
X0809300Y0426247D01*
X0813298D01*
X0815298Y0428246D02*
X0816297Y0429246D01*
X0818297D01*
X0819296Y0428246D01*
Y0424248D01*
X0818297Y0423248D01*
X0816297D01*
X0815298Y0424248D01*
Y0428246D01*
X0821296Y0423248D02*
Y0427247D01*
X0822295D01*
X0823295Y0426247D01*
Y0423248D01*
Y0426247D01*
X0824295Y0427247D01*
X0825294Y0426247D01*
Y0423248D01*
X0827294D02*
X0829293D01*
X0828293D01*
Y0427247D01*
X0827294D01*
X0832292Y0423248D02*
X0834291D01*
X0833292D01*
Y0429246D01*
X0832292D01*
X0798303Y0411248D02*
X0800303D01*
X0799303D01*
Y0417246D01*
X0798303Y0416246D01*
X0803302Y0411248D02*
Y0412248D01*
X0804301D01*
Y0411248D01*
X0803302D01*
X0811299D02*
Y0417246D01*
X0808300Y0414247D01*
X0812299D01*
X0814298Y0416246D02*
X0815298Y0417246D01*
X0817297D01*
X0818297Y0416246D01*
Y0412248D01*
X0817297Y0411248D01*
X0815298D01*
X0814298Y0412248D01*
Y0416246D01*
X0820296Y0411248D02*
Y0415247D01*
X0821296D01*
X0822295Y0414247D01*
Y0411248D01*
Y0414247D01*
X0823295Y0415247D01*
X0824295Y0414247D01*
Y0411248D01*
X0826294D02*
X0828293D01*
X0827294D01*
Y0415247D01*
X0826294D01*
X0831292Y0411248D02*
X0833292D01*
X0832292D01*
Y0417246D01*
X0831292D01*
X0798303Y0399248D02*
X0800303D01*
X0799303D01*
Y0405246D01*
X0798303Y0404246D01*
X0803302D02*
X0804301Y0405246D01*
X0806301D01*
X0807300Y0404246D01*
Y0400248D01*
X0806301Y0399248D01*
X0804301D01*
X0803302Y0400248D01*
Y0404246D01*
X0809300Y0399248D02*
Y0400248D01*
X0810299D01*
Y0399248D01*
X0809300D01*
X0814298Y0404246D02*
X0815298Y0405246D01*
X0817297D01*
X0818297Y0404246D01*
Y0400248D01*
X0817297Y0399248D01*
X0815298D01*
X0814298Y0400248D01*
Y0404246D01*
X0820296D02*
X0821296Y0405246D01*
X0823295D01*
X0824295Y0404246D01*
Y0400248D01*
X0823295Y0399248D01*
X0821296D01*
X0820296Y0400248D01*
Y0404246D01*
X0826294Y0399248D02*
Y0403247D01*
X0827294D01*
X0828293Y0402247D01*
Y0399248D01*
Y0402247D01*
X0829293Y0403247D01*
X0830293Y0402247D01*
Y0399248D01*
X0832292D02*
X0834291D01*
X0833292D01*
Y0403247D01*
X0832292D01*
X0837290Y0399248D02*
X0839290D01*
X0838290D01*
Y0405246D01*
X0837290D01*
X0798303Y0387248D02*
X0800303D01*
X0799303D01*
Y0393246D01*
X0798303Y0392246D01*
X0803302Y0387248D02*
Y0388248D01*
X0804301D01*
Y0387248D01*
X0803302D01*
X0811299D02*
Y0393246D01*
X0808300Y0390247D01*
X0812299D01*
X0818297Y0387248D02*
X0814298D01*
X0818297Y0391247D01*
Y0392246D01*
X0817297Y0393246D01*
X0815298D01*
X0814298Y0392246D01*
X0820296Y0387248D02*
Y0391247D01*
X0821296D01*
X0822295Y0390247D01*
Y0387248D01*
Y0390247D01*
X0823295Y0391247D01*
X0824295Y0390247D01*
Y0387248D01*
X0826294D02*
X0828293D01*
X0827294D01*
Y0391247D01*
X0826294D01*
X0831292Y0387248D02*
X0833292D01*
X0832292D01*
Y0393246D01*
X0831292D01*
X0802302Y0381246D02*
X0798303D01*
Y0378247D01*
X0800303Y0379247D01*
X0801302D01*
X0802302Y0378247D01*
Y0376248D01*
X0801302Y0375248D01*
X0799303D01*
X0798303Y0376248D01*
X0804301Y0375248D02*
Y0376248D01*
X0805301D01*
Y0375248D01*
X0804301D01*
X0809300Y0380246D02*
X0810299Y0381246D01*
X0812299D01*
X0813298Y0380246D01*
Y0376248D01*
X0812299Y0375248D01*
X0810299D01*
X0809300Y0376248D01*
Y0380246D01*
X0815298D02*
X0816297Y0381246D01*
X0818297D01*
X0819296Y0380246D01*
Y0376248D01*
X0818297Y0375248D01*
X0816297D01*
X0815298Y0376248D01*
Y0380246D01*
X0821296Y0375248D02*
Y0379247D01*
X0822295D01*
X0823295Y0378247D01*
Y0375248D01*
Y0378247D01*
X0824295Y0379247D01*
X0825294Y0378247D01*
Y0375248D01*
X0827294D02*
X0829293D01*
X0828293D01*
Y0379247D01*
X0827294D01*
X0832292Y0375248D02*
X0834291D01*
X0833292D01*
Y0381246D01*
X0832292D01*
X0798303Y0363248D02*
X0800303D01*
X0799303D01*
Y0369246D01*
X0798303Y0368246D01*
X0803302Y0363248D02*
Y0364248D01*
X0804301D01*
Y0363248D01*
X0803302D01*
X0811299D02*
Y0369246D01*
X0808300Y0366247D01*
X0812299D01*
X0818297Y0363248D02*
X0814298D01*
X0818297Y0367247D01*
Y0368246D01*
X0817297Y0369246D01*
X0815298D01*
X0814298Y0368246D01*
X0820296Y0363248D02*
Y0367247D01*
X0821296D01*
X0822295Y0366247D01*
Y0363248D01*
Y0366247D01*
X0823295Y0367247D01*
X0824295Y0366247D01*
Y0363248D01*
X0826294D02*
X0828293D01*
X0827294D01*
Y0367247D01*
X0826294D01*
X0831292Y0363248D02*
X0833292D01*
X0832292D01*
Y0369246D01*
X0831292D01*
X0798303Y0351248D02*
X0800303D01*
X0799303D01*
Y0357246D01*
X0798303Y0356246D01*
X0803302D02*
X0804301Y0357246D01*
X0806301D01*
X0807300Y0356246D01*
Y0352248D01*
X0806301Y0351248D01*
X0804301D01*
X0803302Y0352248D01*
Y0356246D01*
X0809300Y0351248D02*
Y0352248D01*
X0810299D01*
Y0351248D01*
X0809300D01*
X0814298Y0356246D02*
X0815298Y0357246D01*
X0817297D01*
X0818297Y0356246D01*
Y0352248D01*
X0817297Y0351248D01*
X0815298D01*
X0814298Y0352248D01*
Y0356246D01*
X0820296D02*
X0821296Y0357246D01*
X0823295D01*
X0824295Y0356246D01*
Y0352248D01*
X0823295Y0351248D01*
X0821296D01*
X0820296Y0352248D01*
Y0356246D01*
X0826294Y0351248D02*
Y0355247D01*
X0827294D01*
X0828293Y0354247D01*
Y0351248D01*
Y0354247D01*
X0829293Y0355247D01*
X0830293Y0354247D01*
Y0351248D01*
X0832292D02*
X0834291D01*
X0833292D01*
Y0355247D01*
X0832292D01*
X0837290Y0351248D02*
X0839290D01*
X0838290D01*
Y0357246D01*
X0837290D01*
X0798303Y0339248D02*
X0800303D01*
X0799303D01*
Y0345246D01*
X0798303Y0344246D01*
X0803302Y0339248D02*
Y0340248D01*
X0804301D01*
Y0339248D01*
X0803302D01*
X0811299D02*
Y0345246D01*
X0808300Y0342247D01*
X0812299D01*
X0814298Y0344246D02*
X0815298Y0345246D01*
X0817297D01*
X0818297Y0344246D01*
Y0340248D01*
X0817297Y0339248D01*
X0815298D01*
X0814298Y0340248D01*
Y0344246D01*
X0820296Y0339248D02*
Y0343247D01*
X0821296D01*
X0822295Y0342247D01*
Y0339248D01*
Y0342247D01*
X0823295Y0343247D01*
X0824295Y0342247D01*
Y0339248D01*
X0826294D02*
X0828293D01*
X0827294D01*
Y0343247D01*
X0826294D01*
X0831292Y0339248D02*
X0833292D01*
X0832292D01*
Y0345246D01*
X0831292D01*
X0798303Y0332246D02*
X0799303Y0333246D01*
X0801302D01*
X0802302Y0332246D01*
Y0328248D01*
X0801302Y0327248D01*
X0799303D01*
X0798303Y0328248D01*
Y0332246D01*
X0804301Y0327248D02*
Y0328248D01*
X0805301D01*
Y0327248D01*
X0804301D01*
X0812299D02*
Y0333246D01*
X0809300Y0330247D01*
X0813298D01*
X0815298Y0332246D02*
X0816297Y0333246D01*
X0818297D01*
X0819296Y0332246D01*
Y0328248D01*
X0818297Y0327248D01*
X0816297D01*
X0815298Y0328248D01*
Y0332246D01*
X0821296Y0327248D02*
Y0331247D01*
X0822295D01*
X0823295Y0330247D01*
Y0327248D01*
Y0330247D01*
X0824295Y0331247D01*
X0825294Y0330247D01*
Y0327248D01*
X0827294D02*
X0829293D01*
X0828293D01*
Y0331247D01*
X0827294D01*
X0832292Y0327248D02*
X0834291D01*
X0833292D01*
Y0333246D01*
X0832292D01*
X0798303Y0453246D02*
X0802302D01*
X0800303D01*
Y0447248D01*
X0804301Y0453246D02*
Y0447248D01*
Y0450247D01*
X0805301Y0451247D01*
X0807300D01*
X0808300Y0450247D01*
Y0447248D01*
X0810299D02*
X0812299D01*
X0811299D01*
Y0451247D01*
X0810299D01*
X0819296D02*
X0816297D01*
X0815298Y0450247D01*
Y0448248D01*
X0816297Y0447248D01*
X0819296D01*
X0821296D02*
Y0453246D01*
Y0449247D02*
X0824295Y0451247D01*
X0821296Y0449247D02*
X0824295Y0447248D01*
X0827294D02*
Y0451247D01*
X0830293D01*
X0831292Y0450247D01*
Y0447248D01*
X0836291D02*
X0834291D01*
X0833292Y0448248D01*
Y0450247D01*
X0834291Y0451247D01*
X0836291D01*
X0837290Y0450247D01*
Y0449247D01*
X0833292D01*
X0839290Y0447248D02*
X0842289D01*
X0843289Y0448248D01*
X0842289Y0449247D01*
X0840289D01*
X0839290Y0450247D01*
X0840289Y0451247D01*
X0843289D01*
X0845288Y0447248D02*
X0848287D01*
X0849287Y0448248D01*
X0848287Y0449247D01*
X0846288D01*
X0845288Y0450247D01*
X0846288Y0451247D01*
X0849287D01*
X0716325Y0428246D02*
X0715325Y0429246D01*
X0713326D01*
X0712326Y0428246D01*
Y0427247D01*
X0713326Y0426247D01*
X0715325D01*
X0716325Y0425247D01*
Y0424248D01*
X0715325Y0423248D01*
X0713326D01*
X0712326Y0424248D01*
X0719324Y0423248D02*
X0721323D01*
X0722323Y0424248D01*
Y0426247D01*
X0721323Y0427247D01*
X0719324D01*
X0718325Y0426247D01*
Y0424248D01*
X0719324Y0423248D01*
X0724323D02*
X0726322D01*
X0725322D01*
Y0429246D01*
X0724323D01*
X0733320D02*
Y0423248D01*
X0730321D01*
X0729321Y0424248D01*
Y0426247D01*
X0730321Y0427247D01*
X0733320D01*
X0738318Y0423248D02*
X0736319D01*
X0735319Y0424248D01*
Y0426247D01*
X0736319Y0427247D01*
X0738318D01*
X0739318Y0426247D01*
Y0425247D01*
X0735319D01*
X0741317Y0427247D02*
Y0423248D01*
Y0425247D01*
X0742317Y0426247D01*
X0743316Y0427247D01*
X0744316D01*
X0753313Y0423248D02*
Y0429246D01*
X0756312D01*
X0757312Y0428246D01*
Y0426247D01*
X0756312Y0425247D01*
X0753313D01*
X0755312D02*
X0757312Y0423248D01*
X0762310D02*
X0760311D01*
X0759311Y0424248D01*
Y0426247D01*
X0760311Y0427247D01*
X0762310D01*
X0763310Y0426247D01*
Y0425247D01*
X0759311D01*
X0765309Y0423248D02*
X0768308D01*
X0769308Y0424248D01*
X0768308Y0425247D01*
X0766309D01*
X0765309Y0426247D01*
X0766309Y0427247D01*
X0769308D01*
X0771307Y0423248D02*
X0773307D01*
X0772307D01*
Y0427247D01*
X0771307D01*
X0776306Y0423248D02*
X0779305D01*
X0780304Y0424248D01*
X0779305Y0425247D01*
X0777305D01*
X0776306Y0426247D01*
X0777305Y0427247D01*
X0780304D01*
X0783303Y0428246D02*
Y0427247D01*
X0782304D01*
X0784303D01*
X0783303D01*
Y0424248D01*
X0784303Y0423248D01*
X0716325Y0416246D02*
X0715325Y0417246D01*
X0713326D01*
X0712326Y0416246D01*
Y0412248D01*
X0713326Y0411248D01*
X0715325D01*
X0716325Y0412248D01*
X0719324Y0411248D02*
X0721323D01*
X0722323Y0412248D01*
Y0414247D01*
X0721323Y0415247D01*
X0719324D01*
X0718325Y0414247D01*
Y0412248D01*
X0719324Y0411248D01*
X0724323Y0409249D02*
Y0415247D01*
X0727322D01*
X0728321Y0414247D01*
Y0412248D01*
X0727322Y0411248D01*
X0724323D01*
X0730321Y0409249D02*
Y0415247D01*
X0733320D01*
X0734319Y0414247D01*
Y0412248D01*
X0733320Y0411248D01*
X0730321D01*
X0739318D02*
X0737318D01*
X0736319Y0412248D01*
Y0414247D01*
X0737318Y0415247D01*
X0739318D01*
X0740317Y0414247D01*
Y0413247D01*
X0736319D01*
X0742317Y0415247D02*
Y0411248D01*
Y0413247D01*
X0743316Y0414247D01*
X0744316Y0415247D01*
X0745316D01*
X0716325Y0405246D02*
X0712326D01*
Y0402247D01*
X0714326D01*
X0712326D01*
Y0399248D01*
X0718325D02*
Y0405246D01*
X0721323D01*
X0722323Y0404246D01*
Y0402247D01*
X0721323Y0401247D01*
X0718325D01*
X0720324D02*
X0722323Y0399248D01*
X0724323Y0402247D02*
X0728321D01*
X0733320Y0399248D02*
Y0405246D01*
X0730321Y0402247D01*
X0734319D01*
X0716325Y0392246D02*
X0715325Y0393246D01*
X0713326D01*
X0712326Y0392246D01*
Y0388248D01*
X0713326Y0387248D01*
X0715325D01*
X0716325Y0388248D01*
X0719324Y0387248D02*
X0721323D01*
X0722323Y0388248D01*
Y0390247D01*
X0721323Y0391247D01*
X0719324D01*
X0718325Y0390247D01*
Y0388248D01*
X0719324Y0387248D01*
X0724323Y0385249D02*
Y0391247D01*
X0727322D01*
X0728321Y0390247D01*
Y0388248D01*
X0727322Y0387248D01*
X0724323D01*
X0730321Y0385249D02*
Y0391247D01*
X0733320D01*
X0734319Y0390247D01*
Y0388248D01*
X0733320Y0387248D01*
X0730321D01*
X0739318D02*
X0737318D01*
X0736319Y0388248D01*
Y0390247D01*
X0737318Y0391247D01*
X0739318D01*
X0740317Y0390247D01*
Y0389247D01*
X0736319D01*
X0742317Y0391247D02*
Y0387248D01*
Y0389247D01*
X0743316Y0390247D01*
X0744316Y0391247D01*
X0745316D01*
X0716325Y0368246D02*
X0715325Y0369246D01*
X0713326D01*
X0712326Y0368246D01*
Y0364248D01*
X0713326Y0363248D01*
X0715325D01*
X0716325Y0364248D01*
X0719324Y0363248D02*
X0721323D01*
X0722323Y0364248D01*
Y0366247D01*
X0721323Y0367247D01*
X0719324D01*
X0718325Y0366247D01*
Y0364248D01*
X0719324Y0363248D01*
X0724323Y0361249D02*
Y0367247D01*
X0727322D01*
X0728321Y0366247D01*
Y0364248D01*
X0727322Y0363248D01*
X0724323D01*
X0730321Y0361249D02*
Y0367247D01*
X0733320D01*
X0734319Y0366247D01*
Y0364248D01*
X0733320Y0363248D01*
X0730321D01*
X0739318D02*
X0737318D01*
X0736319Y0364248D01*
Y0366247D01*
X0737318Y0367247D01*
X0739318D01*
X0740317Y0366247D01*
Y0365247D01*
X0736319D01*
X0742317Y0367247D02*
Y0363248D01*
Y0365247D01*
X0743316Y0366247D01*
X0744316Y0367247D01*
X0745316D01*
X0716325Y0357246D02*
X0712326D01*
Y0354247D01*
X0714326D01*
X0712326D01*
Y0351248D01*
X0718325D02*
Y0357246D01*
X0721323D01*
X0722323Y0356246D01*
Y0354247D01*
X0721323Y0353247D01*
X0718325D01*
X0720324D02*
X0722323Y0351248D01*
X0724323Y0354247D02*
X0728321D01*
X0733320Y0351248D02*
Y0357246D01*
X0730321Y0354247D01*
X0734319D01*
X0716325Y0344246D02*
X0715325Y0345246D01*
X0713326D01*
X0712326Y0344246D01*
Y0340248D01*
X0713326Y0339248D01*
X0715325D01*
X0716325Y0340248D01*
X0719324Y0339248D02*
X0721323D01*
X0722323Y0340248D01*
Y0342247D01*
X0721323Y0343247D01*
X0719324D01*
X0718325Y0342247D01*
Y0340248D01*
X0719324Y0339248D01*
X0724323Y0337249D02*
Y0343247D01*
X0727322D01*
X0728321Y0342247D01*
Y0340248D01*
X0727322Y0339248D01*
X0724323D01*
X0730321Y0337249D02*
Y0343247D01*
X0733320D01*
X0734319Y0342247D01*
Y0340248D01*
X0733320Y0339248D01*
X0730321D01*
X0739318D02*
X0737318D01*
X0736319Y0340248D01*
Y0342247D01*
X0737318Y0343247D01*
X0739318D01*
X0740317Y0342247D01*
Y0341247D01*
X0736319D01*
X0742317Y0343247D02*
Y0339248D01*
Y0341247D01*
X0743316Y0342247D01*
X0744316Y0343247D01*
X0745316D01*
X0716325Y0332246D02*
X0715325Y0333246D01*
X0713326D01*
X0712326Y0332246D01*
Y0331247D01*
X0713326Y0330247D01*
X0715325D01*
X0716325Y0329247D01*
Y0328248D01*
X0715325Y0327248D01*
X0713326D01*
X0712326Y0328248D01*
X0719324Y0327248D02*
X0721323D01*
X0722323Y0328248D01*
Y0330247D01*
X0721323Y0331247D01*
X0719324D01*
X0718325Y0330247D01*
Y0328248D01*
X0719324Y0327248D01*
X0724323D02*
X0726322D01*
X0725322D01*
Y0333246D01*
X0724323D01*
X0733320D02*
Y0327248D01*
X0730321D01*
X0729321Y0328248D01*
Y0330247D01*
X0730321Y0331247D01*
X0733320D01*
X0738318Y0327248D02*
X0736319D01*
X0735319Y0328248D01*
Y0330247D01*
X0736319Y0331247D01*
X0738318D01*
X0739318Y0330247D01*
Y0329247D01*
X0735319D01*
X0741317Y0331247D02*
Y0327248D01*
Y0329247D01*
X0742317Y0330247D01*
X0743316Y0331247D01*
X0744316D01*
X0753313Y0327248D02*
Y0333246D01*
X0756312D01*
X0757312Y0332246D01*
Y0330247D01*
X0756312Y0329247D01*
X0753313D01*
X0755312D02*
X0757312Y0327248D01*
X0762310D02*
X0760311D01*
X0759311Y0328248D01*
Y0330247D01*
X0760311Y0331247D01*
X0762310D01*
X0763310Y0330247D01*
Y0329247D01*
X0759311D01*
X0765309Y0327248D02*
X0768308D01*
X0769308Y0328248D01*
X0768308Y0329247D01*
X0766309D01*
X0765309Y0330247D01*
X0766309Y0331247D01*
X0769308D01*
X0771307Y0327248D02*
X0773307D01*
X0772307D01*
Y0331247D01*
X0771307D01*
X0776306Y0327248D02*
X0779305D01*
X0780304Y0328248D01*
X0779305Y0329247D01*
X0777305D01*
X0776306Y0330247D01*
X0777305Y0331247D01*
X0780304D01*
X0783303Y0332246D02*
Y0331247D01*
X0782304D01*
X0784303D01*
X0783303D01*
Y0328248D01*
X0784303Y0327248D01*
X0712326Y0447248D02*
Y0453246D01*
X0714326Y0451247D01*
X0716325Y0453246D01*
Y0447248D01*
X0719324Y0451247D02*
X0721323D01*
X0722323Y0450247D01*
Y0447248D01*
X0719324D01*
X0718325Y0448248D01*
X0719324Y0449247D01*
X0722323D01*
X0725322Y0452246D02*
Y0451247D01*
X0724323D01*
X0726322D01*
X0725322D01*
Y0448248D01*
X0726322Y0447248D01*
X0732320D02*
X0730321D01*
X0729321Y0448248D01*
Y0450247D01*
X0730321Y0451247D01*
X0732320D01*
X0733320Y0450247D01*
Y0449247D01*
X0729321D01*
X0735319Y0451247D02*
Y0447248D01*
Y0449247D01*
X0736319Y0450247D01*
X0737318Y0451247D01*
X0738318D01*
X0741317Y0447248D02*
X0743316D01*
X0742317D01*
Y0451247D01*
X0741317D01*
X0747315D02*
X0749314D01*
X0750314Y0450247D01*
Y0447248D01*
X0747315D01*
X0746315Y0448248D01*
X0747315Y0449247D01*
X0750314D01*
X0752314Y0447248D02*
X0754313D01*
X0753313D01*
Y0453246D01*
X0752314D01*
X0608356Y0441246D02*
X0612354D01*
X0610355D01*
Y0435248D01*
X0615353D02*
X0617353D01*
X0618352Y0436248D01*
Y0438247D01*
X0617353Y0439247D01*
X0615353D01*
X0614354Y0438247D01*
Y0436248D01*
X0615353Y0435248D01*
X0620352Y0433249D02*
Y0439247D01*
X0623351D01*
X0624350Y0438247D01*
Y0436248D01*
X0623351Y0435248D01*
X0620352D01*
X0635347Y0441246D02*
X0633347D01*
X0632348Y0440246D01*
Y0436248D01*
X0633347Y0435248D01*
X0635347D01*
X0636346Y0436248D01*
Y0440246D01*
X0635347Y0441246D01*
X0638346Y0439247D02*
X0640345Y0435248D01*
X0642345Y0439247D01*
X0647343Y0435248D02*
X0645344D01*
X0644344Y0436248D01*
Y0438247D01*
X0645344Y0439247D01*
X0647343D01*
X0648343Y0438247D01*
Y0437247D01*
X0644344D01*
X0650342Y0439247D02*
Y0435248D01*
Y0437247D01*
X0651342Y0438247D01*
X0652341Y0439247D01*
X0653341D01*
X0656340Y0435248D02*
X0658339D01*
X0657340D01*
Y0441246D01*
X0656340D01*
X0662338Y0439247D02*
X0664337D01*
X0665337Y0438247D01*
Y0435248D01*
X0662338D01*
X0661338Y0436248D01*
X0662338Y0437247D01*
X0665337D01*
X0667336Y0439247D02*
Y0436248D01*
X0668336Y0435248D01*
X0671335D01*
Y0434248D01*
X0670335Y0433249D01*
X0669336D01*
X0671335Y0435248D02*
Y0439247D01*
X0608356Y0429246D02*
X0612354D01*
X0610355D01*
Y0423248D01*
X0615353D02*
X0617353D01*
X0618352Y0424248D01*
Y0426247D01*
X0617353Y0427247D01*
X0615353D01*
X0614354Y0426247D01*
Y0424248D01*
X0615353Y0423248D01*
X0620352Y0421249D02*
Y0427247D01*
X0623351D01*
X0624350Y0426247D01*
Y0424248D01*
X0623351Y0423248D01*
X0620352D01*
X0636346Y0428246D02*
X0635347Y0429246D01*
X0633347D01*
X0632348Y0428246D01*
Y0427247D01*
X0633347Y0426247D01*
X0635347D01*
X0636346Y0425247D01*
Y0424248D01*
X0635347Y0423248D01*
X0633347D01*
X0632348Y0424248D01*
X0639346Y0423248D02*
X0641345D01*
X0642345Y0424248D01*
Y0426247D01*
X0641345Y0427247D01*
X0639346D01*
X0638346Y0426247D01*
Y0424248D01*
X0639346Y0423248D01*
X0644344D02*
X0646343D01*
X0645344D01*
Y0429246D01*
X0644344D01*
X0653341D02*
Y0423248D01*
X0650342D01*
X0649342Y0424248D01*
Y0426247D01*
X0650342Y0427247D01*
X0653341D01*
X0658339Y0423248D02*
X0656340D01*
X0655340Y0424248D01*
Y0426247D01*
X0656340Y0427247D01*
X0658339D01*
X0659339Y0426247D01*
Y0425247D01*
X0655340D01*
X0661338Y0427247D02*
Y0423248D01*
Y0425247D01*
X0662338Y0426247D01*
X0663338Y0427247D01*
X0664337D01*
X0608356Y0417246D02*
X0612354D01*
X0610355D01*
Y0411248D01*
X0615353D02*
X0617353D01*
X0618352Y0412248D01*
Y0414247D01*
X0617353Y0415247D01*
X0615353D01*
X0614354Y0414247D01*
Y0412248D01*
X0615353Y0411248D01*
X0620352Y0409249D02*
Y0415247D01*
X0623351D01*
X0624350Y0414247D01*
Y0412248D01*
X0623351Y0411248D01*
X0620352D01*
X0632348Y0417246D02*
Y0411248D01*
X0636346D01*
X0639346Y0415247D02*
X0641345D01*
X0642345Y0414247D01*
Y0411248D01*
X0639346D01*
X0638346Y0412248D01*
X0639346Y0413247D01*
X0642345D01*
X0644344Y0415247D02*
Y0412248D01*
X0645344Y0411248D01*
X0648343D01*
Y0410248D01*
X0647343Y0409249D01*
X0646343D01*
X0648343Y0411248D02*
Y0415247D01*
X0653341Y0411248D02*
X0651342D01*
X0650342Y0412248D01*
Y0414247D01*
X0651342Y0415247D01*
X0653341D01*
X0654341Y0414247D01*
Y0413247D01*
X0650342D01*
X0656340Y0415247D02*
Y0411248D01*
Y0413247D01*
X0657340Y0414247D01*
X0658339Y0415247D01*
X0659339D01*
X0608356Y0405246D02*
Y0399248D01*
X0611355D01*
X0612354Y0400248D01*
Y0404246D01*
X0611355Y0405246D01*
X0608356D01*
X0614354Y0399248D02*
X0616353D01*
X0615353D01*
Y0403247D01*
X0614354D01*
X0622351Y0399248D02*
X0620352D01*
X0619352Y0400248D01*
Y0402247D01*
X0620352Y0403247D01*
X0622351D01*
X0623351Y0402247D01*
Y0401247D01*
X0619352D01*
X0625350Y0399248D02*
X0627349D01*
X0626350D01*
Y0405246D01*
X0625350D01*
X0633347Y0399248D02*
X0631348D01*
X0630348Y0400248D01*
Y0402247D01*
X0631348Y0403247D01*
X0633347D01*
X0634347Y0402247D01*
Y0401247D01*
X0630348D01*
X0640345Y0403247D02*
X0637346D01*
X0636346Y0402247D01*
Y0400248D01*
X0637346Y0399248D01*
X0640345D01*
X0643344Y0404246D02*
Y0403247D01*
X0642345D01*
X0644344D01*
X0643344D01*
Y0400248D01*
X0644344Y0399248D01*
X0647343Y0403247D02*
Y0399248D01*
Y0401247D01*
X0648343Y0402247D01*
X0649342Y0403247D01*
X0650342D01*
X0653341Y0399248D02*
X0655340D01*
X0654341D01*
Y0403247D01*
X0653341D01*
X0662338D02*
X0659339D01*
X0658339Y0402247D01*
Y0400248D01*
X0659339Y0399248D01*
X0662338D01*
X0670335D02*
X0672335D01*
X0671335D01*
Y0405246D01*
X0670335Y0404246D01*
X0608356Y0393246D02*
X0610355D01*
X0609355D01*
Y0387248D01*
X0608356D01*
X0610355D01*
X0613354D02*
Y0391247D01*
X0616353D01*
X0617353Y0390247D01*
Y0387248D01*
X0620352Y0392246D02*
Y0391247D01*
X0619352D01*
X0621351D01*
X0620352D01*
Y0388248D01*
X0621351Y0387248D01*
X0627349D02*
X0625350D01*
X0624350Y0388248D01*
Y0390247D01*
X0625350Y0391247D01*
X0627349D01*
X0628349Y0390247D01*
Y0389247D01*
X0624350D01*
X0630348Y0391247D02*
Y0387248D01*
Y0389247D01*
X0631348Y0390247D01*
X0632348Y0391247D01*
X0633347D01*
X0636346Y0387248D02*
Y0391247D01*
X0639346D01*
X0640345Y0390247D01*
Y0387248D01*
X0643344Y0391247D02*
X0645343D01*
X0646343Y0390247D01*
Y0387248D01*
X0643344D01*
X0642345Y0388248D01*
X0643344Y0389247D01*
X0646343D01*
X0648343Y0387248D02*
X0650342D01*
X0649342D01*
Y0393246D01*
X0648343D01*
X0659339Y0387248D02*
Y0393246D01*
X0662338D01*
X0663338Y0392246D01*
Y0390247D01*
X0662338Y0389247D01*
X0659339D01*
X0665337Y0387248D02*
X0667336D01*
X0666337D01*
Y0393246D01*
X0665337D01*
X0671335Y0391247D02*
X0673335D01*
X0674334Y0390247D01*
Y0387248D01*
X0671335D01*
X0670335Y0388248D01*
X0671335Y0389247D01*
X0674334D01*
X0676334Y0387248D02*
Y0391247D01*
X0679332D01*
X0680332Y0390247D01*
Y0387248D01*
X0685331D02*
X0683331D01*
X0682332Y0388248D01*
Y0390247D01*
X0683331Y0391247D01*
X0685331D01*
X0686330Y0390247D01*
Y0389247D01*
X0682332D01*
X0694328Y0387248D02*
X0696327D01*
X0695327D01*
Y0393246D01*
X0694328Y0392246D01*
X0608356Y0381246D02*
Y0375248D01*
X0611355D01*
X0612354Y0376248D01*
Y0380246D01*
X0611355Y0381246D01*
X0608356D01*
X0614354Y0375248D02*
X0616353D01*
X0615353D01*
Y0379247D01*
X0614354D01*
X0622351Y0375248D02*
X0620352D01*
X0619352Y0376248D01*
Y0378247D01*
X0620352Y0379247D01*
X0622351D01*
X0623351Y0378247D01*
Y0377247D01*
X0619352D01*
X0625350Y0375248D02*
X0627349D01*
X0626350D01*
Y0381246D01*
X0625350D01*
X0633347Y0375248D02*
X0631348D01*
X0630348Y0376248D01*
Y0378247D01*
X0631348Y0379247D01*
X0633347D01*
X0634347Y0378247D01*
Y0377247D01*
X0630348D01*
X0640345Y0379247D02*
X0637346D01*
X0636346Y0378247D01*
Y0376248D01*
X0637346Y0375248D01*
X0640345D01*
X0643344Y0380246D02*
Y0379247D01*
X0642345D01*
X0644344D01*
X0643344D01*
Y0376248D01*
X0644344Y0375248D01*
X0647343Y0379247D02*
Y0375248D01*
Y0377247D01*
X0648343Y0378247D01*
X0649342Y0379247D01*
X0650342D01*
X0653341Y0375248D02*
X0655340D01*
X0654341D01*
Y0379247D01*
X0653341D01*
X0662338D02*
X0659339D01*
X0658339Y0378247D01*
Y0376248D01*
X0659339Y0375248D01*
X0662338D01*
X0670335Y0380246D02*
X0671335Y0381246D01*
X0673335D01*
X0674334Y0380246D01*
Y0379247D01*
X0673335Y0378247D01*
X0672335D01*
X0673335D01*
X0674334Y0377247D01*
Y0376248D01*
X0673335Y0375248D01*
X0671335D01*
X0670335Y0376248D01*
X0608356Y0369246D02*
X0610355D01*
X0609355D01*
Y0363248D01*
X0608356D01*
X0610355D01*
X0613354D02*
Y0367247D01*
X0616353D01*
X0617353Y0366247D01*
Y0363248D01*
X0620352Y0368246D02*
Y0367247D01*
X0619352D01*
X0621351D01*
X0620352D01*
Y0364248D01*
X0621351Y0363248D01*
X0627349D02*
X0625350D01*
X0624350Y0364248D01*
Y0366247D01*
X0625350Y0367247D01*
X0627349D01*
X0628349Y0366247D01*
Y0365247D01*
X0624350D01*
X0630348Y0367247D02*
Y0363248D01*
Y0365247D01*
X0631348Y0366247D01*
X0632348Y0367247D01*
X0633347D01*
X0636346Y0363248D02*
Y0367247D01*
X0639346D01*
X0640345Y0366247D01*
Y0363248D01*
X0643344Y0367247D02*
X0645343D01*
X0646343Y0366247D01*
Y0363248D01*
X0643344D01*
X0642345Y0364248D01*
X0643344Y0365247D01*
X0646343D01*
X0648343Y0363248D02*
X0650342D01*
X0649342D01*
Y0369246D01*
X0648343D01*
X0659339Y0363248D02*
Y0369246D01*
X0662338D01*
X0663338Y0368246D01*
Y0366247D01*
X0662338Y0365247D01*
X0659339D01*
X0665337Y0363248D02*
X0667336D01*
X0666337D01*
Y0369246D01*
X0665337D01*
X0671335Y0367247D02*
X0673335D01*
X0674334Y0366247D01*
Y0363248D01*
X0671335D01*
X0670335Y0364248D01*
X0671335Y0365247D01*
X0674334D01*
X0676334Y0363248D02*
Y0367247D01*
X0679332D01*
X0680332Y0366247D01*
Y0363248D01*
X0685331D02*
X0683331D01*
X0682332Y0364248D01*
Y0366247D01*
X0683331Y0367247D01*
X0685331D01*
X0686330Y0366247D01*
Y0365247D01*
X0682332D01*
X0698326Y0363248D02*
X0694328D01*
X0698326Y0367247D01*
Y0368246D01*
X0697327Y0369246D01*
X0695327D01*
X0694328Y0368246D01*
X0608356Y0357246D02*
Y0351248D01*
X0611355D01*
X0612354Y0352248D01*
Y0356246D01*
X0611355Y0357246D01*
X0608356D01*
X0614354Y0351248D02*
X0616353D01*
X0615353D01*
Y0355247D01*
X0614354D01*
X0622351Y0351248D02*
X0620352D01*
X0619352Y0352248D01*
Y0354247D01*
X0620352Y0355247D01*
X0622351D01*
X0623351Y0354247D01*
Y0353247D01*
X0619352D01*
X0625350Y0351248D02*
X0627349D01*
X0626350D01*
Y0357246D01*
X0625350D01*
X0633347Y0351248D02*
X0631348D01*
X0630348Y0352248D01*
Y0354247D01*
X0631348Y0355247D01*
X0633347D01*
X0634347Y0354247D01*
Y0353247D01*
X0630348D01*
X0640345Y0355247D02*
X0637346D01*
X0636346Y0354247D01*
Y0352248D01*
X0637346Y0351248D01*
X0640345D01*
X0643344Y0356246D02*
Y0355247D01*
X0642345D01*
X0644344D01*
X0643344D01*
Y0352248D01*
X0644344Y0351248D01*
X0647343Y0355247D02*
Y0351248D01*
Y0353247D01*
X0648343Y0354247D01*
X0649342Y0355247D01*
X0650342D01*
X0653341Y0351248D02*
X0655340D01*
X0654341D01*
Y0355247D01*
X0653341D01*
X0662338D02*
X0659339D01*
X0658339Y0354247D01*
Y0352248D01*
X0659339Y0351248D01*
X0662338D01*
X0674334D02*
X0670335D01*
X0674334Y0355247D01*
Y0356246D01*
X0673335Y0357246D01*
X0671335D01*
X0670335Y0356246D01*
X0608356Y0345246D02*
Y0339248D01*
X0611355D01*
X0612354Y0340248D01*
Y0341247D01*
X0611355Y0342247D01*
X0608356D01*
X0611355D01*
X0612354Y0343247D01*
Y0344246D01*
X0611355Y0345246D01*
X0608356D01*
X0615353Y0339248D02*
X0617353D01*
X0618352Y0340248D01*
Y0342247D01*
X0617353Y0343247D01*
X0615353D01*
X0614354Y0342247D01*
Y0340248D01*
X0615353Y0339248D01*
X0621351Y0344246D02*
Y0343247D01*
X0620352D01*
X0622351D01*
X0621351D01*
Y0340248D01*
X0622351Y0339248D01*
X0626350Y0344246D02*
Y0343247D01*
X0625350D01*
X0627349D01*
X0626350D01*
Y0340248D01*
X0627349Y0339248D01*
X0631348D02*
X0633347D01*
X0634347Y0340248D01*
Y0342247D01*
X0633347Y0343247D01*
X0631348D01*
X0630348Y0342247D01*
Y0340248D01*
X0631348Y0339248D01*
X0636346D02*
Y0343247D01*
X0637346D01*
X0638346Y0342247D01*
Y0339248D01*
Y0342247D01*
X0639346Y0343247D01*
X0640345Y0342247D01*
Y0339248D01*
X0648343Y0345246D02*
Y0339248D01*
X0652341D01*
X0655340Y0343247D02*
X0657340D01*
X0658339Y0342247D01*
Y0339248D01*
X0655340D01*
X0654341Y0340248D01*
X0655340Y0341247D01*
X0658339D01*
X0660339Y0343247D02*
Y0340248D01*
X0661338Y0339248D01*
X0664337D01*
Y0338248D01*
X0663338Y0337249D01*
X0662338D01*
X0664337Y0339248D02*
Y0343247D01*
X0669336Y0339248D02*
X0667336D01*
X0666337Y0340248D01*
Y0342247D01*
X0667336Y0343247D01*
X0669336D01*
X0670335Y0342247D01*
Y0341247D01*
X0666337D01*
X0672335Y0343247D02*
Y0339248D01*
Y0341247D01*
X0673335Y0342247D01*
X0674334Y0343247D01*
X0675334D01*
X0608356Y0333246D02*
Y0327248D01*
X0611355D01*
X0612354Y0328248D01*
Y0329247D01*
X0611355Y0330247D01*
X0608356D01*
X0611355D01*
X0612354Y0331247D01*
Y0332246D01*
X0611355Y0333246D01*
X0608356D01*
X0615353Y0327248D02*
X0617353D01*
X0618352Y0328248D01*
Y0330247D01*
X0617353Y0331247D01*
X0615353D01*
X0614354Y0330247D01*
Y0328248D01*
X0615353Y0327248D01*
X0621351Y0332246D02*
Y0331247D01*
X0620352D01*
X0622351D01*
X0621351D01*
Y0328248D01*
X0622351Y0327248D01*
X0626350Y0332246D02*
Y0331247D01*
X0625350D01*
X0627349D01*
X0626350D01*
Y0328248D01*
X0627349Y0327248D01*
X0631348D02*
X0633347D01*
X0634347Y0328248D01*
Y0330247D01*
X0633347Y0331247D01*
X0631348D01*
X0630348Y0330247D01*
Y0328248D01*
X0631348Y0327248D01*
X0636346D02*
Y0331247D01*
X0637346D01*
X0638346Y0330247D01*
Y0327248D01*
Y0330247D01*
X0639346Y0331247D01*
X0640345Y0330247D01*
Y0327248D01*
X0652341Y0332246D02*
X0651342Y0333246D01*
X0649342D01*
X0648343Y0332246D01*
Y0331247D01*
X0649342Y0330247D01*
X0651342D01*
X0652341Y0329247D01*
Y0328248D01*
X0651342Y0327248D01*
X0649342D01*
X0648343Y0328248D01*
X0655340Y0327248D02*
X0657340D01*
X0658339Y0328248D01*
Y0330247D01*
X0657340Y0331247D01*
X0655340D01*
X0654341Y0330247D01*
Y0328248D01*
X0655340Y0327248D01*
X0660339D02*
X0662338D01*
X0661338D01*
Y0333246D01*
X0660339D01*
X0669336D02*
Y0327248D01*
X0666337D01*
X0665337Y0328248D01*
Y0330247D01*
X0666337Y0331247D01*
X0669336D01*
X0674334Y0327248D02*
X0672335D01*
X0671335Y0328248D01*
Y0330247D01*
X0672335Y0331247D01*
X0674334D01*
X0675334Y0330247D01*
Y0329247D01*
X0671335D01*
X0677333Y0331247D02*
Y0327248D01*
Y0329247D01*
X0678333Y0330247D01*
X0679332Y0331247D01*
X0680332D01*
X0608356Y0321246D02*
Y0315248D01*
X0611355D01*
X0612354Y0316248D01*
Y0317247D01*
X0611355Y0318247D01*
X0608356D01*
X0611355D01*
X0612354Y0319247D01*
Y0320246D01*
X0611355Y0321246D01*
X0608356D01*
X0615353Y0315248D02*
X0617353D01*
X0618352Y0316248D01*
Y0318247D01*
X0617353Y0319247D01*
X0615353D01*
X0614354Y0318247D01*
Y0316248D01*
X0615353Y0315248D01*
X0621351Y0320246D02*
Y0319247D01*
X0620352D01*
X0622351D01*
X0621351D01*
Y0316248D01*
X0622351Y0315248D01*
X0626350Y0320246D02*
Y0319247D01*
X0625350D01*
X0627349D01*
X0626350D01*
Y0316248D01*
X0627349Y0315248D01*
X0631348D02*
X0633347D01*
X0634347Y0316248D01*
Y0318247D01*
X0633347Y0319247D01*
X0631348D01*
X0630348Y0318247D01*
Y0316248D01*
X0631348Y0315248D01*
X0636346D02*
Y0319247D01*
X0637346D01*
X0638346Y0318247D01*
Y0315248D01*
Y0318247D01*
X0639346Y0319247D01*
X0640345Y0318247D01*
Y0315248D01*
X0651342Y0321246D02*
X0649342D01*
X0648343Y0320246D01*
Y0316248D01*
X0649342Y0315248D01*
X0651342D01*
X0652341Y0316248D01*
Y0320246D01*
X0651342Y0321246D01*
X0654341Y0319247D02*
X0656340Y0315248D01*
X0658339Y0319247D01*
X0663338Y0315248D02*
X0661338D01*
X0660339Y0316248D01*
Y0318247D01*
X0661338Y0319247D01*
X0663338D01*
X0664337Y0318247D01*
Y0317247D01*
X0660339D01*
X0666337Y0319247D02*
Y0315248D01*
Y0317247D01*
X0667336Y0318247D01*
X0668336Y0319247D01*
X0669336D01*
X0672335Y0315248D02*
X0674334D01*
X0673335D01*
Y0321246D01*
X0672335D01*
X0678333Y0319247D02*
X0680332D01*
X0681332Y0318247D01*
Y0315248D01*
X0678333D01*
X0677333Y0316248D01*
X0678333Y0317247D01*
X0681332D01*
X0683331Y0319247D02*
Y0316248D01*
X0684331Y0315248D01*
X0687330D01*
Y0314248D01*
X0686330Y0313249D01*
X0685331D01*
X0687330Y0315248D02*
Y0319247D01*
X0608356Y0447248D02*
Y0453246D01*
X0612354Y0447248D01*
Y0453246D01*
X0615353Y0451247D02*
X0617353D01*
X0618352Y0450247D01*
Y0447248D01*
X0615353D01*
X0614354Y0448248D01*
X0615353Y0449247D01*
X0618352D01*
X0620352Y0447248D02*
Y0451247D01*
X0621351D01*
X0622351Y0450247D01*
Y0447248D01*
Y0450247D01*
X0623351Y0451247D01*
X0624350Y0450247D01*
Y0447248D01*
X0629349D02*
X0627349D01*
X0626350Y0448248D01*
Y0450247D01*
X0627349Y0451247D01*
X0629349D01*
X0630348Y0450247D01*
Y0449247D01*
X0626350D01*
X0567364Y0435248D02*
X0569364D01*
X0568364D01*
Y0441246D01*
X0567364Y0440246D01*
X0571363Y0423248D02*
X0567364D01*
X0571363Y0427247D01*
Y0428246D01*
X0570363Y0429246D01*
X0568364D01*
X0567364Y0428246D01*
Y0416246D02*
X0568364Y0417246D01*
X0570363D01*
X0571363Y0416246D01*
Y0415247D01*
X0570363Y0414247D01*
X0569364D01*
X0570363D01*
X0571363Y0413247D01*
Y0412248D01*
X0570363Y0411248D01*
X0568364D01*
X0567364Y0412248D01*
X0570363Y0399248D02*
Y0405246D01*
X0567364Y0402247D01*
X0571363D01*
Y0393246D02*
X0567364D01*
Y0390247D01*
X0569364Y0391247D01*
X0570363D01*
X0571363Y0390247D01*
Y0388248D01*
X0570363Y0387248D01*
X0568364D01*
X0567364Y0388248D01*
X0571363Y0381246D02*
X0569364Y0380246D01*
X0567364Y0378247D01*
Y0376248D01*
X0568364Y0375248D01*
X0570363D01*
X0571363Y0376248D01*
Y0377247D01*
X0570363Y0378247D01*
X0567364D01*
Y0369246D02*
X0571363D01*
Y0368246D01*
X0567364Y0364248D01*
Y0363248D01*
Y0356246D02*
X0568364Y0357246D01*
X0570363D01*
X0571363Y0356246D01*
Y0355247D01*
X0570363Y0354247D01*
X0571363Y0353247D01*
Y0352248D01*
X0570363Y0351248D01*
X0568364D01*
X0567364Y0352248D01*
Y0353247D01*
X0568364Y0354247D01*
X0567364Y0355247D01*
Y0356246D01*
X0568364Y0354247D02*
X0570363D01*
X0567364Y0340248D02*
X0568364Y0339248D01*
X0570363D01*
X0571363Y0340248D01*
Y0344246D01*
X0570363Y0345246D01*
X0568364D01*
X0567364Y0344246D01*
Y0343247D01*
X0568364Y0342247D01*
X0571363D01*
X0567364Y0327248D02*
X0569364D01*
X0568364D01*
Y0333246D01*
X0567364Y0332246D01*
X0572363D02*
X0573362Y0333246D01*
X0575362D01*
X0576361Y0332246D01*
Y0328248D01*
X0575362Y0327248D01*
X0573362D01*
X0572363Y0328248D01*
Y0332246D01*
X0567364Y0315248D02*
X0569364D01*
X0568364D01*
Y0321246D01*
X0567364Y0320246D01*
X0572363Y0315248D02*
X0574362D01*
X0573362D01*
Y0321246D01*
X0572363Y0320246D01*
X0567364Y0453246D02*
Y0447248D01*
X0571363D01*
X0574362Y0451247D02*
X0576361D01*
X0577361Y0450247D01*
Y0447248D01*
X0574362D01*
X0573362Y0448248D01*
X0574362Y0449247D01*
X0577361D01*
X0579360Y0451247D02*
Y0448248D01*
X0580360Y0447248D01*
X0583359D01*
Y0446248D01*
X0582359Y0445249D01*
X0581360D01*
X0583359Y0447248D02*
Y0451247D01*
X0588357Y0447248D02*
X0586358D01*
X0585358Y0448248D01*
Y0450247D01*
X0586358Y0451247D01*
X0588357D01*
X0589357Y0450247D01*
Y0449247D01*
X0585358D01*
X0591357Y0451247D02*
Y0447248D01*
Y0449247D01*
X0592356Y0450247D01*
X0593356Y0451247D01*
X0594355D01*
D75*
X0561364Y0305069D02*
X0565598Y0309302D01*
X0561364Y0299069D02*
X0571598Y0309302D01*
X0561364Y0293069D02*
X0577598Y0309302D01*
X0561364Y0287069D02*
X0583598Y0309302D01*
X0561364Y0281069D02*
X0589598Y0309302D01*
X0561364Y0275069D02*
X0595598Y0309302D01*
X0561364Y0269069D02*
X0601598Y0309302D01*
X0561364Y0263069D02*
X0607598Y0309302D01*
X0561364Y0257069D02*
X0613598Y0309302D01*
X0561364Y0251069D02*
X0619598Y0309302D01*
X0561364Y0245069D02*
X0625598Y0309302D01*
X0561364Y0239069D02*
X0631598Y0309302D01*
X0561364Y0233069D02*
X0637598Y0309302D01*
X0561364Y0227069D02*
X0643598Y0309302D01*
X0561364Y0221069D02*
X0649598Y0309302D01*
X0561364Y0215069D02*
X0655598Y0309302D01*
X0561364Y0209069D02*
X0661598Y0309302D01*
X0561364Y0203069D02*
X0667598Y0309302D01*
X0561364Y0197069D02*
X0673594Y0309298D01*
X0561364Y0191069D02*
X0678218Y0307922D01*
X0561364Y0185069D02*
X0681100Y0304805D01*
X0561364Y0179069D02*
X0682232Y0299937D01*
X0561364Y0173069D02*
X0682232Y0293937D01*
X0561364Y0167069D02*
X0682232Y0287937D01*
X0561364Y0161069D02*
X0682232Y0281937D01*
X0561364Y0155069D02*
X0682232Y0275937D01*
X0567105Y0154810D02*
X0682232Y0269937D01*
X0573105Y0154810D02*
X0682232Y0263937D01*
X0579106Y0154810D02*
X0682232Y0257937D01*
X0585106Y0154810D02*
X0682232Y0251937D01*
X0591106Y0154810D02*
X0682232Y0245937D01*
X0597106Y0154810D02*
X0682232Y0239937D01*
X0603105Y0154810D02*
X0682232Y0233937D01*
X0609105Y0154810D02*
X0682232Y0227937D01*
X0615105Y0154810D02*
X0682232Y0221937D01*
X0615245Y0148950D02*
X0682232Y0215937D01*
X0615245Y0142950D02*
X0682232Y0209937D01*
X0615245Y0136950D02*
X0682232Y0203937D01*
X0615245Y0130950D02*
X0682232Y0197937D01*
X0615245Y0124950D02*
X0682232Y0191937D01*
X0616178Y0119883D02*
X0682232Y0185937D01*
X0622178Y0119883D02*
X0682232Y0179937D01*
X0628178Y0119883D02*
X0682232Y0173937D01*
X0634178Y0119883D02*
X0682232Y0167937D01*
X0640178Y0119883D02*
X0682232Y0161937D01*
X0646178Y0119883D02*
X0682232Y0155937D01*
X0652178Y0119883D02*
X0682232Y0149937D01*
X0658178Y0119883D02*
X0682232Y0143937D01*
X0664178Y0119883D02*
X0682232Y0137937D01*
X0670178Y0119883D02*
X0682232Y0131937D01*
X0676813Y0120518D02*
X0681575Y0125279D01*
X0914273Y0440280D02*
X0918241Y0444248D01*
X0914273Y0434280D02*
X0924241Y0444248D01*
X0918241Y0432248D02*
X0930241Y0444248D01*
X0924241Y0432248D02*
X0936241Y0444248D01*
X0930241Y0432248D02*
X0942241Y0444248D01*
X0936241Y0432248D02*
X0948241Y0444248D01*
X0942241Y0432248D02*
X0954241Y0444248D01*
X0948241Y0432248D02*
X0960241Y0444248D01*
X0954241Y0432248D02*
X0966241Y0444248D01*
X0960241Y0432248D02*
X0972241Y0444248D01*
X0966241Y0432248D02*
X0978241Y0444248D01*
X0972241Y0432248D02*
X0984241Y0444248D01*
X0978241Y0432248D02*
X0990241Y0444248D01*
X0984241Y0432248D02*
X0996241Y0444248D01*
X0990241Y0432248D02*
X1002241Y0444248D01*
X0996241Y0432248D02*
X1008241Y0444248D01*
X1002241Y0432248D02*
X1014241Y0444248D01*
X1008241Y0432248D02*
X1020241Y0444248D01*
X1014241Y0432248D02*
X1026241Y0444248D01*
X1020241Y0432248D02*
X1026241Y0438248D01*
X0914273Y0428280D02*
X0918241Y0432248D01*
X0914273Y0422280D02*
X0924241Y0432248D01*
X0918241Y0420248D02*
X0930241Y0432248D01*
X0924241Y0420248D02*
X0936241Y0432248D01*
X0930241Y0420248D02*
X0942241Y0432248D01*
X0936241Y0420248D02*
X0948241Y0432248D01*
X0942241Y0420248D02*
X0954241Y0432248D01*
X0948241Y0420248D02*
X0960241Y0432248D01*
X0954241Y0420248D02*
X0966241Y0432248D01*
X0960241Y0420248D02*
X0972241Y0432248D01*
X0966241Y0420248D02*
X0978241Y0432248D01*
X0972241Y0420248D02*
X0984241Y0432248D01*
X0978241Y0420248D02*
X0990241Y0432248D01*
X0984241Y0420248D02*
X0996241Y0432248D01*
X0990241Y0420248D02*
X1002241Y0432248D01*
X0996241Y0420248D02*
X1008241Y0432248D01*
X1002241Y0420248D02*
X1014241Y0432248D01*
X1008241Y0420248D02*
X1020241Y0432248D01*
X1014241Y0420248D02*
X1026241Y0432248D01*
X1020241Y0420248D02*
X1026241Y0426248D01*
X0914273Y0416280D02*
X0918241Y0420248D01*
X0914273Y0410280D02*
X0924241Y0420248D01*
X0918241Y0408248D02*
X0930241Y0420248D01*
X0924241Y0408248D02*
X0936241Y0420248D01*
X0930241Y0408248D02*
X0942241Y0420248D01*
X0936241Y0408248D02*
X0948241Y0420248D01*
X0942241Y0408248D02*
X0954241Y0420248D01*
X0948241Y0408248D02*
X0960241Y0420248D01*
X0954241Y0408248D02*
X0966241Y0420248D01*
X0960241Y0408248D02*
X0972241Y0420248D01*
X0966241Y0408248D02*
X0978241Y0420248D01*
X0972241Y0408248D02*
X0984241Y0420248D01*
X0978241Y0408248D02*
X0990241Y0420248D01*
X0984241Y0408248D02*
X0996241Y0420248D01*
X0990241Y0408248D02*
X1002241Y0420248D01*
X0996241Y0408248D02*
X1008241Y0420248D01*
X1002241Y0408248D02*
X1014241Y0420248D01*
X1008241Y0408248D02*
X1020241Y0420248D01*
X1014241Y0408248D02*
X1026241Y0420248D01*
X1020241Y0408248D02*
X1026241Y0414248D01*
X0914273Y0404280D02*
X0918241Y0408248D01*
X0914273Y0398280D02*
X0924241Y0408248D01*
X0918241Y0396248D02*
X0930241Y0408248D01*
X0924241Y0396248D02*
X0936241Y0408248D01*
X0930241Y0396248D02*
X0942241Y0408248D01*
X0936241Y0396248D02*
X0948241Y0408248D01*
X0942241Y0396248D02*
X0954241Y0408248D01*
X0948241Y0396248D02*
X0960241Y0408248D01*
X0954241Y0396248D02*
X0966241Y0408248D01*
X0960241Y0396248D02*
X0972241Y0408248D01*
X0966241Y0396248D02*
X0978241Y0408248D01*
X0972241Y0396248D02*
X0984241Y0408248D01*
X0978241Y0396248D02*
X0990241Y0408248D01*
X0984241Y0396248D02*
X0996241Y0408248D01*
X0990241Y0396248D02*
X1002241Y0408248D01*
X0996241Y0396248D02*
X1008241Y0408248D01*
X1002241Y0396248D02*
X1014241Y0408248D01*
X1008241Y0396248D02*
X1020241Y0408248D01*
X1014241Y0396248D02*
X1026241Y0408248D01*
X1020241Y0396248D02*
X1026241Y0402248D01*
X0914273Y0392280D02*
X0918241Y0396248D01*
X0914273Y0386280D02*
X0924241Y0396248D01*
X0918241Y0384248D02*
X0930241Y0396248D01*
X0924241Y0384248D02*
X0936241Y0396248D01*
X0930241Y0384248D02*
X0942241Y0396248D01*
X0936241Y0384248D02*
X0948241Y0396248D01*
X0942241Y0384248D02*
X0954241Y0396248D01*
X0948241Y0384248D02*
X0960241Y0396248D01*
X0954241Y0384248D02*
X0966241Y0396248D01*
X0960241Y0384248D02*
X0972241Y0396248D01*
X0966241Y0384248D02*
X0978241Y0396248D01*
X0972241Y0384248D02*
X0984241Y0396248D01*
X0978241Y0384248D02*
X0990241Y0396248D01*
X0984241Y0384248D02*
X0996241Y0396248D01*
X0990241Y0384248D02*
X1002241Y0396248D01*
X0996241Y0384248D02*
X1008241Y0396248D01*
X1002241Y0384248D02*
X1014241Y0396248D01*
X1008241Y0384248D02*
X1020241Y0396248D01*
X1014241Y0384248D02*
X1026241Y0396248D01*
X1020241Y0384248D02*
X1026241Y0390248D01*
X0914273Y0380280D02*
X0918241Y0384248D01*
X0914273Y0374280D02*
X0924241Y0384248D01*
X0918241Y0372248D02*
X0930241Y0384248D01*
X0924241Y0372248D02*
X0936241Y0384248D01*
X0930241Y0372248D02*
X0942241Y0384248D01*
X0936241Y0372248D02*
X0948241Y0384248D01*
X0942241Y0372248D02*
X0954241Y0384248D01*
X0948241Y0372248D02*
X0960241Y0384248D01*
X0954241Y0372248D02*
X0966241Y0384248D01*
X0960241Y0372248D02*
X0972241Y0384248D01*
X0966241Y0372248D02*
X0978241Y0384248D01*
X0972241Y0372248D02*
X0984241Y0384248D01*
X0978241Y0372248D02*
X0990241Y0384248D01*
X0984241Y0372248D02*
X0996241Y0384248D01*
X0990241Y0372248D02*
X1002241Y0384248D01*
X0996241Y0372248D02*
X1008241Y0384248D01*
X1002241Y0372248D02*
X1014241Y0384248D01*
X1008241Y0372248D02*
X1020241Y0384248D01*
X1014241Y0372248D02*
X1026241Y0384248D01*
X1020241Y0372248D02*
X1026241Y0378248D01*
X0914273Y0368280D02*
X0918241Y0372248D01*
X0914273Y0362280D02*
X0924241Y0372248D01*
X0918241Y0360248D02*
X0930241Y0372248D01*
X0924241Y0360248D02*
X0936241Y0372248D01*
X0930241Y0360248D02*
X0942241Y0372248D01*
X0936241Y0360248D02*
X0948241Y0372248D01*
X0942241Y0360248D02*
X0954241Y0372248D01*
X0948241Y0360248D02*
X0960241Y0372248D01*
X0954241Y0360248D02*
X0966241Y0372248D01*
X0960241Y0360248D02*
X0972241Y0372248D01*
X0966241Y0360248D02*
X0978241Y0372248D01*
X0972241Y0360248D02*
X0984241Y0372248D01*
X0978241Y0360248D02*
X0990241Y0372248D01*
X0984241Y0360248D02*
X0996241Y0372248D01*
X0990241Y0360248D02*
X1002241Y0372248D01*
X0996241Y0360248D02*
X1008241Y0372248D01*
X1002241Y0360248D02*
X1014241Y0372248D01*
X1008241Y0360248D02*
X1020241Y0372248D01*
X1014241Y0360248D02*
X1026241Y0372248D01*
X1020241Y0360248D02*
X1026241Y0366248D01*
X0914273Y0356280D02*
X0918241Y0360248D01*
X0914273Y0350280D02*
X0924241Y0360248D01*
X0918241Y0348248D02*
X0930241Y0360248D01*
X0924241Y0348248D02*
X0936241Y0360248D01*
X0930241Y0348248D02*
X0942241Y0360248D01*
X0936241Y0348248D02*
X0948241Y0360248D01*
X0942241Y0348248D02*
X0954241Y0360248D01*
X0948241Y0348248D02*
X0960241Y0360248D01*
X0954241Y0348248D02*
X0966241Y0360248D01*
X0960241Y0348248D02*
X0972241Y0360248D01*
X0966241Y0348248D02*
X0978241Y0360248D01*
X0972241Y0348248D02*
X0984241Y0360248D01*
X0978241Y0348248D02*
X0990241Y0360248D01*
X0984241Y0348248D02*
X0996241Y0360248D01*
X0990241Y0348248D02*
X1002241Y0360248D01*
X0996241Y0348248D02*
X1008241Y0360248D01*
X1002241Y0348248D02*
X1014241Y0360248D01*
X1008241Y0348248D02*
X1020241Y0360248D01*
X1014241Y0348248D02*
X1026241Y0360248D01*
X1020241Y0348248D02*
X1026241Y0354248D01*
X0914273Y0344280D02*
X0918241Y0348248D01*
X0914273Y0338280D02*
X0924241Y0348248D01*
X0918241Y0336248D02*
X0930241Y0348248D01*
X0924241Y0336248D02*
X0936241Y0348248D01*
X0930241Y0336248D02*
X0942241Y0348248D01*
X0936241Y0336248D02*
X0948241Y0348248D01*
X0942241Y0336248D02*
X0954241Y0348248D01*
X0948241Y0336248D02*
X0960241Y0348248D01*
X0954241Y0336248D02*
X0966241Y0348248D01*
X0960241Y0336248D02*
X0972241Y0348248D01*
X0966241Y0336248D02*
X0978241Y0348248D01*
X0972241Y0336248D02*
X0984241Y0348248D01*
X0978241Y0336248D02*
X0990241Y0348248D01*
X0984241Y0336248D02*
X0996241Y0348248D01*
X0990241Y0336248D02*
X1002241Y0348248D01*
X0996241Y0336248D02*
X1008241Y0348248D01*
X1002241Y0336248D02*
X1014241Y0348248D01*
X1008241Y0336248D02*
X1020241Y0348248D01*
X1014241Y0336248D02*
X1026241Y0348248D01*
X1020241Y0336248D02*
X1026241Y0342248D01*
X0914273Y0332280D02*
X0918241Y0336248D01*
X0914273Y0326280D02*
X0924241Y0336248D01*
X0918241Y0324248D02*
X0930241Y0336248D01*
X0924241Y0324248D02*
X0936241Y0336248D01*
X0930241Y0324248D02*
X0942241Y0336248D01*
X0936241Y0324248D02*
X0948241Y0336248D01*
X0942241Y0324248D02*
X0954241Y0336248D01*
X0948241Y0324248D02*
X0960241Y0336248D01*
X0954241Y0324248D02*
X0966241Y0336248D01*
X0960241Y0324248D02*
X0972241Y0336248D01*
X0966241Y0324248D02*
X0978241Y0336248D01*
X0972241Y0324248D02*
X0984241Y0336248D01*
X0978241Y0324248D02*
X0990241Y0336248D01*
X0984241Y0324248D02*
X0996241Y0336248D01*
X0990241Y0324248D02*
X1002241Y0336248D01*
X0996241Y0324248D02*
X1008241Y0336248D01*
X1002241Y0324248D02*
X1014241Y0336248D01*
X1008241Y0324248D02*
X1020241Y0336248D01*
X1014241Y0324248D02*
X1026241Y0336248D01*
X1020241Y0324248D02*
X1026241Y0330248D01*
X0914273Y0320280D02*
X0918241Y0324248D01*
X0914273Y0314280D02*
X0924241Y0324248D01*
X0918241Y0312248D02*
X0930241Y0324248D01*
X0924241Y0312248D02*
X0936241Y0324248D01*
X0930241Y0312248D02*
X0942241Y0324248D01*
X0936241Y0312248D02*
X0948241Y0324248D01*
X0942241Y0312248D02*
X0954241Y0324248D01*
X0948241Y0312248D02*
X0960241Y0324248D01*
X0954241Y0312248D02*
X0966241Y0324248D01*
X0960241Y0312248D02*
X0972241Y0324248D01*
X0966241Y0312248D02*
X0978241Y0324248D01*
X0972241Y0312248D02*
X0984241Y0324248D01*
X0978241Y0312248D02*
X0990241Y0324248D01*
X0984241Y0312248D02*
X0996241Y0324248D01*
X0990241Y0312248D02*
X1002241Y0324248D01*
X0996241Y0312248D02*
X1008241Y0324248D01*
X1002241Y0312248D02*
X1014241Y0324248D01*
X1008241Y0312248D02*
X1020241Y0324248D01*
X1014241Y0312248D02*
X1026241Y0324248D01*
X1020241Y0312248D02*
X1026241Y0318248D01*
D76*
X0503234Y0309312D02*
X0502235Y0310312D01*
Y0312311D01*
X0503234Y0313311D01*
X0504234D01*
X0505234Y0312311D01*
Y0311311D01*
Y0312311D01*
X0506234Y0313311D01*
X0507233D01*
X0508233Y0312311D01*
Y0310312D01*
X0507233Y0309312D01*
X0502235Y0319309D02*
X0503234Y0317309D01*
X0505234Y0315310D01*
X0507233D01*
X0508233Y0316309D01*
Y0318309D01*
X0507233Y0319309D01*
X0506234D01*
X0505234Y0318309D01*
Y0315310D01*
X0508233Y0321308D02*
X0507233D01*
Y0322308D01*
X0508233D01*
Y0321308D01*
X0507233Y0326306D02*
X0508233Y0327306D01*
Y0329305D01*
X0507233Y0330305D01*
X0503234D01*
X0502235Y0329305D01*
Y0327306D01*
X0503234Y0326306D01*
X0504234D01*
X0505234Y0327306D01*
Y0330305D01*
X0502235Y0336303D02*
X0503234Y0334304D01*
X0505234Y0332304D01*
X0507233D01*
X0508233Y0333304D01*
Y0335303D01*
X0507233Y0336303D01*
X0506234D01*
X0505234Y0335303D01*
Y0332304D01*
X0447122Y0441854D02*
X0448122Y0442854D01*
X0450121D01*
X0451121Y0441854D01*
Y0437855D01*
X0450121Y0436856D01*
X0448122D01*
X0447122Y0437855D01*
Y0441854D01*
X0453120Y0436856D02*
Y0437855D01*
X0454120D01*
Y0436856D01*
X0453120D01*
X0458118Y0441854D02*
X0459118Y0442854D01*
X0461117D01*
X0462117Y0441854D01*
Y0437855D01*
X0461117Y0436856D01*
X0459118D01*
X0458118Y0437855D01*
Y0441854D01*
X0467115Y0436856D02*
Y0442854D01*
X0464116Y0439854D01*
X0468115D01*
X0381762Y0448149D02*
Y0454147D01*
X0378762Y0451148D01*
X0382761D01*
X0384760Y0448149D02*
X0386760D01*
X0385760D01*
Y0454147D01*
X0384760Y0453147D01*
X0389759Y0448149D02*
Y0449149D01*
X0390759D01*
Y0448149D01*
X0389759D01*
X0398756Y0454147D02*
X0394757D01*
Y0451148D01*
X0396757Y0452148D01*
X0397756D01*
X0398756Y0451148D01*
Y0449149D01*
X0397756Y0448149D01*
X0395757D01*
X0394757Y0449149D01*
X0400755Y0453147D02*
X0401755Y0454147D01*
X0403754D01*
X0404754Y0453147D01*
Y0449149D01*
X0403754Y0448149D01*
X0401755D01*
X0400755Y0449149D01*
Y0453147D01*
X0267904Y0273856D02*
X0268904Y0271856D01*
X0270903Y0269857D01*
X0272902D01*
X0273902Y0270857D01*
Y0272856D01*
X0272902Y0273856D01*
X0271903D01*
X0270903Y0272856D01*
Y0269857D01*
X0267904Y0279854D02*
Y0275855D01*
X0270903D01*
X0269903Y0277854D01*
Y0278854D01*
X0270903Y0279854D01*
X0272902D01*
X0273902Y0278854D01*
Y0276855D01*
X0272902Y0275855D01*
X0273902Y0281853D02*
X0272902D01*
Y0282853D01*
X0273902D01*
Y0281853D01*
X0268904Y0286852D02*
X0267904Y0287851D01*
Y0289851D01*
X0268904Y0290850D01*
X0272902D01*
X0273902Y0289851D01*
Y0287851D01*
X0272902Y0286852D01*
X0268904D01*
Y0292850D02*
X0267904Y0293849D01*
Y0295849D01*
X0268904Y0296848D01*
X0272902D01*
X0273902Y0295849D01*
Y0293849D01*
X0272902Y0292850D01*
X0268904D01*
X0285404Y0297478D02*
Y0293479D01*
X0288403D01*
X0287403Y0295479D01*
Y0296478D01*
X0288403Y0297478D01*
X0290403D01*
X0291402Y0296478D01*
Y0294479D01*
X0290403Y0293479D01*
X0286404Y0299477D02*
X0285404Y0300477D01*
Y0302476D01*
X0286404Y0303476D01*
X0287403D01*
X0288403Y0302476D01*
Y0301477D01*
Y0302476D01*
X0289403Y0303476D01*
X0290403D01*
X0291402Y0302476D01*
Y0300477D01*
X0290403Y0299477D01*
X0291402Y0305475D02*
X0290403D01*
Y0306475D01*
X0291402D01*
Y0305475D01*
X0286404Y0310474D02*
X0285404Y0311473D01*
Y0313473D01*
X0286404Y0314472D01*
X0290403D01*
X0291402Y0313473D01*
Y0311473D01*
X0290403Y0310474D01*
X0286404D01*
Y0316472D02*
X0285404Y0317471D01*
Y0319471D01*
X0286404Y0320470D01*
X0290403D01*
X0291402Y0319471D01*
Y0317471D01*
X0290403Y0316472D01*
X0286404D01*
M02*
