%FSLAX25Y25*%
%MOIN*%
G70*
G01*
G75*
G04 Layer_Physical_Order=2*
G04 Layer_Color=16711680*
%ADD10R,0.07874X0.01969*%
%ADD11R,0.15000X0.02200*%
%ADD12C,0.02000*%
%ADD13C,0.01200*%
%ADD14C,0.01500*%
%ADD15C,0.02109*%
%ADD16C,0.11811*%
%ADD17C,0.06102*%
%ADD18C,0.02800*%
G36*
X42442Y93623D02*
X42839Y93358D01*
X43307Y93265D01*
X707438D01*
Y16972D01*
X43233D01*
X43144Y16989D01*
X42676Y16896D01*
X42279Y16631D01*
X26871Y1223D01*
X1223D01*
Y109013D01*
X27052D01*
X42442Y93623D01*
D02*
G37*
%LPC*%
G36*
X17000Y21637D02*
X15705Y21510D01*
X14460Y21132D01*
X13312Y20519D01*
X12307Y19693D01*
X11481Y18688D01*
X10868Y17540D01*
X10490Y16295D01*
X10362Y15000D01*
X10490Y13705D01*
X10868Y12460D01*
X11481Y11312D01*
X12307Y10307D01*
X13312Y9481D01*
X14460Y8868D01*
X15705Y8490D01*
X17000Y8363D01*
X18295Y8490D01*
X19540Y8868D01*
X20688Y9481D01*
X21693Y10307D01*
X22519Y11312D01*
X23132Y12460D01*
X23510Y13705D01*
X23638Y15000D01*
X23510Y16295D01*
X23132Y17540D01*
X22519Y18688D01*
X21693Y19693D01*
X20688Y20519D01*
X19540Y21132D01*
X18295Y21510D01*
X17000Y21637D01*
D02*
G37*
G36*
X675858Y39512D02*
X674879Y39383D01*
X673967Y39005D01*
X673183Y38404D01*
X672582Y37620D01*
X672204Y36708D01*
X672075Y35728D01*
X672204Y34749D01*
X672582Y33837D01*
X673183Y33053D01*
X673967Y32452D01*
X674879Y32074D01*
X675858Y31945D01*
X676837Y32074D01*
X677750Y32452D01*
X678534Y33053D01*
X679135Y33837D01*
X679513Y34749D01*
X679642Y35728D01*
X679513Y36708D01*
X679135Y37620D01*
X678534Y38404D01*
X677750Y39005D01*
X676837Y39383D01*
X675858Y39512D01*
D02*
G37*
G36*
X17000Y101874D02*
X15705Y101746D01*
X14460Y101368D01*
X13312Y100755D01*
X12307Y99930D01*
X11481Y98924D01*
X10868Y97776D01*
X10490Y96531D01*
X10362Y95236D01*
X10490Y93941D01*
X10868Y92696D01*
X11481Y91549D01*
X12307Y90543D01*
X13312Y89717D01*
X14460Y89104D01*
X15705Y88726D01*
X17000Y88599D01*
X18295Y88726D01*
X19540Y89104D01*
X20688Y89717D01*
X21693Y90543D01*
X22519Y91549D01*
X23132Y92696D01*
X23510Y93941D01*
X23638Y95236D01*
X23510Y96531D01*
X23132Y97776D01*
X22519Y98924D01*
X21693Y99930D01*
X20688Y100755D01*
X19540Y101368D01*
X18295Y101746D01*
X17000Y101874D01*
D02*
G37*
G36*
X675661Y77406D02*
X674682Y77277D01*
X673770Y76899D01*
X672986Y76297D01*
X672385Y75514D01*
X672007Y74601D01*
X671878Y73622D01*
X672007Y72643D01*
X672385Y71730D01*
X672986Y70947D01*
X673770Y70345D01*
X674682Y69967D01*
X675661Y69839D01*
X676641Y69967D01*
X677553Y70345D01*
X678337Y70947D01*
X678938Y71730D01*
X679316Y72643D01*
X679445Y73622D01*
X679316Y74601D01*
X678938Y75514D01*
X678337Y76297D01*
X677553Y76899D01*
X676641Y77277D01*
X675661Y77406D01*
D02*
G37*
%LPD*%
D16*
X17000Y95236D02*
D03*
Y15000D02*
D03*
D17*
X675858Y35728D02*
D03*
X675661Y73622D02*
D03*
D18*
X703661Y86622D02*
D03*
X701161Y81622D02*
D03*
X703661Y76622D02*
D03*
X701161Y71622D02*
D03*
X703661Y66622D02*
D03*
X701161Y61622D02*
D03*
X703661Y56622D02*
D03*
X701161Y51622D02*
D03*
X703661Y46622D02*
D03*
X701161Y41622D02*
D03*
X703661Y36622D02*
D03*
X701161Y31622D02*
D03*
X703661Y26622D02*
D03*
X701161Y21622D02*
D03*
X698661Y86622D02*
D03*
X696161Y81622D02*
D03*
X698661Y76622D02*
D03*
Y66622D02*
D03*
Y56622D02*
D03*
Y46622D02*
D03*
Y36622D02*
D03*
X696161Y31622D02*
D03*
X698661Y26622D02*
D03*
X696161Y21622D02*
D03*
X693661Y86622D02*
D03*
X691161Y81622D02*
D03*
X693661Y76622D02*
D03*
Y36622D02*
D03*
X691161Y31622D02*
D03*
X693661Y26622D02*
D03*
X691161Y21622D02*
D03*
X688661Y86622D02*
D03*
Y76622D02*
D03*
Y36622D02*
D03*
Y26622D02*
D03*
X686161Y21622D02*
D03*
X683661Y86622D02*
D03*
X681161Y41622D02*
D03*
X683661Y26622D02*
D03*
X681161Y21622D02*
D03*
X19825Y68777D02*
D03*
X23325D02*
D03*
X26825D02*
D03*
X30325D02*
D03*
X33825D02*
D03*
X37325D02*
D03*
X40825D02*
D03*
X44325D02*
D03*
X47825D02*
D03*
X51325D02*
D03*
X54825D02*
D03*
X58325D02*
D03*
X61825D02*
D03*
X65325D02*
D03*
X68825D02*
D03*
X72325D02*
D03*
X75825D02*
D03*
X79325D02*
D03*
X82825D02*
D03*
X86325D02*
D03*
X89825D02*
D03*
X93325D02*
D03*
X96825D02*
D03*
X100325D02*
D03*
X103825D02*
D03*
X107325D02*
D03*
X110825D02*
D03*
X114325D02*
D03*
X117825D02*
D03*
X121325D02*
D03*
X124825D02*
D03*
X128325D02*
D03*
X131825D02*
D03*
X135325D02*
D03*
X138825D02*
D03*
X142325D02*
D03*
X145825D02*
D03*
X149325D02*
D03*
X152825D02*
D03*
X156325D02*
D03*
X159825D02*
D03*
X163325D02*
D03*
X166825D02*
D03*
X170325D02*
D03*
X173825D02*
D03*
X177325D02*
D03*
X180825D02*
D03*
X184325D02*
D03*
X187825D02*
D03*
X191325D02*
D03*
X194825D02*
D03*
X198325D02*
D03*
X201825D02*
D03*
X205325D02*
D03*
X208825D02*
D03*
X212325D02*
D03*
X215825D02*
D03*
X219325D02*
D03*
X222825D02*
D03*
X226325D02*
D03*
X229825D02*
D03*
X233325D02*
D03*
X236825D02*
D03*
X240325D02*
D03*
X243825D02*
D03*
X247325D02*
D03*
X250825D02*
D03*
X254325D02*
D03*
X257825D02*
D03*
X261325D02*
D03*
X264825D02*
D03*
X268325D02*
D03*
X271825D02*
D03*
X275325D02*
D03*
X278825D02*
D03*
X282325D02*
D03*
X285825D02*
D03*
X289325D02*
D03*
X292825D02*
D03*
X296325D02*
D03*
X299825D02*
D03*
X303325D02*
D03*
X306825D02*
D03*
X310325D02*
D03*
X313825D02*
D03*
X317325D02*
D03*
X320825D02*
D03*
X324325D02*
D03*
X327825D02*
D03*
X331325D02*
D03*
X334825D02*
D03*
X338325D02*
D03*
X341825D02*
D03*
X345325D02*
D03*
X348825D02*
D03*
X352325D02*
D03*
X355825D02*
D03*
X359325D02*
D03*
X362825D02*
D03*
X366325D02*
D03*
X369825D02*
D03*
X373325D02*
D03*
X376825D02*
D03*
X380325D02*
D03*
X383825D02*
D03*
X387325D02*
D03*
X390825D02*
D03*
X394325D02*
D03*
X397825D02*
D03*
X401325D02*
D03*
X404825D02*
D03*
X408325D02*
D03*
X411825D02*
D03*
X415325D02*
D03*
X418825D02*
D03*
X422325D02*
D03*
X425825D02*
D03*
X429325D02*
D03*
X432825D02*
D03*
X436325D02*
D03*
X439825D02*
D03*
X443325D02*
D03*
X446825D02*
D03*
X450325D02*
D03*
X453825D02*
D03*
X457325D02*
D03*
X460825D02*
D03*
X464325D02*
D03*
X467825D02*
D03*
X471325D02*
D03*
X474825D02*
D03*
X478325D02*
D03*
X481825D02*
D03*
X485325D02*
D03*
X488825D02*
D03*
X492325D02*
D03*
X495825D02*
D03*
X499325D02*
D03*
X502825D02*
D03*
X506325D02*
D03*
X509825D02*
D03*
X513325D02*
D03*
X516825D02*
D03*
X520325D02*
D03*
X523825D02*
D03*
X527325D02*
D03*
X530825D02*
D03*
X534325D02*
D03*
X537825D02*
D03*
X541325D02*
D03*
X544825D02*
D03*
X548325D02*
D03*
X551825D02*
D03*
X555325D02*
D03*
X558825D02*
D03*
X562325D02*
D03*
X565825D02*
D03*
X569325D02*
D03*
X572825D02*
D03*
X576325D02*
D03*
X579825D02*
D03*
X583325D02*
D03*
X586825D02*
D03*
X590325D02*
D03*
X593825D02*
D03*
X597325D02*
D03*
X600825D02*
D03*
X604325D02*
D03*
X607825D02*
D03*
X611325D02*
D03*
X614825D02*
D03*
X618325D02*
D03*
X621825D02*
D03*
X625325D02*
D03*
X628825D02*
D03*
X632325D02*
D03*
X635825D02*
D03*
X639325D02*
D03*
X642825D02*
D03*
X646325D02*
D03*
X649825D02*
D03*
X653325D02*
D03*
X665904Y62013D02*
D03*
X650689Y58623D02*
D03*
X647189D02*
D03*
X643689D02*
D03*
X640189D02*
D03*
X636689D02*
D03*
X633189D02*
D03*
X629689D02*
D03*
X626189D02*
D03*
X622689D02*
D03*
X619189D02*
D03*
X615689D02*
D03*
X612189D02*
D03*
X608689D02*
D03*
X605189D02*
D03*
X601689D02*
D03*
X598189D02*
D03*
X594689D02*
D03*
X591189D02*
D03*
X587689D02*
D03*
X584189D02*
D03*
X580689D02*
D03*
X577189D02*
D03*
X573689D02*
D03*
X570189D02*
D03*
X566689D02*
D03*
X563189D02*
D03*
X559689D02*
D03*
X556189D02*
D03*
X552689D02*
D03*
X549189D02*
D03*
X545689D02*
D03*
X542189D02*
D03*
X538689D02*
D03*
X535189D02*
D03*
X531689D02*
D03*
X528189D02*
D03*
X524689D02*
D03*
X521189D02*
D03*
X517689D02*
D03*
X514189D02*
D03*
X510689D02*
D03*
X507189D02*
D03*
X503689D02*
D03*
X500189D02*
D03*
X496689D02*
D03*
X493189D02*
D03*
X489689D02*
D03*
X486189D02*
D03*
X482689D02*
D03*
X479189D02*
D03*
X475689D02*
D03*
X472189D02*
D03*
X468689D02*
D03*
X465189D02*
D03*
X461689D02*
D03*
X458189D02*
D03*
X454689D02*
D03*
X451189D02*
D03*
X447689D02*
D03*
X444189D02*
D03*
X440689D02*
D03*
X437189D02*
D03*
X433689D02*
D03*
X430189D02*
D03*
X426689D02*
D03*
X423189D02*
D03*
X419689D02*
D03*
X416189D02*
D03*
X412689D02*
D03*
X409189D02*
D03*
X405689D02*
D03*
X402189D02*
D03*
X398689D02*
D03*
X395189D02*
D03*
X391689D02*
D03*
X388189D02*
D03*
X384689D02*
D03*
X381189D02*
D03*
X377689D02*
D03*
X374189D02*
D03*
X370689D02*
D03*
X367189D02*
D03*
X363689D02*
D03*
X360189D02*
D03*
X356689D02*
D03*
X353189D02*
D03*
X349689D02*
D03*
X346189D02*
D03*
X342689D02*
D03*
X339189D02*
D03*
X335689D02*
D03*
X332189D02*
D03*
X328689D02*
D03*
X325189D02*
D03*
X321689D02*
D03*
X318189D02*
D03*
X314689D02*
D03*
X311189D02*
D03*
X307689D02*
D03*
X304189D02*
D03*
X300689D02*
D03*
X297189D02*
D03*
X293689D02*
D03*
X290189D02*
D03*
X286689D02*
D03*
X283189D02*
D03*
X279689D02*
D03*
X276189D02*
D03*
X272689D02*
D03*
X269189D02*
D03*
X265689D02*
D03*
X262189D02*
D03*
X258689D02*
D03*
X255189D02*
D03*
X251689D02*
D03*
X248189D02*
D03*
X244689D02*
D03*
X241189D02*
D03*
X237689D02*
D03*
X234189D02*
D03*
X230689D02*
D03*
X227189D02*
D03*
X223689D02*
D03*
X220189D02*
D03*
X216689D02*
D03*
X213189D02*
D03*
X209689D02*
D03*
X206189D02*
D03*
X202689D02*
D03*
X199189D02*
D03*
X195689D02*
D03*
X192189D02*
D03*
X188689D02*
D03*
X185189D02*
D03*
X181689D02*
D03*
X178189D02*
D03*
X174689D02*
D03*
X171189D02*
D03*
X167689D02*
D03*
X164189D02*
D03*
X160689D02*
D03*
X157189D02*
D03*
X153689D02*
D03*
X150189D02*
D03*
X146689D02*
D03*
X143189D02*
D03*
X139689D02*
D03*
X136189D02*
D03*
X132689D02*
D03*
X129189D02*
D03*
X125689D02*
D03*
X122189D02*
D03*
X118689D02*
D03*
X115189D02*
D03*
X111689D02*
D03*
X108189D02*
D03*
X104689D02*
D03*
X101189D02*
D03*
X97689D02*
D03*
X94189D02*
D03*
X90689D02*
D03*
X87189D02*
D03*
X83689D02*
D03*
X80189D02*
D03*
X76689D02*
D03*
X73189D02*
D03*
X69689D02*
D03*
X66189D02*
D03*
X62689D02*
D03*
X59189D02*
D03*
X55689D02*
D03*
X52189D02*
D03*
X48689D02*
D03*
X45189D02*
D03*
X41689D02*
D03*
X38189D02*
D03*
X34689D02*
D03*
X31189D02*
D03*
X27689D02*
D03*
X24189D02*
D03*
X20689D02*
D03*
X19824Y49565D02*
D03*
X23324D02*
D03*
X26824D02*
D03*
X30324D02*
D03*
X33824D02*
D03*
X37324D02*
D03*
X40824D02*
D03*
X44324D02*
D03*
X47824D02*
D03*
X51324D02*
D03*
X54824D02*
D03*
X58324D02*
D03*
X61824D02*
D03*
X65324D02*
D03*
X68824D02*
D03*
X72324D02*
D03*
X75824D02*
D03*
X79324D02*
D03*
X82824D02*
D03*
X86324D02*
D03*
X89824D02*
D03*
X93324D02*
D03*
X96824D02*
D03*
X100324D02*
D03*
X103824D02*
D03*
X107324D02*
D03*
X110824D02*
D03*
X114324D02*
D03*
X117824D02*
D03*
X121324D02*
D03*
X124824D02*
D03*
X128324D02*
D03*
X131824D02*
D03*
X135324D02*
D03*
X138824D02*
D03*
X142324D02*
D03*
X145824D02*
D03*
X149324D02*
D03*
X152824D02*
D03*
X156324D02*
D03*
X159824D02*
D03*
X163324D02*
D03*
X166824D02*
D03*
X170324D02*
D03*
X173824D02*
D03*
X177324D02*
D03*
X180824D02*
D03*
X184324D02*
D03*
X187824D02*
D03*
X191324D02*
D03*
X194824D02*
D03*
X198324D02*
D03*
X201824D02*
D03*
X205324D02*
D03*
X208824D02*
D03*
X212324D02*
D03*
X215824D02*
D03*
X219324D02*
D03*
X222824D02*
D03*
X226324D02*
D03*
X229824D02*
D03*
X233324D02*
D03*
X236824D02*
D03*
X240324D02*
D03*
X243824D02*
D03*
X247324D02*
D03*
X250824D02*
D03*
X254324D02*
D03*
X257824D02*
D03*
X261324D02*
D03*
X264824D02*
D03*
X268324D02*
D03*
X271824D02*
D03*
X275324D02*
D03*
X278824D02*
D03*
X282324D02*
D03*
X285824D02*
D03*
X289324D02*
D03*
X292824D02*
D03*
X296324D02*
D03*
X299824D02*
D03*
X303324D02*
D03*
X306824D02*
D03*
X310324D02*
D03*
X313824D02*
D03*
X317324D02*
D03*
X320824D02*
D03*
X324324D02*
D03*
X327824D02*
D03*
X331324D02*
D03*
X334824D02*
D03*
X338324D02*
D03*
X341824D02*
D03*
X345324D02*
D03*
X348824D02*
D03*
X352324D02*
D03*
X355824D02*
D03*
X359324D02*
D03*
X362824D02*
D03*
X366324D02*
D03*
X369824D02*
D03*
X373324D02*
D03*
X376824D02*
D03*
X380324D02*
D03*
X383824D02*
D03*
X387324D02*
D03*
X390824D02*
D03*
X394324D02*
D03*
X397824D02*
D03*
X401324D02*
D03*
X404824D02*
D03*
X408324D02*
D03*
X411824D02*
D03*
X415324D02*
D03*
X418824D02*
D03*
X422324D02*
D03*
X425824D02*
D03*
X429324D02*
D03*
X432824D02*
D03*
X436324D02*
D03*
X439824D02*
D03*
X443324D02*
D03*
X446824D02*
D03*
X450324D02*
D03*
X453824D02*
D03*
X457324D02*
D03*
X460824D02*
D03*
X464324D02*
D03*
X467824D02*
D03*
X471324D02*
D03*
X474824D02*
D03*
X478324D02*
D03*
X481824D02*
D03*
X485324D02*
D03*
X488824D02*
D03*
X492324D02*
D03*
X495824D02*
D03*
X499324D02*
D03*
X502824D02*
D03*
X506324D02*
D03*
X509824D02*
D03*
X513324D02*
D03*
X516824D02*
D03*
X520324D02*
D03*
X523824D02*
D03*
X527324D02*
D03*
X530824D02*
D03*
X534324D02*
D03*
X537824D02*
D03*
X541324D02*
D03*
X544824D02*
D03*
X548324D02*
D03*
X551824D02*
D03*
X555324D02*
D03*
X558824D02*
D03*
X562324D02*
D03*
X565824D02*
D03*
X569324D02*
D03*
X572824D02*
D03*
X576324D02*
D03*
X579824D02*
D03*
X583324D02*
D03*
X586824D02*
D03*
X590324D02*
D03*
X593824D02*
D03*
X597324D02*
D03*
X600824D02*
D03*
X604324D02*
D03*
X607824D02*
D03*
X611324D02*
D03*
X614824D02*
D03*
X618324D02*
D03*
X621824D02*
D03*
X625324D02*
D03*
X628824D02*
D03*
X632324D02*
D03*
X635824D02*
D03*
X639324D02*
D03*
X642824D02*
D03*
X646324D02*
D03*
X649824D02*
D03*
X653324D02*
D03*
X665904Y46608D02*
D03*
Y43108D02*
D03*
X650669Y39412D02*
D03*
X647169D02*
D03*
X643669D02*
D03*
X640169D02*
D03*
X636669D02*
D03*
X633169D02*
D03*
X629669D02*
D03*
X626169D02*
D03*
X622669D02*
D03*
X619169D02*
D03*
X615669D02*
D03*
X612169D02*
D03*
X608669D02*
D03*
X605169D02*
D03*
X601669D02*
D03*
X598169D02*
D03*
X594669D02*
D03*
X591169D02*
D03*
X587669D02*
D03*
X584169D02*
D03*
X580669D02*
D03*
X577169D02*
D03*
X573669D02*
D03*
X570169D02*
D03*
X566669D02*
D03*
X563169D02*
D03*
X559669D02*
D03*
X556169D02*
D03*
X552669D02*
D03*
X549169D02*
D03*
X545669D02*
D03*
X542169D02*
D03*
X538669D02*
D03*
X535169D02*
D03*
X531669D02*
D03*
X528169D02*
D03*
X524669D02*
D03*
X521169D02*
D03*
X517669D02*
D03*
X514169D02*
D03*
X510669D02*
D03*
X507169D02*
D03*
X503669D02*
D03*
X500169D02*
D03*
X496669D02*
D03*
X493169D02*
D03*
X489669D02*
D03*
X486169D02*
D03*
X482669D02*
D03*
X479169D02*
D03*
X475669D02*
D03*
X472169D02*
D03*
X468669D02*
D03*
X465169D02*
D03*
X461669D02*
D03*
X458169D02*
D03*
X454669D02*
D03*
X451169D02*
D03*
X447669D02*
D03*
X444169D02*
D03*
X440669D02*
D03*
X437169D02*
D03*
X433669D02*
D03*
X430169D02*
D03*
X426669D02*
D03*
X423169D02*
D03*
X419669D02*
D03*
X416169D02*
D03*
X412669D02*
D03*
X409169D02*
D03*
X405669D02*
D03*
X402169D02*
D03*
X398669D02*
D03*
X395169D02*
D03*
X391669D02*
D03*
X388169D02*
D03*
X384669D02*
D03*
X381169D02*
D03*
X377669D02*
D03*
X374169D02*
D03*
X370669D02*
D03*
X367169D02*
D03*
X363669D02*
D03*
X360169D02*
D03*
X356669D02*
D03*
X353169D02*
D03*
X349669D02*
D03*
X346169D02*
D03*
X342669D02*
D03*
X339169D02*
D03*
X335669D02*
D03*
X332169D02*
D03*
X328669D02*
D03*
X325169D02*
D03*
X321669D02*
D03*
X318169D02*
D03*
X314669D02*
D03*
X311169D02*
D03*
X307669D02*
D03*
X304169D02*
D03*
X300669D02*
D03*
X297169D02*
D03*
X293669D02*
D03*
X290169D02*
D03*
X286669D02*
D03*
X283169D02*
D03*
X279669D02*
D03*
X276169D02*
D03*
X272669D02*
D03*
X269169D02*
D03*
X265669D02*
D03*
X262169D02*
D03*
X258669D02*
D03*
X255169D02*
D03*
X251669D02*
D03*
X248169D02*
D03*
X244669D02*
D03*
X241169D02*
D03*
X237669D02*
D03*
X234169D02*
D03*
X230669D02*
D03*
X227169D02*
D03*
X223669D02*
D03*
X220169D02*
D03*
X216669D02*
D03*
X213169D02*
D03*
X209669D02*
D03*
X206169D02*
D03*
X202669D02*
D03*
X199169D02*
D03*
X195669D02*
D03*
X192169D02*
D03*
X188669D02*
D03*
X185169D02*
D03*
X181669D02*
D03*
X178169D02*
D03*
X174669D02*
D03*
X171169D02*
D03*
X167669D02*
D03*
X164169D02*
D03*
X160669D02*
D03*
X157169D02*
D03*
X153669D02*
D03*
X150169D02*
D03*
X146669D02*
D03*
X143169D02*
D03*
X139669D02*
D03*
X136169D02*
D03*
X132669D02*
D03*
X129169D02*
D03*
X125669D02*
D03*
X122169D02*
D03*
X118669D02*
D03*
X115169D02*
D03*
X111669D02*
D03*
X108169D02*
D03*
X104669D02*
D03*
X101169D02*
D03*
X97669D02*
D03*
X94169D02*
D03*
X90669D02*
D03*
X87169D02*
D03*
X83669D02*
D03*
X80169D02*
D03*
X76669D02*
D03*
X73169D02*
D03*
X69669D02*
D03*
X66169D02*
D03*
X62669D02*
D03*
X59169D02*
D03*
X55669D02*
D03*
X52169D02*
D03*
X48669D02*
D03*
X45169D02*
D03*
X41669D02*
D03*
X38169D02*
D03*
X34669D02*
D03*
X31169D02*
D03*
X27669D02*
D03*
X24169D02*
D03*
X20669D02*
D03*
M02*
