G04 Layer_Physical_Order=2*
G04 Layer_Color=16711680*
%FSLAX25Y25*%
%MOIN*%
G70*
G01*
G75*
%ADD16C,0.11811*%
%ADD17C,0.06102*%
%ADD18C,0.05000*%
%ADD19C,0.02800*%
G36*
X42658Y93839D02*
X42666Y93834D01*
X43000Y93500D01*
X707744D01*
Y16666D01*
X43233D01*
X43144Y16683D01*
X42792Y16613D01*
X42623Y16500D01*
X42500D01*
X27000Y1000D01*
X1000D01*
Y109319D01*
X27179D01*
X42658Y93839D01*
D02*
G37*
%LPC*%
G36*
X17000Y21336D02*
X15764Y21214D01*
X14575Y20854D01*
X13480Y20268D01*
X12520Y19480D01*
X11732Y18520D01*
X11146Y17425D01*
X10786Y16236D01*
X10664Y15000D01*
X10786Y13764D01*
X11146Y12575D01*
X11732Y11480D01*
X12520Y10520D01*
X13480Y9732D01*
X14575Y9146D01*
X15764Y8786D01*
X17000Y8664D01*
X18236Y8786D01*
X19425Y9146D01*
X20520Y9732D01*
X21480Y10520D01*
X22268Y11480D01*
X22854Y12575D01*
X23214Y13764D01*
X23336Y15000D01*
X23214Y16236D01*
X22854Y17425D01*
X22268Y18520D01*
X21480Y19480D01*
X20520Y20268D01*
X19425Y20854D01*
X18236Y21214D01*
X17000Y21336D01*
D02*
G37*
G36*
X675858Y39209D02*
X674957Y39091D01*
X674118Y38743D01*
X673397Y38190D01*
X672844Y37469D01*
X672496Y36629D01*
X672377Y35728D01*
X672496Y34827D01*
X672844Y33988D01*
X673397Y33267D01*
X674118Y32714D01*
X674957Y32366D01*
X675858Y32247D01*
X676759Y32366D01*
X677599Y32714D01*
X678320Y33267D01*
X678873Y33988D01*
X679221Y34827D01*
X679339Y35728D01*
X679221Y36629D01*
X678873Y37469D01*
X678320Y38190D01*
X677599Y38743D01*
X676759Y39091D01*
X675858Y39209D01*
D02*
G37*
G36*
X17000Y101572D02*
X15764Y101451D01*
X14575Y101090D01*
X13480Y100505D01*
X12520Y99717D01*
X11732Y98756D01*
X11146Y97661D01*
X10786Y96472D01*
X10664Y95236D01*
X10786Y94000D01*
X11146Y92812D01*
X11732Y91716D01*
X12520Y90756D01*
X13480Y89968D01*
X14575Y89383D01*
X15764Y89022D01*
X17000Y88900D01*
X18236Y89022D01*
X19425Y89383D01*
X20520Y89968D01*
X21480Y90756D01*
X22268Y91716D01*
X22854Y92812D01*
X23214Y94000D01*
X23336Y95236D01*
X23214Y96472D01*
X22854Y97661D01*
X22268Y98756D01*
X21480Y99717D01*
X20520Y100505D01*
X19425Y101090D01*
X18236Y101451D01*
X17000Y101572D01*
D02*
G37*
G36*
X675661Y77103D02*
X674760Y76984D01*
X673921Y76637D01*
X673200Y76083D01*
X672647Y75362D01*
X672299Y74523D01*
X672181Y73622D01*
X672299Y72721D01*
X672647Y71882D01*
X673200Y71161D01*
X673921Y70607D01*
X674760Y70260D01*
X675661Y70141D01*
X676562Y70260D01*
X677402Y70607D01*
X678123Y71161D01*
X678676Y71882D01*
X679024Y72721D01*
X679142Y73622D01*
X679024Y74523D01*
X678676Y75362D01*
X678123Y76083D01*
X677402Y76637D01*
X676562Y76984D01*
X675661Y77103D01*
D02*
G37*
%LPD*%
D16*
X17000Y95236D02*
D03*
Y15000D02*
D03*
D17*
X675858Y35728D02*
D03*
X675661Y73622D02*
D03*
D18*
X22486Y40471D02*
D03*
X28486D02*
D03*
X34486D02*
D03*
X40486D02*
D03*
X46486D02*
D03*
X52486D02*
D03*
X58486D02*
D03*
X64486D02*
D03*
X70486D02*
D03*
X76486D02*
D03*
X82486D02*
D03*
X88486D02*
D03*
X94486D02*
D03*
X100486D02*
D03*
X106486D02*
D03*
X112486D02*
D03*
X118486D02*
D03*
X124486D02*
D03*
X130486D02*
D03*
X136486D02*
D03*
X142486D02*
D03*
X148486D02*
D03*
X154486D02*
D03*
X160486D02*
D03*
X166486D02*
D03*
X172486D02*
D03*
X178486D02*
D03*
X184486D02*
D03*
X190486D02*
D03*
X196486D02*
D03*
X202486D02*
D03*
X208486D02*
D03*
X214486D02*
D03*
X220486D02*
D03*
X226486D02*
D03*
X232486D02*
D03*
X238486D02*
D03*
X244486D02*
D03*
X250486D02*
D03*
X256486D02*
D03*
X262486D02*
D03*
X268486D02*
D03*
X274486D02*
D03*
X280486D02*
D03*
X286486D02*
D03*
X292486D02*
D03*
X298486D02*
D03*
X304486D02*
D03*
X310486D02*
D03*
X316486D02*
D03*
X322486D02*
D03*
X328486D02*
D03*
X334486D02*
D03*
X340486D02*
D03*
X346486D02*
D03*
X352486D02*
D03*
X358486D02*
D03*
X364486D02*
D03*
X370486D02*
D03*
X376486D02*
D03*
X382486D02*
D03*
X388486D02*
D03*
X394486D02*
D03*
X400486D02*
D03*
X406486D02*
D03*
X412486D02*
D03*
X418486D02*
D03*
X424486D02*
D03*
X430486D02*
D03*
X436486D02*
D03*
X442486D02*
D03*
X448486D02*
D03*
X454486D02*
D03*
X460486D02*
D03*
X466486D02*
D03*
X472486D02*
D03*
X478486D02*
D03*
X484486D02*
D03*
X490486D02*
D03*
X496486D02*
D03*
X502486D02*
D03*
X508486D02*
D03*
X514486D02*
D03*
X520486D02*
D03*
X526486D02*
D03*
X532486D02*
D03*
X538486D02*
D03*
X544486D02*
D03*
X550486D02*
D03*
X556486D02*
D03*
X562486D02*
D03*
X568486D02*
D03*
X574486D02*
D03*
X580486D02*
D03*
X586486D02*
D03*
X592486D02*
D03*
X598486D02*
D03*
X604486D02*
D03*
X610486D02*
D03*
X616486D02*
D03*
X622486D02*
D03*
X628486D02*
D03*
X634486D02*
D03*
X640486D02*
D03*
X646486D02*
D03*
X652486D02*
D03*
X666570Y44380D02*
D03*
X646765Y48529D02*
D03*
X640765D02*
D03*
X634764D02*
D03*
X628764D02*
D03*
X622764D02*
D03*
X616764D02*
D03*
X610765D02*
D03*
X604765D02*
D03*
X598765D02*
D03*
X592765D02*
D03*
X586764D02*
D03*
X580764D02*
D03*
X574764D02*
D03*
X568764D02*
D03*
X562765D02*
D03*
X556765D02*
D03*
X550765D02*
D03*
X544765D02*
D03*
X538764D02*
D03*
X532764D02*
D03*
X526764D02*
D03*
X520764D02*
D03*
X514764D02*
D03*
X508765D02*
D03*
X502765D02*
D03*
X496765D02*
D03*
X490765D02*
D03*
X484764D02*
D03*
X478764D02*
D03*
X472764D02*
D03*
X466764D02*
D03*
X460765D02*
D03*
X454765D02*
D03*
X448765D02*
D03*
X442765D02*
D03*
X436764D02*
D03*
X430764D02*
D03*
X424764D02*
D03*
X418764D02*
D03*
X412765D02*
D03*
X406765D02*
D03*
X400765D02*
D03*
X394764D02*
D03*
X388765D02*
D03*
X382765D02*
D03*
X376764D02*
D03*
X370764D02*
D03*
X364764D02*
D03*
X358765D02*
D03*
X352765D02*
D03*
X346764D02*
D03*
X340764D02*
D03*
X334765D02*
D03*
X328765D02*
D03*
X322764D02*
D03*
X316764D02*
D03*
X310765D02*
D03*
X304765D02*
D03*
X298764D02*
D03*
X292764D02*
D03*
X286765D02*
D03*
X280765D02*
D03*
X274764D02*
D03*
X268764D02*
D03*
X262765D02*
D03*
X256765D02*
D03*
X250764D02*
D03*
X244764D02*
D03*
X238765D02*
D03*
X232765D02*
D03*
X226764D02*
D03*
X220764D02*
D03*
X214764D02*
D03*
X208765D02*
D03*
X202765D02*
D03*
X196765D02*
D03*
X190764D02*
D03*
X184765D02*
D03*
X178764D02*
D03*
X172765D02*
D03*
X166764D02*
D03*
X160765D02*
D03*
X154764D02*
D03*
X148765D02*
D03*
X142764D02*
D03*
X136765D02*
D03*
X130764D02*
D03*
X124765D02*
D03*
X118764D02*
D03*
X112765D02*
D03*
X106764D02*
D03*
X100765D02*
D03*
X94765D02*
D03*
X88765D02*
D03*
X82765D02*
D03*
X76765D02*
D03*
X70764D02*
D03*
X64764D02*
D03*
X58764D02*
D03*
X52764D02*
D03*
X46764D02*
D03*
X40764D02*
D03*
X34765D02*
D03*
X28765D02*
D03*
X22764D02*
D03*
X22487Y59671D02*
D03*
X28487D02*
D03*
X34487D02*
D03*
X40487D02*
D03*
X46487D02*
D03*
X52487D02*
D03*
X58487D02*
D03*
X64487D02*
D03*
X70487D02*
D03*
X76487D02*
D03*
X82487D02*
D03*
X88487D02*
D03*
X94487D02*
D03*
X100487D02*
D03*
X106487D02*
D03*
X112487D02*
D03*
X118487D02*
D03*
X124487D02*
D03*
X130487D02*
D03*
X136487D02*
D03*
X142487D02*
D03*
X148487D02*
D03*
X154487D02*
D03*
X160487D02*
D03*
X166487D02*
D03*
X172487D02*
D03*
X178487D02*
D03*
X184487D02*
D03*
X190487D02*
D03*
X196487D02*
D03*
X202487D02*
D03*
X208487D02*
D03*
X214487D02*
D03*
X220487D02*
D03*
X226487D02*
D03*
X232487D02*
D03*
X238487D02*
D03*
X244487D02*
D03*
X250487D02*
D03*
X256487D02*
D03*
X262487D02*
D03*
X268487D02*
D03*
X274487D02*
D03*
X280487D02*
D03*
X286487D02*
D03*
X292487D02*
D03*
X298487D02*
D03*
X304487D02*
D03*
X310487D02*
D03*
X316487D02*
D03*
X322487D02*
D03*
X328487D02*
D03*
X334487D02*
D03*
X340487D02*
D03*
X346487D02*
D03*
X352487D02*
D03*
X358487D02*
D03*
X364487D02*
D03*
X370487D02*
D03*
X376487D02*
D03*
X382487D02*
D03*
X388487D02*
D03*
X394487D02*
D03*
X400487D02*
D03*
X406487D02*
D03*
X412487D02*
D03*
X418487D02*
D03*
X424487D02*
D03*
X430487D02*
D03*
X436487D02*
D03*
X442487D02*
D03*
X448487D02*
D03*
X454487D02*
D03*
X460487D02*
D03*
X466487D02*
D03*
X472487D02*
D03*
X478487D02*
D03*
X484487D02*
D03*
X490487D02*
D03*
X496487D02*
D03*
X502487D02*
D03*
X508487D02*
D03*
X514487D02*
D03*
X520487D02*
D03*
X526487D02*
D03*
X532487D02*
D03*
X538487D02*
D03*
X544487D02*
D03*
X550487D02*
D03*
X556487D02*
D03*
X562487D02*
D03*
X568487D02*
D03*
X574487D02*
D03*
X580487D02*
D03*
X586487D02*
D03*
X592487D02*
D03*
X598487D02*
D03*
X604487D02*
D03*
X610487D02*
D03*
X616487D02*
D03*
X622487D02*
D03*
X628487D02*
D03*
X634487D02*
D03*
X640487D02*
D03*
X646487D02*
D03*
X652487D02*
D03*
X666578Y63219D02*
D03*
X646765Y67729D02*
D03*
X640765D02*
D03*
X634764D02*
D03*
X628764D02*
D03*
X622764D02*
D03*
X616764D02*
D03*
X610765D02*
D03*
X604765D02*
D03*
X598765D02*
D03*
X592765D02*
D03*
X586764D02*
D03*
X580764D02*
D03*
X574764D02*
D03*
X568764D02*
D03*
X562765D02*
D03*
X556765D02*
D03*
X550765D02*
D03*
X544765D02*
D03*
X538764D02*
D03*
X532764D02*
D03*
X526764D02*
D03*
X520764D02*
D03*
X514764D02*
D03*
X508765D02*
D03*
X502765D02*
D03*
X496765D02*
D03*
X490765D02*
D03*
X484764D02*
D03*
X478764D02*
D03*
X472764D02*
D03*
X466764D02*
D03*
X460765D02*
D03*
X454765D02*
D03*
X448765D02*
D03*
X442765D02*
D03*
X436764D02*
D03*
X430764D02*
D03*
X424764D02*
D03*
X418764D02*
D03*
X412765D02*
D03*
X406765D02*
D03*
X400765D02*
D03*
X394764D02*
D03*
X388765D02*
D03*
X382765D02*
D03*
X376764D02*
D03*
X370764D02*
D03*
X364764D02*
D03*
X358765D02*
D03*
X352765D02*
D03*
X346764D02*
D03*
X340764D02*
D03*
X334765D02*
D03*
X328765D02*
D03*
X322764D02*
D03*
X316764D02*
D03*
X310765D02*
D03*
X304765D02*
D03*
X298764D02*
D03*
X292764D02*
D03*
X286765D02*
D03*
X280765D02*
D03*
X274764D02*
D03*
X268764D02*
D03*
X262765D02*
D03*
X256765D02*
D03*
X250764D02*
D03*
X244764D02*
D03*
X238765D02*
D03*
X232765D02*
D03*
X226764D02*
D03*
X220764D02*
D03*
X214764D02*
D03*
X208765D02*
D03*
X202765D02*
D03*
X196765D02*
D03*
X190764D02*
D03*
X184765D02*
D03*
X178764D02*
D03*
X172765D02*
D03*
X166764D02*
D03*
X160765D02*
D03*
X154764D02*
D03*
X148765D02*
D03*
X142764D02*
D03*
X136765D02*
D03*
X130764D02*
D03*
X124765D02*
D03*
X118764D02*
D03*
X112765D02*
D03*
X106764D02*
D03*
X100765D02*
D03*
X94765D02*
D03*
X88765D02*
D03*
X82765D02*
D03*
X76765D02*
D03*
X70764D02*
D03*
X64764D02*
D03*
X58764D02*
D03*
X52764D02*
D03*
X46764D02*
D03*
X40764D02*
D03*
X34765D02*
D03*
X28765D02*
D03*
X22764D02*
D03*
D19*
X703661Y86622D02*
D03*
X701161Y81622D02*
D03*
X703661Y76622D02*
D03*
X701161Y71622D02*
D03*
X703661Y66622D02*
D03*
X701161Y61622D02*
D03*
X703661Y56622D02*
D03*
X701161Y51622D02*
D03*
X703661Y46622D02*
D03*
X701161Y41622D02*
D03*
X703661Y36622D02*
D03*
X701161Y31622D02*
D03*
X703661Y26622D02*
D03*
X701161Y21622D02*
D03*
X698661Y86622D02*
D03*
X696161Y81622D02*
D03*
X698661Y76622D02*
D03*
Y66622D02*
D03*
Y56622D02*
D03*
Y46622D02*
D03*
Y36622D02*
D03*
X696161Y31622D02*
D03*
X698661Y26622D02*
D03*
X696161Y21622D02*
D03*
X693661Y86622D02*
D03*
X691161Y81622D02*
D03*
X693661Y76622D02*
D03*
Y36622D02*
D03*
X691161Y31622D02*
D03*
X693661Y26622D02*
D03*
X691161Y21622D02*
D03*
X688661Y86622D02*
D03*
Y76622D02*
D03*
Y36622D02*
D03*
Y26622D02*
D03*
X686161Y21622D02*
D03*
X683661Y86622D02*
D03*
X681161Y41622D02*
D03*
X683661Y26622D02*
D03*
X681161Y21622D02*
D03*
M02*
